<?xml version="1.0" encoding="UTF-8"?>
<svg id="Capa_2" data-name="Capa 2" xmlns="http://www.w3.org/2000/svg" viewBox="0 0 128.91 216.61">
  <defs>
    <style>
      .cls-1 {
        fill: #37563c;
      }

      .cls-2 {
        fill: #b7772f;
      }
    </style>
  </defs>
  <g id="Capa_1-2" data-name="Capa 1">
    <g id="arbol5">
      <path class="cls-1" d="m53.9,107.06c-2.79,6.33-11.49,9.47-17.37,5.82-5.88-3.66-6.5-13.59-.78-17.48-3.67,4.51-9.87,6.83-15.61,5.83-5.74-1-10.78-5.27-12.71-10.76-1.08-3.08-.97-7.03,1.63-9-.87,2.28-4.45,1.38-6.05-.47-2.96-3.42-3.57-8.41-2.57-12.82,1-4.41,3.39-8.37,5.91-12.13,1.47-2.21,3.09-4.46,5.42-5.72s5.6-1.21,7.32.82c-4.97-5.72-1.98-14.91,3.15-20.49,2.66-2.89,5.99-5.41,9.87-6.02,3.88-.62,8.32,1.14,9.84,4.76-1.44-7.61.48-15.91,5.58-21.75C52.62,1.81,60.92-1.24,68.48.47c7.56,1.71,13.89,8.38,14.66,16.08,2.5-4.98,9.46-7.1,14.31-4.35,4.85,2.75,6.61,9.8,3.61,14.5,4.31.44,8.78.93,12.47,3.2,3.69,2.27,6.32,6.86,4.91,10.95-.42,1.22-1.18,2.48-.77,3.71.3.91,1.16,1.49,1.91,2.08,6.6,5.11,8.21,15.56,3.45,22.41,4.09,3.5,6.33,9.04,5.82,14.4-.51,5.35-3.77,10.37-8.45,13.03-1.54.87-3.98,1.22-4.66-.41.97-1.1,3,.02,3.15,1.48.16,1.46-.84,2.77-1.86,3.83-5.83,6.01-14.56,9.06-22.87,8-1.16-.15-2.5-.53-2.9-1.63-.4-1.1,1.4-2.34,1.91-1.29-2.72,6.79-12.48,9.48-18.3,5.04.16.38.18.82.11,1.27-.41,2.54-3.24,3.92-5.63,2.95l-2.3-.93c-.2,3.11-3.8,5.5-6.75,4.47-2.95-1.03-4.29-5.13-2.51-7.69l-3.89-4.52Z"/>
      <path class="cls-2" d="m58.19,216.61c-.62-29.74,2.14-97.39,2.14-97.39,0,0-20.09-40.38-26.39-56.05.52-.68,1.4-1.07,2.25-.99,2.2,8.64,5.67,14.19,9.87,22.06-.52-9.74-1.26-16.66-1.79-26.4,1.07-.1,2.15-.21,3.22-.31-1.35,17.67,5.02,34.35,15.35,48.76,1.63-19.18,3.58-56.12,3.58-56.12l2.47-2.44s.39,19.51.59,29.27c2.9-6.36,5.8-12.72,8.69-19.08,1.11,1.26,2.21,2.52,3.32,3.78-8.99,12.39-12.83,28.4-10.42,43.52,12.19-15.69,33.49-49.27,33.49-49.27l3,4.32s-11.93,18.5-17.9,27.75c5.98.02,11.97.05,17.95.07-.18,1.32-.35,2.65-.53,3.97-4.95-.22-19.78-.04-19.78-.04,0,0-10.86,13.21-14.64,18.23-1.16,1.54-2.33,3.09-3.05,4.88-.98,2.42-1.14,7.69-1.14,7.69,0,0-1.77,62.09-2.66,93.14-3.21-.58-4.39-1.17-7.6-1.75v2.42Z"/>
    </g>
  </g>
</svg>