<?xml version="1.0" encoding="UTF-8"?>
<svg id="Capa_2" data-name="Capa 2" xmlns="http://www.w3.org/2000/svg" viewBox="0 0 47.22 140.29">
  <defs>
    <style>
      .cls-1 {
        fill: #37563c;
      }

      .cls-2 {
        fill: #b7772f;
      }
    </style>
  </defs>
  <g id="Capa_1-2" data-name="Capa 1">
    <g id="arbol1">
      <path class="cls-1" d="m19.33,76.99C5.99,69.2-3.87,52.76,1.49,38.28c1.1-2.97,2.79-5.76,3.34-8.88.66-3.79-.42-7.66-.31-11.5C4.76,9.63,11.23,1.96,19.35.31c2.57-.52,5.34-.46,7.68.7,3.85,1.91,5.76,6.31,6.63,10.51,2.18,10.42.06,22,5.42,31.2,2.43,4.17,6.3,7.59,7.63,12.23,1.18,4.1.15,8.53-1.53,12.45-2.6,6.07-7.19,11.73-13.52,13.62-6.34,1.9-14.33-1.28-16.05-7.65l3.73,3.62Z"/>
      <path class="cls-2" d="m20.67,29.25c2.45,14.22,4.44,28.51,5.97,42.86,1.52,14.28,2.58,28.61,3.18,42.96.34,8.12.53,16.24.58,24.36,0,1.13,1.77,1.14,1.77,0-.08-14.51-.64-29.01-1.66-43.48-1.02-14.4-2.5-28.78-4.44-43.09-1.09-8.05-2.33-16.08-3.71-24.09-.08-.47-.66-.73-1.09-.62-.5.14-.7.61-.62,1.08h0Z"/>
      <path class="cls-2" d="m12.19,27.88c.44,2.71,1.36,5.33,2.66,7.75,1.3,2.42,3.01,4.64,5.02,6.51,1.15,1.07,2.4,2.03,3.73,2.86.39.25.99.1,1.21-.32.23-.43.1-.94-.32-1.21-.57-.35-1.12-.73-1.65-1.13-.06-.05-.12-.09-.18-.14-.1-.08.17.14.02.02-.03-.02-.06-.05-.09-.07-.13-.1-.26-.21-.39-.32-.25-.21-.5-.42-.75-.64-.99-.88-1.9-1.85-2.73-2.88-.05-.06-.09-.12-.14-.18-.02-.03-.05-.06-.07-.09-.12-.15.09.12.02.02-.1-.13-.2-.27-.3-.41-.2-.26-.38-.53-.57-.81-.37-.54-.72-1.1-1.04-1.68-.33-.58-.63-1.17-.91-1.78-.07-.14-.13-.29-.2-.44-.03-.07-.06-.14-.09-.21-.06-.14.02.04.02.06-.01-.05-.04-.11-.06-.16-.13-.31-.25-.63-.37-.95-.51-1.39-.88-2.83-1.12-4.3-.07-.46-.67-.75-1.09-.62-.5.16-.7.6-.62,1.08h0Z"/>
      <path class="cls-2" d="m34.21,48.08c.05.15.09.29.12.44,0,.03.01.06.02.1,0,.03.03.17,0,.04-.02-.12,0-.01,0,.01,0,.05,0,.11.01.16,0,.14,0,.28,0,.43,0,.09-.01.18-.02.26,0,.03,0,.07-.01.1-.01.13.04-.22,0,0-.11.64-.3,1.25-.53,1.85-.11.29-.22.58-.34.86-.06.14-.11.29-.17.43-.06.14-.1.33-.19.46.01-.02.08-.18.01-.03-.01.03-.03.06-.04.09-.03.07-.06.14-.09.21-.07.15-.13.3-.2.45-.12.28-.25.56-.38.84-1.06,2.29-2.29,4.51-3.66,6.64-.77,1.19-1.58,2.35-2.44,3.48-.13.17-.14.48-.09.68.06.2.21.43.41.53.2.11.45.16.68.09.23-.08.38-.21.53-.41,1.56-2.05,2.97-4.2,4.23-6.45,1.28-2.29,2.4-4.68,3.34-7.13.56-1.45,1.03-3.08.5-4.61-.15-.44-.61-.77-1.09-.62-.43.14-.78.62-.62,1.08h0Z"/>
    </g>
  </g>
</svg>