<?xml version="1.0" encoding="UTF-8"?>
<svg id="Capa_2" data-name="Capa 2" xmlns="http://www.w3.org/2000/svg" viewBox="0 0 37.73 131.54">
  <defs>
    <style>
      .cls-1 {
        fill: #37563c;
      }

      .cls-2 {
        fill: #b7772f;
      }
    </style>
  </defs>
  <g id="Capa_1-2" data-name="Capa 1">
    <g id="arbol2">
      <path class="cls-1" d="m8.26,72.51C2.39,62.04-3.51,49.05,2.54,38.69c2.08-3.55,5.41-6.37,6.85-10.23,1.61-4.32.55-9.1.05-13.68-.5-4.58-.15-9.84,3.35-12.84,4.32-3.7,11.51-1.75,15.04,2.72s4.21,10.52,4.18,16.2-.62,11.49.87,16.98c1.25,4.6,3.92,8.79,4.65,13.5,1.33,8.57-3.99,16.77-10.13,22.9-2.91,2.91-6.27,5.68-10.32,6.44-4.05.76-8.86-1.19-10.03-5.14-.77-2.61.03-5.81-1.8-7.82l3.01,4.77Z"/>
      <path class="cls-2" d="m14.26,41.21c.02,7.2.17,14.41.37,21.61.21,7.73.48,15.47.79,23.2.28,7.13.6,14.25.94,21.37.25,5.34.52,10.69.8,16.03.13,2.39.22,4.79.39,7.18,0,.03,0,.07,0,.1.06,1.13,1.83,1.14,1.77,0-.11-1.96-.22-3.92-.32-5.88-.27-5.05-.53-10.1-.77-15.16-.34-6.97-.65-13.94-.94-20.92-.32-7.72-.6-15.44-.82-23.16-.21-7.29-.38-14.59-.43-21.89,0-.82-.01-1.65-.01-2.47,0-1.13-1.77-1.14-1.77,0h0Z"/>
      <path class="cls-2" d="m20.83,46.04c0,.36-.01.71-.05,1.07,0,.04,0,.07-.01.11-.02.19.03-.17,0-.05-.01.08-.02.16-.04.24-.03.18-.07.35-.11.52-.08.35-.18.69-.3,1.03-.05.15-.13.3-.17.45.08-.26,0,.02-.04.08-.04.09-.08.18-.13.27-.15.31-.33.62-.51.91-.09.14-.19.28-.28.42-.05.07-.09.13-.14.19-.01.02-.12.16-.03.04.09-.12-.03.03-.05.06-.44.55-.95,1.04-1.5,1.49-.05.04-.12.05.05-.04-.05.03-.09.07-.13.1-.09.06-.17.13-.26.19-.15.11-.31.21-.47.3-.17.1-.34.19-.52.28-.09.04-.18.09-.27.13-.03.01-.07.03-.1.04-.03.01-.07.03-.1.04.13-.05.15-.06.06-.03-.22.09-.4.19-.53.41-.11.19-.16.47-.09.68.13.41.63.8,1.09.62,1.48-.61,2.8-1.53,3.84-2.75,1.03-1.2,1.8-2.62,2.21-4.15.23-.86.34-1.76.33-2.64,0-.46-.4-.9-.88-.88-.47.02-.89.39-.88.88h0Z"/>
      <path class="cls-2" d="m6.64,47.92c.28,2.21.88,4.34,1.81,6.37.89,1.96,2.09,3.78,3.52,5.4.78.89,1.64,1.7,2.57,2.44.19.15.37.26.62.26.22,0,.48-.1.62-.26.29-.32.39-.94,0-1.25-.8-.64-1.56-1.34-2.25-2.09-.35-.38-.68-.77-1-1.17-.04-.05-.08-.11-.13-.16,0,0,.11.14.05.06-.02-.02-.04-.05-.05-.07-.08-.11-.16-.22-.24-.33-.15-.2-.29-.41-.44-.62-.58-.85-1.09-1.74-1.54-2.67-.11-.24-.22-.47-.33-.71-.02-.05-.05-.11-.07-.16-.04-.09.03.08.03.08-.01-.03-.02-.05-.03-.08-.05-.13-.1-.25-.15-.38-.19-.48-.36-.96-.51-1.45-.17-.55-.32-1.12-.44-1.68-.06-.27-.11-.55-.16-.83-.02-.14-.05-.29-.07-.43-.01-.08-.02-.15-.03-.23,0-.03-.02-.13,0,0,.02.15,0-.04,0-.06-.03-.24-.08-.44-.26-.62-.15-.15-.4-.27-.62-.26-.43.02-.95.39-.88.88h0Z"/>
    </g>
  </g>
</svg>