<?xml version="1.0" encoding="UTF-8"?>
<svg id="Capa_2" data-name="Capa 2" xmlns="http://www.w3.org/2000/svg" viewBox="0 0 50.4 142.73">
  <defs>
    <style>
      .cls-1 {
        fill: #37563c;
      }

      .cls-2 {
        fill: #b7772f;
      }
    </style>
  </defs>
  <g id="Capa_1-2" data-name="Capa 1">
    <g id="arbo4">
      <path class="cls-1" d="m26.36,91.27c-7.38.3-14.1-4.23-19.36-9.4C3.28,78.23-.21,73.65.01,68.45c.25-5.81,5.04-10.45,6.37-16.11,1.35-5.73-.99-11.6-1.79-17.43-1.64-12.02,3.88-24.75,13.78-31.78C21.44.96,25.29-.74,28.89.32c4.21,1.24,6.54,5.75,7.56,10.02,1.02,4.27,1.25,8.83,3.42,12.65,2.48,4.36,7.21,7.21,9.25,11.79,1.47,3.29,1.35,7.05,1.19,10.65-.38,9.02-.79,18.23-4.04,26.65-3.24,8.43-9.88,16.08-18.69,18.12l-1.24,1.08Z"/>
      <path class="cls-2" d="m25.45,141.85c.68-10.97,1.36-21.94,2.04-32.91.67-10.91,1.35-21.83,2.02-32.74.38-6.16.76-12.31,1.14-18.47.03-.48-.43-.88-.88-.88-.5,0-.85.4-.88.88-.68,10.97-1.36,21.94-2.04,32.91-.67,10.91-1.35,21.83-2.02,32.74-.38,6.16-.76,12.31-1.14,18.47-.03.48.43.88.88.88.5,0,.85-.4.88-.88h0Z"/>
      <path class="cls-2" d="m19.18,66.04c1.5,2.71,3.76,4.99,6.44,6.55.78.45,1.6.83,2.43,1.16.43.17.99-.18,1.09-.62.12-.51-.16-.9-.62-1.08-.09-.03-.18-.07-.27-.11-.04-.01-.07-.03-.11-.04.21.08.1.04.05.02-.18-.08-.35-.15-.52-.24-.33-.16-.65-.32-.97-.5-.63-.36-1.25-.75-1.83-1.19-.03-.02-.06-.05-.09-.07-.12-.09.03.03.04.03-.07-.02-.17-.13-.23-.18-.14-.11-.28-.23-.42-.35-.28-.24-.54-.48-.8-.74-.25-.25-.5-.5-.73-.77-.12-.14-.24-.27-.36-.41-.06-.07-.11-.13-.16-.2-.05-.06-.15-.15-.18-.22.02.03.05.06.07.09-.02-.02-.03-.05-.05-.07-.03-.05-.07-.09-.1-.14-.06-.08-.12-.17-.19-.26-.11-.16-.22-.31-.33-.47-.23-.35-.45-.71-.65-1.08-.22-.4-.81-.57-1.21-.32-.41.26-.56.77-.32,1.21h0Z"/>
    </g>
  </g>
</svg>