<?xml version="1.0" encoding="UTF-8"?>
<svg id="Capa_2" data-name="Capa 2" xmlns="http://www.w3.org/2000/svg" viewBox="0 0 36.81 124.42">
  <defs>
    <style>
      .cls-1 {
        fill: #37563c;
      }

      .cls-2 {
        fill: #b7772f;
      }
    </style>
  </defs>
  <g id="Capa_1-2" data-name="Capa 1">
    <g id="arbol3">
      <path class="cls-1" d="m14.12,82.08C5.14,76.08-.38,65.26.02,54.48c.05-1.41.21-2.84.79-4.12.83-1.83,2.44-3.16,3.7-4.73,4.23-5.25,4.27-12.63,3.82-19.36-.45-6.72-1.09-13.91,2.19-19.8C13.8.59,22.84-2.49,27.38,2.49c4.38,4.8,1.51,12.54,3.12,18.84,1.04,4.07,3.98,7.47,4.9,11.56,1.17,5.2-1.08,10.53-1.11,15.86-.03,6.24,2.98,12.28,2.46,18.5-.46,5.45-3.83,10.57-8.66,13.15-4.83,2.58-10.96,2.54-15.75-.11l1.78,1.78Z"/>
      <path class="cls-2" d="m17.81,44.9c.01,10.26.02,20.52.04,30.78.01,10.21.02,20.41.04,30.62,0,5.76.01,11.52.02,17.27,0,1.13,1.77,1.14,1.77,0-.01-10.26-.02-20.52-.04-30.78-.01-10.21-.02-20.41-.04-30.62,0-5.76-.01-11.52-.02-17.27,0-1.13-1.77-1.14-1.77,0h0Z"/>
      <path class="cls-2" d="m27.26,55.15c-.23.97-.54,1.93-.92,2.86-.02.06-.05.12-.08.18-.04.09.04-.08.03-.08-.01.03-.02.05-.03.08-.05.12-.11.24-.16.36-.11.23-.22.46-.33.69-.22.45-.47.89-.72,1.32-.26.43-.53.85-.82,1.26-.15.21-.3.41-.45.62-.02.03-.13.18-.05.07.09-.11-.05.07-.07.09-.08.1-.15.19-.23.29-.64.78-1.34,1.51-2.1,2.19-.21.19-.43.37-.64.56-.1.08-.2.17-.31.25-.03.02-.06.05-.09.07-.09.07,0,0,.04-.03-.05.04-.11.08-.16.12-.46.35-.94.67-1.43.98-.39.24-.58.8-.32,1.21.25.39.79.58,1.21.32,1.8-1.12,3.43-2.52,4.8-4.12,1.37-1.6,2.52-3.4,3.35-5.33.48-1.12.89-2.27,1.17-3.46.11-.45-.14-.98-.62-1.08-.45-.1-.97.14-1.09.62h0Z"/>
      <path class="cls-2" d="m7.87,53.91c1.56,2.35,3.79,4.14,6.39,5.21.69.28,1.39.5,2.12.66.45.1.98-.13,1.09-.62.1-.45-.13-.98-.62-1.08-.62-.14-1.23-.32-1.83-.54-.07-.03-.14-.05-.21-.08-.04-.01-.07-.03-.11-.04-.11-.04.16.07.05.02-.15-.07-.3-.13-.44-.2-.29-.14-.58-.29-.86-.45-.27-.16-.54-.32-.8-.49-.12-.08-.24-.16-.35-.24-.06-.04-.12-.09-.18-.13-.03-.02-.06-.05-.09-.07-.16-.12.16.12,0,0-.49-.39-.96-.81-1.39-1.26-.25-.26-.49-.53-.71-.81-.02-.03-.05-.06-.07-.09-.1-.13.08.11.02.02-.05-.07-.1-.14-.15-.21-.11-.15-.22-.31-.32-.47-.25-.38-.79-.58-1.21-.32-.38.25-.59.8-.32,1.21h0Z"/>
    </g>
  </g>
</svg>