<?xml version="1.0" encoding="UTF-8"?>
<svg id="Capa_2" data-name="Capa 2" xmlns="http://www.w3.org/2000/svg" viewBox="0 0 142.14 242.32">
  <defs>
    <style>
      .cls-1 {
        fill: #37563c;
      }

      .cls-2 {
        fill: #b7772f;
      }
    </style>
  </defs>
  <g id="Capa_1-2" data-name="Capa 1">
    <g id="arbol6">
      <path class="cls-1" d="m58.23,119.76c-3.12,7.08-12.86,10.6-19.43,6.51-6.57-4.09-7.28-15.2-.87-19.55-4.11,5.05-11.04,7.64-17.46,6.52-6.42-1.12-12.06-5.9-14.22-12.04-1.21-3.44-1.09-7.86,1.82-10.07-.97,2.55-6.21,2.15-6.77-.53-3.52-16.88.92-23.7,3.73-27.91,1.65-2.47,3.45-4.99,6.07-6.4,2.61-1.41,6.27-1.35,8.18.91-5.56-6.4-2.22-16.68,3.52-22.92,2.97-3.23,6.7-6.05,11.04-6.74,4.34-.69,9.31,1.28,11.01,5.33-1.61-8.51.54-17.8,6.24-24.33,5.7-6.53,14.98-9.94,23.44-8.03,8.46,1.91,15.54,9.37,16.4,17.99,2.79-5.57,10.58-7.94,16.01-4.87s7.39,10.97,4.03,16.22c4.82.49,9.82,1.04,13.95,3.58,4.12,2.54,7.07,7.68,5.5,12.25-.47,1.36-1.32,2.78-.87,4.15.34,1.02,1.29,1.67,2.14,2.32,7.38,5.71,9.18,17.41,3.86,25.07,4.58,3.91,7.08,10.12,6.51,16.1-.57,5.99-4.21,11.61-9.45,14.58-1.72.98-4.45,1.37-5.22-.46,1.09-1.23,3.35.03,3.53,1.66.18,1.63-.93,3.1-2.08,4.28-6.52,6.72-16.29,10.14-25.58,8.95-1.3-.17-2.8-.59-3.24-1.82-.44-1.23,1.56-2.62,2.14-1.44-3.04,7.59-13.96,10.6-20.47,5.63.95,2.29-.26,5.23-2.54,6.19-2.28.96-5.24-.23-6.21-2.51-.23,3.48-4.25,6.15-7.55,5-3.3-1.15-4.8-5.73-2.81-8.6l-4.35-5.05Z"/>
      <path class="cls-2" d="m63.03,242.32c-.69-33.27-1.39-66.55-2.08-99.82-.07-3.37-.14-6.76-.83-10.06-.66-3.16-1.87-6.17-3.07-9.16-7.05-17.54-14.09-35.07-21.14-52.61.58-.76,1.56-1.19,2.52-1.1,2.46,9.66,6.1,19.03,10.8,27.82-.58-10.9-1.17-21.79-1.75-32.69,1.2-.12,2.4-.23,3.6-.35-1.51,19.77,4.15,40,15.7,56.12,1.82-21.45,5.46-64.35,5.46-64.35l2.76-2.73s.44,21.83.66,32.74c3.24-7.11,6.48-14.23,9.72-21.34,1.24,1.41,2.47,2.82,3.71,4.23-10.06,13.87-14.35,31.78-11.66,48.69,13.64-17.55,37.46-55.12,37.46-55.12l3.35,4.83s-13.35,20.69-20.03,31.04c6.69.03,13.39.05,20.08.08-.2,1.48-.4,2.96-.6,4.44-5.54-.24-11.08-.49-16.61-.73-1.87-.08-3.84-.15-5.52.69-1.55.77-2.64,2.19-3.68,3.57-4.23,5.61-8.46,11.21-12.69,16.82-1.3,1.72-2.61,3.46-3.41,5.45-1.09,2.7-1.19,5.69-1.27,8.6-.99,34.73-1.98,69.46-2.97,104.19-3.59-.65-4.92-1.31-8.51-1.96v2.71Z"/>
    </g>
  </g>
</svg>