<?xml version="1.0" encoding="UTF-8"?>
<svg id="Capa_2" data-name="Capa 2" xmlns="http://www.w3.org/2000/svg" viewBox="0 0 538.84 68.86">
  <defs>
    <style>
      .cls-1 {
        fill: #5d8664;
      }
    </style>
  </defs>
  <g id="Capa_1-2" data-name="Capa 1">
    <g id="Arbustos_Atras" data-name="Arbustos Atras">
      <path class="cls-1" d="m90.64,44.6c.07-5.27.12-10.67-1.58-15.66s-5.52-9.6-10.67-10.75c-5.15-1.15-11.31,2.31-11.77,7.56,2.69-3.59-.46-8.68-4.04-11.38-2.73-2.06-6.04-3.75-9.43-3.32-3.39.43-6.53,3.75-5.68,7.06,1.92-4.67-2.07-10.14-6.95-11.44-4.89-1.3-10.06.44-14.59,2.67-2.55,1.26-5.19,2.85-6.34,5.45-1.16,2.6.04,6.36,2.85,6.82-3.42-3.32-9.11-.9-13.02,1.84-3.24,2.26-6.54,4.89-7.82,8.62-1.28,3.73.51,8.75,4.4,9.45-5.68,2.31-7.89,10.49-4.15,15.35,3.74,4.86,12.22,4.81,15.91-.08-2.27-.8-4.63,1.77-4.4,4.16.22,2.39,2.16,4.28,4.22,5.52,7.43,4.46,18.05,2.49,23.39-4.32,17.54,2.59,35.58,1.84,52.85-2.19l-3.17-15.36Z"/>
      <path class="cls-1" d="m454.97,64.38c-3.27-9.2-4.13-19.24-2.46-28.86.22-1.28.59-2.7,1.72-3.34,1.63-.92,3.61.37,4.92,1.71,2.64,2.69,4.78,5.87,6.29,9.32-2.8-9.98.13-21.36,7.41-28.76.98-.99,2.09-1.95,3.45-2.27,2.5-.58,5.06,1.29,6.13,3.62,1.07,2.33,1.03,5.01.97,7.57-.66-6.85,1.21-13.91,5.18-19.53.96-1.36,2.09-2.68,3.6-3.37,4.09-1.86,8.93,1.97,9.85,6.37.92,4.39-.84,8.86-2.55,13,1.98-3.81,4.12-7.8,7.75-10.09,3.63-2.29,9.23-2.09,11.47,1.58,2.41,3.94-.2,8.93-2.76,12.78,4.12-2.63,10.43-4.88,13.12-.8,1.74,2.63.45,6.21-1.43,8.74s-4.38,4.74-5.3,7.75c1.19-4.2,8.1-4.59,10.29-.81,2.19,3.78-.61,9.16-4.85,10.23,2.27-3.07,7.9-2,9.27,1.56,1.37,3.56-1.52,7.9-5.29,8.47,1.99-1.81,5.71-1.09,6.79,1.38,1.08,2.47-1.02,5.74-3.71,5.7l-79.86-1.93Z"/>
    </g>
  </g>
</svg>