<?xml version="1.0" encoding="UTF-8"?>
<svg id="Capa_2" data-name="Capa 2" xmlns="http://www.w3.org/2000/svg" viewBox="0 0 1200 371.65">
  <defs>
    <style>
      .cls-1 {
        fill: #37563c;
      }

      .cls-2 {
        fill: #5d8664;
      }
    </style>
  </defs>
  <g id="Capa_1-2" data-name="Capa 1">
    <g id="Arbustos_Delante" data-name="Arbustos Delante">
      <path id="arbusto5" class="cls-2" d="m0,43.94C3.26,28.63,6.52,14.51,18.68,4.64c2.24-1.82,4.66-3.53,7.45-4.25,10.14-2.63,18.6,8.62,20.65,18.88,3.04,15.22-1.01,31.71-10.75,43.81,5.5-9.08,14.7-15.85,25.01-18.42,2.82-.7,5.82-1.1,8.6-.24,5.91,1.82,8.85,8.9,8.07,15.03-.78,6.13-4.33,11.5-7.78,16.63,5.49-7.83,15.87-13.3,24.75-9.73,8.88,3.57,11.18,18.58,2.4,22.4,5.75-4.46,14.48-4.57,20.34-.25,5.86,4.32,8.32,12.69,5.74,19.49,7.32-5.87,20.23,3.2,17.16,12.07,5.19-.63,9.99,3.56,11.84,8.45,1.85,4.88,1.46,10.29,1.04,15.5-.46,5.66-.99,11.55-3.92,16.41-4.5,7.45-13.45,10.72-21.72,13.46-3.11,1.03-6.4,2.07-9.61,1.41-3.21-.67-6.17-3.72-5.49-6.92-18.25,3.08-36.93.49-55.26-2.1C38.78,163.64,18.42,161.04,0,158.43V43.94Z"/>
      <path id="arbusto4" class="cls-2" d="m0,184.17c4.11-8.66,5.95-16.47,13.14-22.77,4.85-4.25,12.07-7.88,17.37-4.23,5.73,3.94,4.32,12.76,1.66,19.21-3.94,9.58-9.2,18.6-15.59,26.73,4.61-6.67,12.18-11.64,20.25-11.52,8.07.13,16.09,6.32,16.87,14.41.45,4.68-1.4,9.31-3.95,13.25-4.23,6.54-10.92,11.93-18.64,12.64-.23-2.57,3.52-3.15,6.02-2.61,4.79,1.04,9.93,2.81,12.45,7.05,3.47,5.83-.04,13.91-5.87,17.34-5.82,3.44-13.05,3.28-19.72,2.21,3.55-.89,6.57,3.72,5.45,7.23-1.12,3.51-4.73,5.59-8.25,6.57-6.45,1.81-15.33.71-21.21-2.51v-83Z"/>
      <path id="arbusto3" class="cls-2" d="m1200,16.91c-2.19-8.92-10.47-14.29-18.36-9.56-7.88,4.73-8.09,18.35-.03,22.76-7.58-6.22-20.17-4.9-26.29,2.76-6.12,7.65-4.62,20.22,3.13,26.22-4.89-4.02-13.13-1.73-16.26,3.77-3.13,5.5-1.63,12.84,2.49,17.64,4.12,4.8,10.38,7.36,16.64,8.32-7.8-.45-12.22,10.18-9,17.3,3.22,7.11,10.72,11.11,17.72,14.59-5.48-3.7-13.46-3.15-18.38,1.26-4.92,4.41-6.33,12.27-3.25,18.11-6.04-6.17-18.05-3.1-21.36,4.87-3.31,7.97,1.81,17.93,9.88,21.02,2.28.87,6.16-.48,4.91-2.58-2.49,3.39-.24,8.56,3.43,10.62,3.67,2.06,8.13,1.9,12.34,1.69,14.93-.77,27.47-1.53,42.39-2.3V16.91Z"/>
      <path id="arbusto2" class="cls-1" d="m1200,267.24c-4.99-3.75-9.7-5.7-15.91-6.34-7.5-.77-15.79.63-20.93,6.14-5.13,5.52-5.09,15.86,1.45,19.6-6.37-4.62-14.14-7.67-21.99-7.16-7.85.52-15.65,5.07-18.76,12.28s-.48,16.8,6.51,20.41c-4.44-5.53-14.05-4.79-18.58.66-4.53,5.45-4.17,13.91-.3,19.85,3.87,5.94,10.58,9.56,17.49,11.16-3.77.65-5.57,5.47-4.4,9.11,1.17,3.64,4.32,6.24,7.41,8.5,4.25,3.11,8.85,6.03,14.05,6.89,5.2.86,11.13-.82,13.95-5.26,7.6,10.61,25.4,11.56,34.09,1.82,1.3,3.64,2.53,5.48,5.93,3.62v-101.29Z"/>
      <path id="arbusto1" class="cls-2" d="m1200,218.84c-4.5-8.19-18.39-21.55-31.9.55-4.6,7.53,2.5,19.49,11.33,19.23-9.36-2.31-20.54.74-25.41,9.06-4.87,8.32-.29,21.28,9.24,22.74-11.28-2.31-23.22,8.32-22.22,19.78s14.61,19.86,25.31,15.64c-7.23,3.97-10.86,13.45-8.14,21.22,2.72,7.77,11.49,12.92,19.61,11.52.83,5.66,7.08,9.3,12.81,9,5.72-.3,4.91-3.55,9.36-7.16v-121.57Z"/>
    </g>
  </g>
</svg>