<?xml version="1.0" encoding="UTF-8"?>
<svg id="Capa_2" data-name="Capa 2" xmlns="http://www.w3.org/2000/svg" viewBox="0 0 1130.19 303.13">
  <defs>
    <style>
      .cls-1 {
        fill: #5d8664;
      }
    </style>
  </defs>
  <g id="Capa_1-2" data-name="Capa 1">
    <g id="Hierbas">
      <g id="hierba20">
        <path class="cls-1" d="m12.48,252.91c-1.16-3.73-2.32-7.46-3.48-11.19-.33-1.05-.65-2.1-.98-3.15-.08-.27-.51-.15-.43.12,1.16,3.73,2.32,7.46,3.48,11.19.33,1.05.65,2.1.98,3.15.08.27.51.15.43-.12h0Z"/>
        <path class="cls-1" d="m13.19,251.34c1.06-2.05,1.64-4.33,1.68-6.64.01-.66-.03-1.32-.1-1.98-.03-.28-.48-.28-.44,0,.27,2.23.01,4.51-.74,6.63-.22.6-.47,1.19-.77,1.76-.13.25.25.47.38.22h0Z"/>
        <path class="cls-1" d="m17.76,249.46c.81-1.6,1.62-3.2,2.43-4.79.13-.25-.25-.48-.38-.22-.81,1.6-1.62,3.2-2.43,4.79-.13.25.25.48.38.22h0Z"/>
      </g>
      <g id="hierba19">
        <path class="cls-1" d="m.01,170.77c.8,2.48,1.59,4.97,2.39,7.45.23.71.46,1.42.68,2.13.09.27.51.15.43-.12-.8-2.48-1.59-4.97-2.39-7.45-.23-.71-.46-1.42-.68-2.13-.09-.27-.51-.15-.43.12H.01Z"/>
        <path class="cls-1" d="m4.06,171.93l.69,6.6c.03.28.47.28.44,0-.23-2.2-.46-4.4-.69-6.6-.03-.28-.47-.28-.44,0h0Z"/>
        <path class="cls-1" d="m8.39,172.52v7.21c0,.28.44.28.44,0v-7.21c0-.28-.44-.28-.44,0h0Z"/>
      </g>
      <g id="hierba18">
        <path class="cls-1" d="m77.55,120.94c.66,2.79,1.33,5.57,1.99,8.36.07.28.49.16.43-.12-.66-2.79-1.33-5.57-1.99-8.36-.07-.28-.49-.16-.43.12h0Z"/>
        <path class="cls-1" d="m83.06,121.37c-.33,1.86-.21,3.77.36,5.57.09.27.51.15.43-.12-.55-1.72-.68-3.56-.36-5.34.05-.28-.38-.4-.43-.12h0Z"/>
        <path class="cls-1" d="m87.87,122.65c-.43,1.99-.86,3.99-1.3,5.98-.06.28.37.39.43.12.43-1.99.86-3.99,1.3-5.98.06-.28-.37-.39-.43-.12h0Z"/>
      </g>
      <g id="hierba17">
        <path class="cls-1" d="m298.86,260.96c1.48,1.78,2.81,3.68,3.99,5.67,1.17,1.98,2.19,4.05,3.04,6.19.48,1.21.9,2.45,1.27,3.7.08.27.51.16.43-.12-.66-2.24-1.51-4.43-2.51-6.54-1.01-2.1-2.18-4.13-3.5-6.05-.75-1.09-1.55-2.14-2.4-3.16-.18-.22-.49.09-.31.31h0Z"/>
        <path class="cls-1" d="m309.58,268v8.41c0,.28.44.28.44,0v-8.41c0-.28-.44-.28-.44,0h0Z"/>
        <path class="cls-1" d="m319.11,269.15c.42,2.79.28,5.67-.41,8.41-.19.77-.43,1.54-.71,2.28-.1.27.33.38.43.12,1.01-2.7,1.47-5.61,1.36-8.49-.03-.82-.11-1.63-.23-2.44-.04-.28-.47-.16-.43.12h0Z"/>
      </g>
      <g id="hierba16">
        <path class="cls-1" d="m480.42,57.85l3.88,10.27,1.09,2.88c.1.26.53.15.43-.12-1.29-3.42-2.59-6.85-3.88-10.27-.36-.96-.72-1.92-1.09-2.88-.1-.26-.53-.15-.43.12h0Z"/>
        <path class="cls-1" d="m491.42,58.99c.87,2.05,1.23,4.3,1.06,6.52-.05.64-.14,1.27-.28,1.9-.06.28.36.39.43.12.49-2.24.44-4.59-.15-6.81-.17-.63-.38-1.24-.63-1.84-.05-.11-.15-.19-.27-.15-.1.03-.2.16-.15.27h0Z"/>
        <path class="cls-1" d="m500.58,58.93l-2.03,8.37c-.19.8-.39,1.59-.58,2.39-.07.28.36.39.43.12.68-2.79,1.35-5.58,2.03-8.37.19-.8.39-1.59.58-2.39.07-.28-.36-.39-.43-.12h0Z"/>
      </g>
      <g id="hierba15">
        <path class="cls-1" d="m746.82,22.76c-.66,3.21-.4,6.59.76,9.65.33.86.72,1.7,1.18,2.5.14.25.52.02.38-.22-1.58-2.76-2.35-5.95-2.22-9.12.04-.9.15-1.8.33-2.69.06-.28-.37-.4-.43-.12h0Z"/>
        <path class="cls-1" d="m753.25,24.21v7.21c0,.28.44.28.44,0v-7.21c0-.28-.44-.28-.44,0h0Z"/>
        <path class="cls-1" d="m760.46,25.41v6c0,.28.44.28.44,0v-6c0-.28-.44-.28-.44,0h0Z"/>
      </g>
      <g id="hierba14">
        <path class="cls-1" d="m959.98,44.89c1.15,1.95,1.93,4.11,2.29,6.34.1.64.17,1.28.21,1.92.02.28.46.28.44,0-.13-2.32-.68-4.6-1.64-6.72-.27-.61-.58-1.2-.92-1.77-.14-.24-.53-.02-.38.22h0Z"/>
        <path class="cls-1" d="m969.79,45.73c-1.21,1.34-1.67,3.28-1.18,5.02.08.27.5.16.43-.12-.45-1.59-.04-3.37,1.07-4.59.19-.21-.12-.52-.31-.31h0Z"/>
        <path class="cls-1" d="m976.8,45.73c-.79,2-1.59,4.01-2.38,6.01-.1.26.32.38.43.12.79-2,1.59-4.01,2.38-6.01.1-.26-.32-.38-.43-.12h0Z"/>
      </g>
      <g id="hierba13">
        <path class="cls-1" d="m1017.74,19.32c-.06,2.84.22,5.69.84,8.46.18.79.38,1.57.61,2.35.08.27.51.16.43-.12-.8-2.7-1.28-5.49-1.41-8.3-.04-.8-.04-1.59-.03-2.39,0-.28-.44-.28-.44,0h0Z"/>
        <path class="cls-1" d="m1023.77,24.21v4.8c0,.28.44.28.44,0v-4.8c0-.28-.44-.28-.44,0h0Z"/>
        <path class="cls-1" d="m1034.75,21.78c-.49,2.38-.97,4.77-1.46,7.15-.06.28.37.4.43.12.49-2.38.97-4.77,1.46-7.15.06-.28-.37-.4-.43-.12h0Z"/>
      </g>
      <g id="hierba12">
        <path class="cls-1" d="m916.27,128.48c1.01,2.09,2.02,4.19,3.03,6.28.12.26.5.03.38-.22-1.01-2.09-2.02-4.19-3.03-6.28-.12-.26-.5-.03-.38.22h0Z"/>
        <path class="cls-1" d="m925.5,126.3c-.06,1.6-.13,3.2-.19,4.8-.01.28.43.28.44,0,.06-1.6.13-3.2.19-4.8.01-.28-.43-.28-.44,0h0Z"/>
        <path class="cls-1" d="m931.2,128.63c-.8,2-1.6,4-2.4,6-.11.26.32.38.43.12.8-2,1.6-4,2.4-6,.11-.26-.32-.38-.43-.12h0Z"/>
      </g>
      <g id="hierba11">
        <path class="cls-1" d="m462.51,107.05c.86,2.52,1.72,5.04,2.58,7.56.24.72.49,1.43.73,2.15.09.27.52.15.43-.12-.86-2.52-1.72-5.04-2.58-7.56-.24-.72-.49-1.43-.73-2.15-.09-.27-.52-.15-.43.12h0Z"/>
        <path class="cls-1" d="m470.83,110.71c.42,2.4.84,4.8,1.26,7.2.05.28.47.16.43-.12-.42-2.4-.84-4.8-1.26-7.2-.05-.28-.47-.16-.43.12h0Z"/>
        <path class="cls-1" d="m479.25,113.05c-.74,2.82-1.48,5.64-2.23,8.45-.07.27.35.39.43.12.74-2.82,1.48-5.64,2.23-8.45.07-.27-.35-.39-.43-.12h0Z"/>
      </g>
      <g id="hierba10">
        <path class="cls-1" d="m120.79,73.73c1.46,1.87,2.57,4,3.27,6.26.2.65.36,1.3.5,1.96.06.28.48.16.43-.12-.48-2.38-1.39-4.67-2.68-6.72-.37-.59-.77-1.15-1.2-1.7-.17-.22-.49.09-.31.31h0Z"/>
        <path class="cls-1" d="m130.6,73.34c-.67,2.49-.29,5.21,1.02,7.42.14.24.53.02.38-.22-1.26-2.11-1.61-4.7-.98-7.08.07-.27-.35-.39-.43-.12h0Z"/>
        <path class="cls-1" d="m137.64,75.85v7.21c0,.28.44.28.44,0v-7.21c0-.28-.44-.28-.44,0h0Z"/>
      </g>
      <g id="hierba9">
        <path class="cls-1" d="m285.31,26.73c.76,3.08,1.53,6.16,2.29,9.24.22.88.43,1.75.65,2.63.07.28.49.16.43-.12-.76-3.08-1.53-6.16-2.29-9.24-.22-.88-.43-1.75-.65-2.63-.07-.28-.49-.16-.43.12h0Z"/>
        <path class="cls-1" d="m294.25,32.6c.64,2.31.47,4.83-.5,7.03-.11.26.27.48.38.22,1.02-2.31,1.22-4.93.54-7.36-.08-.27-.5-.16-.43.12h0Z"/>
        <path class="cls-1" d="m303.69,34.98c-1.48,1.87-2.37,4.15-2.55,6.52-.05.67-.05,1.34.02,2,.03.28.47.28.44,0-.22-2.27.25-4.58,1.34-6.59.31-.57.67-1.12,1.07-1.63.17-.22-.14-.53-.31-.31h0Z"/>
      </g>
      <g id="hierba8">
        <path class="cls-1" d="m919.02,287.53c1.89,2.79,3.35,5.87,4.31,9.11.27.91.5,1.83.69,2.77.06.28.48.16.43-.12-.68-3.33-1.88-6.55-3.53-9.52-.47-.84-.97-1.66-1.51-2.45-.16-.23-.54-.01-.38.22h0Z"/>
        <path class="cls-1" d="m929.9,288.67c1.15,1.69,1.57,3.82,1.13,5.81-.06.28.37.39.43.12.46-2.11.03-4.37-1.18-6.15-.16-.23-.54-.01-.38.22h0Z"/>
        <path class="cls-1" d="m941.07,289.7c-2.44,1.71-4.17,4.34-4.82,7.24-.18.81-.28,1.64-.28,2.47,0,.28.44.28.44,0,.02-2.85,1.15-5.65,3.07-7.75.54-.59,1.15-1.12,1.81-1.59.23-.16.01-.54-.22-.38h0Z"/>
      </g>
      <g id="hierba7">
        <path class="cls-1" d="m682.21,292.3c1.42,2.16,2.27,4.69,2.44,7.27.05.73.04,1.47-.02,2.2-.02.28.42.28.44,0,.22-2.64-.27-5.32-1.37-7.72-.32-.69-.68-1.35-1.1-1.98-.16-.24-.54-.02-.38.22h0Z"/>
        <path class="cls-1" d="m691.85,291.94c-.44,2.8-.88,5.59-1.32,8.39-.04.28.38.4.43.12.44-2.8.88-5.59,1.32-8.39.04-.28-.38-.4-.43-.12h0Z"/>
        <path class="cls-1" d="m698.09,295.66c-1.21,1.79-1.64,4.05-1.18,6.15.06.28.49.16.43-.12-.44-2-.01-4.13,1.13-5.81.16-.24-.22-.46-.38-.22h0Z"/>
      </g>
      <g id="hierba6">
        <path class="cls-1" d="m485.02,293.4c1.22,2.19,2.44,4.38,3.66,6.57.35.63.7,1.26,1.05,1.89.14.25.52.03.38-.22-1.22-2.19-2.44-4.38-3.66-6.57-.35-.63-.7-1.26-1.05-1.89-.14-.25-.52-.03-.38.22h0Z"/>
        <path class="cls-1" d="m498.35,293.12c-1.31,2.22-1.69,4.93-1.05,7.42.07.27.5.16.43-.12-.61-2.38-.24-4.96,1.01-7.08.14-.25-.24-.47-.38-.22h0Z"/>
        <path class="cls-1" d="m506.82,294.35c-1.09,2.26-1.53,4.81-1.22,7.31.03.28.48.28.44,0-.3-2.41.1-4.89,1.16-7.09.12-.25-.26-.48-.38-.22h0Z"/>
      </g>
      <g id="hierba5">
        <path class="cls-1" d="m182.27,293.24c.59,2.5,1.18,5,1.77,7.5.17.71.34,1.43.51,2.14.07.28.49.16.43-.12-.59-2.5-1.18-5-1.77-7.5-.17-.71-.34-1.43-.51-2.14-.07-.28-.49-.16-.43.12h0Z"/>
        <path class="cls-1" d="m189.28,296.9c.78,2.01,1.57,4.02,2.35,6.03.1.26.53.15.43-.12-.78-2.01-1.57-4.02-2.35-6.03-.1-.26-.53-.15-.43.12h0Z"/>
        <path class="cls-1" d="m200.09,292.01c-1,2.71-1.43,5.63-1.27,8.52.05.82.14,1.63.28,2.44.05.28.47.16.43-.12-.48-2.79-.38-5.68.29-8.43.19-.78.42-1.54.7-2.29.1-.27-.33-.38-.43-.12h0Z"/>
      </g>
      <g id="hierba4">
        <path class="cls-1" d="m1046.85,13.41c-.21-3.29-.42-6.57-.63-9.86-.06-.93-.12-1.85-.18-2.78-.02-.28-.46-.28-.44,0,.21,3.29.42,6.57.63,9.86.06.93.12,1.85.18,2.78.02.28.46.28.44,0h0Z"/>
        <path class="cls-1" d="m1049.96,9.2c.7-2.75.93-5.62.67-8.44-.03-.28-.47-.28-.44,0,.26,2.79.04,5.61-.65,8.32-.07.28.36.39.43.12h0Z"/>
        <path class="cls-1" d="m1053.67,11.08c.97-2.91,2.15-5.74,3.55-8.46.4-.77.81-1.53,1.24-2.29.14-.25-.24-.47-.38-.22-1.53,2.68-2.85,5.49-3.96,8.37-.31.82-.61,1.65-.88,2.48-.09.27.34.39.43.12h0Z"/>
      </g>
      <g id="hierba2">
        <path class="cls-1" d="m1117.39,47.73c.63,2.49,1.26,4.98,1.9,7.47.18.71.36,1.42.54,2.13.07.27.5.16.43-.12-.63-2.49-1.26-4.98-1.9-7.47-.18-.71-.36-1.42-.54-2.13-.07-.27-.5-.16-.43.12h0Z"/>
        <path class="cls-1" d="m1124.31,51.73c-.95,1.29-.97,3.17-.05,4.49.16.23.54.01.38-.22-.84-1.2-.81-2.86.05-4.04.17-.23-.21-.45-.38-.22h0Z"/>
        <path class="cls-1" d="m1129.75,51.91c-.88,2.09-1.35,4.35-1.38,6.61,0,.28.44.28.44,0,.03-2.23.5-4.44,1.36-6.5.05-.11-.05-.24-.15-.27-.13-.04-.23.04-.27.15h0Z"/>
      </g>
      <g id="hierba2-2" data-name="hierba2">
        <path class="cls-1" d="m1066.55,111.92c.41,2.6.82,5.2,1.22,7.8.04.28.47.16.43-.12-.41-2.6-.82-5.2-1.22-7.8-.04-.28-.47-.16-.43.12h0Z"/>
        <path class="cls-1" d="m1072.01,113.51c-.34,1.65-.18,3.39.47,4.95.11.26.53.15.43-.12-.62-1.49-.79-3.13-.47-4.71.06-.28-.37-.4-.43-.12h0Z"/>
        <path class="cls-1" d="m1076.89,114.27c-.52,1.97-1.05,3.94-1.57,5.91-.07.27.35.39.43.12.52-1.97,1.05-3.94,1.57-5.91.07-.27-.35-.39-.43-.12h0Z"/>
      </g>
      <g id="hierba1">
        <path class="cls-1" d="m218.23,134.14c.73,2.35,1.46,4.69,2.19,7.04.21.67.42,1.35.63,2.02.08.27.51.15.43-.12-.73-2.35-1.46-4.69-2.19-7.04-.21-.67-.42-1.35-.63-2.02-.08-.27-.51-.15-.43.12h0Z"/>
        <path class="cls-1" d="m223.29,135.91c.11,2,.22,3.99.34,5.99.02.28.46.28.44,0-.11-2-.22-3.99-.34-5.99-.02-.28-.46-.28-.44,0h0Z"/>
        <path class="cls-1" d="m229.9,138.37c-1.4,2.43-2.47,5.04-3.19,7.75-.07.27.35.39.43.12.71-2.67,1.77-5.24,3.15-7.64.14-.25-.24-.47-.38-.22h0Z"/>
      </g>
    </g>
  </g>
</svg>