<?xml version="1.0" encoding="UTF-8"?>
<svg id="Capa_2" data-name="Capa 2" xmlns="http://www.w3.org/2000/svg" viewBox="0 0 1186.2 313.59">
  <defs>
    <style>
      .cls-1 {
        fill: #37563c;
      }

      .cls-2 {
        fill: #5d8664;
      }
    </style>
  </defs>
  <g id="Capa_1-2" data-name="Capa 1">
    <g id="Lineas_Plantas" data-name="Lineas Plantas">
      <path class="cls-1" d="m5.54,37.67c.7-1.34,1.49-2.65,2.45-3.82.9-1.1,1.97-2.13,3.28-2.72,1.29-.58,2.79-.58,4.06.06,1.36.68,2.34,1.94,3.05,3.26,1.38,2.57,1.96,5.59,1.93,8.48-.03,2.91-.68,5.81-1.88,8.45-1.2,2.62-2.94,5-5.15,6.85-.29.24-.58.47-.88.69.09.01.18.02.27.03-1.86-1.64-1.58-4.39-.36-6.33.64-1.02,1.57-1.89,2.7-2.35,1.28-.53,2.76-.45,4.06,0,2.89.98,5.06,3.72,5.79,6.62.71,2.82.13,5.85-1.27,8.36-1.41,2.52-3.68,4.61-6.44,5.57-.33.12-.67.21-1.02.3.08.11.17.22.25.32,1.45-3.42,4.38-6.11,7.84-7.43,3.45-1.32,7.33-1.21,10.55.67,3.13,1.83,5.45,5.04,6.13,8.59.34,1.76.25,3.61-.32,5.31-.56,1.66-1.56,3.16-2.81,4.38-2.47,2.4-6.07,3.83-9.53,3.27-.43-.07-.85-.17-1.26-.29-.27-.08-.39.34-.12.43,3.51,1.06,7.34.03,10.19-2.19,2.93-2.28,4.72-5.79,4.48-9.53-.24-3.75-2.3-7.27-5.28-9.52-1.51-1.14-3.28-1.95-5.16-2.28-1.87-.33-3.79-.21-5.62.29-3.68,1-6.98,3.49-8.85,6.82-.23.41-.43.83-.62,1.26-.07.17.05.37.25.32,2.99-.72,5.55-2.71,7.23-5.26,1.67-2.55,2.48-5.69,1.97-8.72-.52-3.12-2.61-6.11-5.53-7.43-1.36-.61-2.95-.87-4.41-.49-1.23.32-2.32,1.1-3.11,2.09-1.49,1.87-2.21,4.8-.67,6.86.18.25.39.47.62.67.07.06.19.09.27.03,2.44-1.79,4.4-4.17,5.78-6.86,1.37-2.68,2.17-5.65,2.33-8.66.15-3.01-.35-6.11-1.61-8.85-.65-1.42-1.56-2.78-2.85-3.69-1.2-.85-2.71-1.18-4.15-.85-1.42.32-2.64,1.22-3.63,2.25-1.1,1.13-1.99,2.44-2.77,3.8-.19.33-.37.67-.55,1.01-.13.25.25.47.38.22h0Z"/>
      <path class="cls-1" d="m1.57,85.57c.57-1.69,2.59-2.21,4.18-1.88.9.19,1.69.62,2.3,1.3.76.85,1.22,1.92,1.46,3.03.28,1.29.27,2.63.13,3.94-.01.14.15.26.28.21,1.62-.62,3.41-.33,4.89.52,1.47.84,2.67,2.22,3.14,3.86.45,1.57.12,3.22-.87,4.51-.93,1.21-2.32,2.05-3.8,2.41-1.47.36-3.09.24-4.4-.55-.17-.1-.33-.21-.48-.33-.23-.17-.45.21-.22.38,1.32,1,3.02,1.3,4.63,1.04,1.62-.25,3.18-1.06,4.28-2.28,1.15-1.27,1.71-2.96,1.43-4.67-.29-1.79-1.46-3.37-2.93-4.4-1.48-1.04-3.38-1.55-5.16-1.12-.22.05-.43.12-.64.2.09.07.19.14.28.21.26-2.4.06-5.1-1.52-7.05-.64-.79-1.49-1.35-2.48-1.6-.92-.23-1.92-.22-2.81.09-.98.34-1.78,1.05-2.12,2.05-.09.27.34.39.43.12h0Z"/>
      <path class="cls-1" d="m17.41,1.74c1.14-1.85,3.66-1.46,5.21-.4.85.58,1.55,1.43,1.81,2.44.38,1.46.1,3.02-.5,4.37-.72,1.63-1.85,3.06-3.1,4.32-.15.16,0,.43.21.37,3.2-.88,6.75.45,8.82,2.99,1.03,1.27,1.63,2.84,1.7,4.47.07,1.62-.35,3.24-1.15,4.65-.89,1.58-2.26,2.9-3.94,3.6-.26.11-.15.53.12.43,1.59-.66,2.91-1.81,3.86-3.23.94-1.42,1.5-3.11,1.56-4.81.06-1.73-.42-3.44-1.41-4.86-.98-1.42-2.39-2.53-3.97-3.2-1.59-.68-3.36-.92-5.06-.6-.21.04-.42.09-.63.15.07.12.14.25.21.37,2.25-2.27,4.4-5.41,3.78-8.77C24.52,1.76,22.27.08,20.02,0c-1.21-.04-2.35.47-3,1.52-.15.24.23.46.38.22h0Z"/>
      <path class="cls-1" d="m1170,106.56c-1.05-1.19-2.53-1.8-4.1-1.79-1.66,0-3.29.59-4.72,1.39-1.53.85-2.93,1.99-4.05,3.34-1.32,1.57-2.43,3.34-3.29,5.2-.86,1.88-1.46,3.88-1.65,5.94-.17,1.94.02,3.96.74,5.78.66,1.65,1.69,3.14,3,4.34,1.28,1.17,2.84,2.08,4.53,2.5,1.58.39,3.32.35,4.83-.28,1.26-.53,2.3-1.46,3.07-2.59.77-1.12,1.26-2.44,1.44-3.79.17-1.3.03-2.65-.53-3.84-.27-.58-.64-1.11-1.1-1.55-.24-.24-.51-.45-.79-.63-.08-.05-.16-.12-.26-.1-.1.01-.21.08-.3.12-.18.09-.36.18-.54.28-1.37.77-2.54,1.88-3.43,3.17-.9,1.3-1.54,2.8-1.86,4.35-.32,1.54-.34,3.15-.01,4.69.33,1.55,1.04,3.01,2.07,4.22,1.02,1.2,2.33,2.14,3.77,2.79,1.45.65,3.02,1.01,4.61,1.05,1.58.05,3.17-.23,4.63-.85.7-.3,1.37-.68,1.98-1.14.22-.17,0-.55-.22-.38-1.84,1.38-4.13,2-6.41,1.93-2.28-.07-4.55-.82-6.39-2.17-1.84-1.36-3.13-3.33-3.61-5.56-.48-2.22-.19-4.58.7-6.66.89-2.09,2.41-3.93,4.4-5.05.25-.14.5-.26.75-.38h-.22c1.32.83,2.11,2.22,2.33,3.74.22,1.56-.12,3.21-.83,4.61-.72,1.43-1.87,2.66-3.35,3.31-1.8.79-3.94.63-5.74-.07-1.96-.76-3.67-2.2-4.87-3.91-.61-.87-1.1-1.82-1.43-2.82-.37-1.11-.54-2.27-.57-3.44-.07-2.48.55-4.95,1.57-7.2.51-1.14,1.13-2.24,1.82-3.28.63-.96,1.32-1.89,2.12-2.72,1.45-1.5,3.26-2.74,5.24-3.42,1.73-.59,3.73-.73,5.33.3.39.25.73.56,1.03.9.19.21.5-.1.31-.31h0Z"/>
      <path class="cls-1" d="m1179.62,84.44c-1.6.67-2.94,1.8-3.93,3.22-.99,1.4-1.62,3.05-1.86,4.75-.24,1.69-.11,3.45.51,5.05.31.81.73,1.57,1.26,2.25.55.7,1.28,1.26,2.07,1.65,1.41.69,3.43,1,4.61-.31.14-.15.26-.32.36-.49.12-.2-.11-.39-.3-.3-1.62.78-2.6,2.63-2.48,4.41.13,1.85,1.51,3.32,3.27,3.8.98.27,2.03.21,2.96-.2.26-.12.03-.5-.22-.38-1.48.66-3.32.23-4.46-.88-1.2-1.16-1.4-2.96-.71-4.44.39-.83,1.03-1.53,1.87-1.93-.1-.1-.2-.2-.3-.3-.84,1.44-2.67,1.35-4.03.79-.77-.32-1.49-.8-2.05-1.42-.54-.59-.96-1.31-1.28-2.05-.64-1.47-.84-3.11-.68-4.7.15-1.61.69-3.19,1.54-4.57.85-1.37,2.03-2.53,3.46-3.26.18-.09.36-.18.54-.25.11-.05.19-.15.15-.27-.03-.1-.16-.2-.27-.15h0Z"/>
      <path class="cls-1" d="m620.16,106.4c.58-2.87,2.14-5.51,4.35-7.43.62-.54,1.29-1.02,2-1.43-.06,0-.11.01-.17.02,1.97.53,3.46,2.05,4.27,3.88.81,1.82.98,3.97.35,5.86-.36,1.07-.99,2.02-1.85,2.74h.31c-1.37-1.76-1.33-4.11-.73-6.16.32-1.09.79-2.14,1.35-3.12.56-.98,1.21-1.95,2.03-2.73.78-.76,1.78-1.33,2.89-1.36.99-.03,1.95.37,2.73.96.83.64,1.48,1.5,1.92,2.45.47,1.03.61,2.13.52,3.25-.2,2.56-1.5,4.89-2.81,7.05-.17.27-.33.54-.5.81.14.04.27.07.41.11.42-3.72.91-7.52,2.36-10.99.69-1.65,1.61-3.25,2.84-4.56,1.06-1.13,2.36-2.02,3.77-2.65,2.67-1.18,5.99-1.44,8.53.21,2.89,1.87,3.72,5.58,3.14,8.79-.69,3.81-3.26,6.94-5.87,9.66-.34.36-.68.71-1.03,1.06-.2.2.11.51.31.31,2.76-2.8,5.64-5.89,6.75-9.77.94-3.29.51-7.27-2.12-9.69-2.33-2.14-5.74-2.36-8.65-1.44-1.53.49-2.97,1.27-4.2,2.31-1.36,1.14-2.41,2.62-3.22,4.19-1.79,3.45-2.43,7.36-2.9,11.18-.06.47-.11.93-.16,1.4-.03.23.31.28.41.11,1.41-2.26,2.87-4.65,3.29-7.32.19-1.2.17-2.44-.23-3.6-.37-1.06-.99-2.04-1.8-2.8-.77-.72-1.73-1.28-2.79-1.43-1.13-.16-2.24.17-3.16.83-.98.71-1.73,1.69-2.38,2.7-.65,1.01-1.2,2.08-1.6,3.21-.76,2.12-1.04,4.62.13,6.65.14.24.3.47.47.69.08.1.23.07.31,0,1.24-1.04,2-2.54,2.25-4.13.25-1.6.04-3.27-.58-4.77-.62-1.48-1.64-2.81-3.03-3.65-.35-.21-.71-.38-1.09-.52-.17-.06-.43-.19-.61-.17-.12.02-.25.12-.35.19-.12.07-.24.15-.36.23-.93.61-1.78,1.33-2.53,2.14-1.51,1.63-2.63,3.63-3.21,5.78-.07.27-.13.54-.19.81-.06.28.37.4.43.12h0Z"/>
      <path class="cls-1" d="m654.67,118.05c1.13-2.52,5.02-3.22,6.88-1.12.9,1.02,1.1,2.51.77,3.8-.17.64-.46,1.26-.89,1.77-.22.26-.47.49-.75.68-.22.15-.5.36-.78.3-.47-.1-.46-.86-.41-1.22.04-.3.14-.6.28-.87.18-.32.45-.57.72-.82,1.31-1.18,3.01-1.95,4.77-2.1,1.71-.15,3.42.3,4.74,1.41,1.23,1.03,2.12,2.54,2.27,4.16.07.78-.03,1.59-.34,2.32-.3.69-.77,1.31-1.33,1.8-1.09.95-2.62,1.52-4.07,1.26-.35-.06-.69-.17-1.01-.32-.26-.12-.48.26-.22.38,1.51.71,3.26.49,4.67-.33,1.45-.84,2.51-2.27,2.73-3.95.23-1.76-.45-3.55-1.6-4.87-1.22-1.41-2.95-2.23-4.81-2.32-1.92-.09-3.87.55-5.41,1.69-.67.49-1.35,1.04-1.65,1.84-.22.58-.32,1.34-.01,1.92.13.24.35.43.62.47.37.06.69-.11.99-.31.63-.4,1.14-.98,1.48-1.64.71-1.33.81-2.99.18-4.38-.65-1.42-2.07-2.24-3.59-2.33-1.48-.09-3.06.48-4.03,1.63-.24.28-.44.6-.59.94-.12.26.27.48.38.22h0Z"/>
      <path class="cls-1" d="m632.41,122.45c.56-1.77,1.27-4.04,3.19-4.76.74-.28,1.63-.35,2.36,0,.85.42,1.23,1.32,1.13,2.23-.13,1.18-.83,2.26-1.51,3.2-.14.2.13.38.3.3,1.45-.64,2.95-1.29,4.54-1.48,1.29-.15,2.68,0,3.71.87.78.65,1.38,1.6,1.49,2.62.05.47,0,.96-.22,1.39-.25.5-.68.86-1.17,1.12-1.23.64-2.68.68-3.79,1.57.07-.02.14-.04.21-.06-.79-.25-1.4-.92-1.6-1.72-.07-.28-.49-.16-.43.12.19.75.69,1.41,1.37,1.79.16.09.36.2.54.23.18.03.36-.17.51-.26.31-.19.64-.33.98-.45,1.32-.46,2.96-.69,3.71-2.03.62-1.12.33-2.5-.33-3.53-.35-.56-.82-1.04-1.37-1.41-.64-.43-1.38-.63-2.14-.71-2.18-.22-4.29.7-6.24,1.56l.3.3c.67-.93,1.33-1.97,1.53-3.11.18-1.02-.1-2.08-.96-2.71-.74-.54-1.74-.61-2.61-.39-1,.24-1.79.87-2.38,1.69-.76,1.04-1.17,2.3-1.55,3.51-.09.27.34.39.43.12h0Z"/>
      <path class="cls-1" d="m185.34,93.47c-.54-1.8-2.42-2.77-4.2-2.83-2.18-.07-4.09,1.28-5.52,2.8-.79.84-1.52,1.76-2.15,2.74-.64,1-1.18,2.1-1.43,3.26-.22,1.05-.23,2.21.2,3.21.32.74.9,1.36,1.57,1.8,1.25.82,3.12,1.13,4.3.01.14-.13.26-.29.37-.44.04-.06.04-.16,0-.22-1.01-1.61-3.12-1.28-4.62-.65-.91.37-1.72.9-2.52,1.45-.91.62-1.79,1.28-2.58,2.04-1.43,1.37-2.54,3.13-2.59,5.15-.04,1.67.61,3.49,2.07,4.42.69.44,1.49.62,2.29.44.77-.17,1.47-.63,1.99-1.21.5-.56.86-1.26.9-2.02.04-.82-.37-1.55-1.03-2.02-.83-.6-1.94-.71-2.93-.57-.93.13-1.81.49-2.58,1.03-1.53,1.07-2.63,2.77-2.89,4.63-.26,1.86.4,3.69,1.71,5.02,1.28,1.31,3.12,2.12,4.96,2.07.44-.01.89-.07,1.32-.19.27-.07.16-.5-.12-.43-1.65.43-3.41.02-4.82-.92-1.4-.93-2.46-2.43-2.65-4.12-.19-1.72.47-3.46,1.62-4.73,1.17-1.3,2.91-2.16,4.68-1.95.84.1,1.71.5,2.1,1.29.28.58.18,1.27-.09,1.83-.59,1.21-2.04,2.22-3.43,1.85-1.54-.41-2.41-1.97-2.63-3.45-.12-.79-.06-1.6.15-2.37.25-.89.75-1.72,1.33-2.44.64-.79,1.39-1.47,2.19-2.09.77-.6,1.59-1.17,2.43-1.67.74-.44,1.54-.8,2.37-.99.71-.17,1.53-.23,2.19.11.32.17.58.41.77.72v-.22c-.84,1.22-2.5,1.12-3.68.5-.65-.34-1.22-.84-1.6-1.48-.48-.81-.56-1.83-.44-2.74.14-1.1.58-2.14,1.13-3.09.55-.95,1.21-1.84,1.93-2.67,1.28-1.48,2.96-2.97,4.99-3.19,1.6-.18,3.48.44,4.28,1.93.09.18.17.36.23.55.08.27.51.16.43-.12h0Z"/>
      <path class="cls-1" d="m197.67,99.08c-.07-1.43-1.61-2.3-2.94-2.16-1.68.18-2.9,1.65-3.76,2.97-.99,1.5-1.73,3.25-1.73,5.07,0,1.54.63,3.08,1.79,4.11.55.49,1.22.85,1.95.99.73.14,1.47.03,2.14-.29,1.27-.61,2.27-1.99,2.03-3.44-.03-.18-.06-.39-.22-.49-.14-.08-.31-.15-.47-.2-.3-.1-.61-.14-.93-.13-.65.01-1.29.23-1.84.58-1.1.7-1.9,1.97-1.68,3.31.4,2.38,3.74,3.26,5.52,1.85.22-.17.4-.38.56-.61.16-.23-.22-.46-.38-.22-.94,1.37-3.03,1.33-4.27.44-.67-.48-1.07-1.25-1.02-2.07.05-.92.66-1.75,1.4-2.25.86-.58,1.98-.8,2.92-.28-.03-.04-.07-.09-.1-.13.47,1.53-.79,3.04-2.21,3.46-1.58.46-3.13-.53-3.95-1.84-.43-.68-.7-1.46-.77-2.26-.09-.99.08-1.97.41-2.91.32-.93.8-1.79,1.34-2.61.5-.74,1.07-1.46,1.8-1.98.74-.52,1.63-.79,2.52-.51.73.23,1.41.81,1.45,1.61.01.28.46.28.44,0h0Z"/>
      <path class="cls-1" d="m211.52,104.32c.94-1.51,2.37-2.84,4.1-3.38,1.53-.48,3.18-.19,4.37.91,1.08,1,1.68,2.46,1.83,3.91.18,1.71-.31,3.36-1.14,4.85-1.05,1.88-2.56,3.45-4.08,4.96.09-.01.18-.02.27-.03-1.01-.73-1.06-2.19-.57-3.23.26-.54.65-1.02,1.18-1.32.63-.35,1.4-.42,2.1-.29,1.54.3,2.83,1.46,3.37,2.92.65,1.75.4,3.72-.22,5.44-.27.74-.65,1.52-1.3,2-.56.41-1.26.48-1.87.12-.25-.15-.48-.38-.55-.67-.09-.35.05-.71.29-.97.5-.54,1.3-.76,2.02-.75,1.44,0,2.84.89,3.57,2.11.79,1.32.66,2.95-.08,4.26-.78,1.38-2.13,2.34-3.7,2.59-1.63.26-3.33-.26-4.66-1.21-.33-.24-.64-.51-.92-.81-.2-.21-.51.11-.31.31,1.26,1.33,3.06,2.17,4.9,2.21,1.8.04,3.5-.75,4.6-2.17,1.03-1.33,1.5-3.18.85-4.78-.6-1.47-2-2.62-3.58-2.88-.81-.14-1.68-.04-2.41.36-.72.4-1.3,1.21-.94,2.05.3.68,1.1,1.06,1.82,1.05.86-.02,1.56-.63,2.02-1.31.52-.78.83-1.73,1.04-2.64.23-1.01.32-2.07.17-3.1-.13-.94-.46-1.87-1.03-2.63-.51-.67-1.19-1.23-1.96-1.58-1.44-.65-3.26-.56-4.32.73-.85,1.04-1.18,2.68-.44,3.87.18.29.41.52.68.72.08.06.2.03.27-.03,1.43-1.42,2.85-2.9,3.91-4.63.94-1.54,1.57-3.3,1.47-5.12-.09-1.57-.65-3.16-1.74-4.33-1.15-1.23-2.82-1.76-4.47-1.43-2.09.41-3.84,1.98-4.94,3.74-.15.24.23.46.38.22h0Z"/>
      <path class="cls-1" d="m190.42,123.11c.74,2.53,3.51,4.14,6.09,3.87,1.3-.13,2.5-.75,3.32-1.78.81-1.02,1.24-2.32,1.26-3.62.02-1.45-.48-2.91-1.53-3.93-.09-.09-.29-.09-.35.04-1.05,2.27.63,4.98,2.92,5.62,1.34.38,2.77.15,4.01-.43,1.31-.61,2.37-1.61,3.19-2.78.96-1.38,1.58-2.98,2.08-4.58.08-.27-.34-.39-.43-.12-.8,2.58-2,5.3-4.41,6.75-1.09.66-2.39,1.03-3.67.87-1.14-.14-2.16-.75-2.83-1.69-.7-.98-1.01-2.29-.48-3.42l-.35.04c1.73,1.7,1.8,4.62.51,6.59-.66,1.01-1.7,1.71-2.89,1.93-1.17.22-2.42,0-3.47-.55-1.2-.61-2.17-1.65-2.55-2.95-.08-.27-.51-.16-.43.12h0Z"/>
      <path class="cls-1" d="m1171.78,260.3c-2.74-1.53-6.16-.68-8.49,1.21-2.67,2.17-3.79,5.69-4.19,8.99-.21,1.71-.27,3.46-.12,5.18.15,1.69.52,3.38,1.28,4.91.69,1.38,1.68,2.59,3.01,3.4,1.2.74,2.63,1.17,4.05,1.15,1.37-.02,2.75-.5,3.73-1.49.81-.82,1.16-1.98,1.13-3.11-.06-2.11-1.51-4.63-3.89-4.51-1.66.08-3.05,1.31-4.07,2.52-.98,1.15-1.72,2.48-2.22,3.91-.97,2.78-.97,5.96.3,8.65.6,1.27,1.49,2.38,2.61,3.24,1.06.81,2.31,1.37,3.61,1.68,2.55.6,5.43.26,7.56-1.33.51-.38.97-.82,1.37-1.32.17-.22-.14-.53-.31-.31-1.58,1.99-4.11,2.89-6.6,2.8-2.52-.09-5.05-1.17-6.69-3.12-1.8-2.16-2.39-5.14-1.99-7.88.21-1.42.66-2.8,1.35-4.06.7-1.29,1.64-2.5,2.82-3.39,1.02-.77,2.37-1.28,3.59-.67.91.45,1.53,1.35,1.85,2.29.34,1,.4,2.12.03,3.12-.41,1.12-1.41,1.91-2.51,2.28-2.55.86-5.56-.3-7.22-2.32-2.09-2.54-2.5-6.03-2.39-9.21.11-3.26.72-6.7,2.67-9.39,1.69-2.33,4.68-3.95,7.6-3.48.68.11,1.33.33,1.93.66.25.14.47-.24.22-.38h0Z"/>
      <path class="cls-1" d="m1171.39,222.27c-3.01.48-5.24,3.06-6.48,5.68-1.34,2.83-1.79,6.24-.64,9.21,1,2.59,3.26,4.63,5.97,5.3,1.3.32,2.7.31,3.97-.14,1.14-.4,2.1-1.18,2.81-2.14,1.38-1.85,1.89-4.54.71-6.62-.14-.25-.31-.49-.5-.72.02.05.04.1.06.16,0-.35-.13-.7-.46-.86-.33-.16-.74-.11-1.08,0-.42.12-.81.34-1.16.61-.4.31-.66.7-.9,1.13-1.31,2.33-2.43,4.96-2.37,7.68.02.66.11,1.33.28,1.97.11.4.24.78.46,1.13.41.66.99,1.19,1.62,1.62,1.45,1.01,3.22,1.59,4.96,1.81,1.49.19,3.28.14,4.54-.81.14-.1.27-.22.39-.34.2-.2-.11-.52-.31-.31-1.13,1.17-3.05,1.21-4.55,1.03-1.8-.22-3.68-.86-5.12-1.99-.58-.46-1.13-1.03-1.39-1.73-.48-1.27-.52-2.71-.32-4.04.22-1.45.72-2.84,1.35-4.16.31-.65.65-1.29,1.01-1.92.23-.4.56-.72.96-.96.34-.21.76-.39,1.17-.38.33,0,.48.16.5.48,0,.14.08.21.17.32.08.11.15.22.22.33.13.2.24.42.33.64.18.44.3.91.34,1.38.18,1.98-.71,4.03-2.22,5.32-1.71,1.45-4.13,1.58-6.17.82-2.23-.82-4.05-2.63-4.87-4.85-.95-2.56-.7-5.42.28-7.93.91-2.34,2.54-4.65,4.85-5.77.55-.26,1.13-.44,1.73-.54.28-.04.16-.47-.12-.43h0Z"/>
      <path class="cls-1" d="m1165.88,303.22c-1.84-.21-3.56.9-4.52,2.41-.48.76-.78,1.65-.82,2.55-.04.89.21,1.78.66,2.54.9,1.52,2.57,2.54,4.31,2.8.88.13,1.79.07,2.63-.21.89-.3,1.69-.82,2.36-1.48,1.34-1.33,2.12-3.22,2.12-5.1,0-.24-.01-.48-.04-.72-.03-.28-.44-.29-.44,0-.04,3.06,2.8,5.56,5.72,5.84.83.08,1.67-.03,2.44-.35.26-.11.15-.53-.12-.43-2.62,1.08-5.79-.43-7.06-2.85-.36-.68-.55-1.44-.54-2.21h-.44c.19,1.75-.34,3.56-1.44,4.94-1.08,1.35-2.68,2.24-4.44,2.2-1.63-.04-3.25-.81-4.28-2.07-.51-.63-.87-1.41-.97-2.21-.1-.83.06-1.68.42-2.43.69-1.47,2.14-2.72,3.82-2.8.21-.01.42,0,.63.02.28.03.28-.41,0-.44h0Z"/>
      <path class="cls-1" d="m.06,233.1c1.73,1.81,4.28,2.47,6.73,2.16,2.5-.32,4.91-1.56,6.57-3.47,1.87-2.15,2.5-5.06,2.12-7.85-.41-3.03-1.96-5.87-4.1-8.04-1.1-1.11-2.4-2.14-3.83-2.79-.75-.34-1.6-.56-2.42-.35-.48.13-.92.41-1.24.79-1.38,1.65-.93,4.66.96,5.74,2.82,1.6,6.33-.22,8.18-2.47,1.54-1.88,2.31-4.27,2.36-6.68.05-2.44-.59-4.91-1.8-7.03-1.18-2.07-2.96-3.85-5.17-4.82-.55-.24-1.12-.43-1.7-.57-.23-.05-.41.3-.17.4,1.81.79,4.17-.36,4.59-2.31.06-.28-.37-.39-.43-.12-.36,1.65-2.38,2.73-3.94,2.05-.06.13-.11.27-.17.4,2.25.53,4.2,1.9,5.62,3.71,1.42,1.82,2.32,4.06,2.62,6.35.29,2.25,0,4.62-1.04,6.66-.56,1.09-1.34,2.08-2.29,2.87-1.15.95-2.62,1.66-4.14,1.72-1.23.05-2.58-.37-3.26-1.46-.54-.85-.7-1.95-.47-2.92.21-.91.81-1.73,1.77-1.91.84-.15,1.7.2,2.42.6.66.36,1.29.78,1.88,1.25,2.3,1.82,4.09,4.34,4.93,7.15.79,2.62.73,5.64-.67,8.05-1.21,2.07-3.3,3.57-5.57,4.27-2.2.67-4.7.62-6.7-.6-.49-.3-.93-.66-1.32-1.07-.2-.21-.51.11-.31.31H.06Z"/>
      <path class="cls-2" d="m65.45,102.29c-.9-2.54.93-5.32,3.29-6.25,2.91-1.15,6.27.09,8.62,1.92,1.94,1.51,3.41,3.56,4.32,5.83.92,2.29,1.31,4.79,1.12,7.25-.19,2.44-.95,4.84-2.33,6.87-.17.26-.36.51-.55.75.09-.01.18-.02.27-.03-2.12-.91-3.14-3.13-3.16-5.35-.02-2.24.95-4.61,2.87-5.88,2.36-1.55,5.42-1.45,7.95-.39,1.3.55,2.5,1.35,3.5,2.35,1.1,1.11,1.93,2.48,2.51,3.93,1.23,3.11,1.33,6.59.79,9.86-.07.4-.14.81-.23,1.21-.06.28.36.39.43.12.65-2.79,2.38-5.29,4.72-6.94,2.33-1.64,5.23-2.39,8.05-1.78,2.74.59,5.25,2.3,6.72,4.7.72,1.17,1.18,2.51,1.27,3.89.09,1.35-.17,2.7-.68,3.96-1,2.46-3.07,4.57-5.66,5.31-.33.09-.66.16-.99.22-.28.04-.16.47.12.43,2.81-.43,5.19-2.38,6.5-4.85,1.35-2.54,1.55-5.54.35-8.17-1.22-2.65-3.66-4.67-6.41-5.59-2.86-.95-5.94-.56-8.54.93-2.58,1.47-4.6,3.92-5.55,6.73-.12.35-.22.71-.3,1.07.14.04.28.08.43.12.71-3.39.82-7.02-.23-10.36-.5-1.59-1.27-3.12-2.35-4.4-.95-1.14-2.15-2.07-3.47-2.75-2.56-1.31-5.71-1.68-8.36-.39-2.28,1.11-3.59,3.44-3.82,5.91-.21,2.29.57,4.79,2.56,6.1.25.16.51.3.78.42.08.04.2.05.27-.03,1.61-2.04,2.58-4.49,2.91-7.05.34-2.57.05-5.23-.82-7.67-.87-2.42-2.32-4.65-4.3-6.32-2.37-1.99-5.67-3.35-8.78-2.53-2.56.68-4.78,3.28-4.46,6.02.04.34.11.66.23.98.09.27.52.15.43-.12h0Z"/>
      <path class="cls-2" d="m57.33,114.46c.11-.42.08-.86-.13-1.25-.21-.38-.57-.66-.94-.86-.88-.46-1.95-.58-2.92-.44-.56.08-1.1.27-1.62.47-.57.22-1.12.47-1.65.76-1.06.58-2.05,1.3-2.92,2.15-1.7,1.66-2.92,3.84-3.16,6.22-.23,2.36.73,4.68,2.36,6.36,1.57,1.61,3.82,2.64,6.1,2.27.28-.05.56-.12.83-.2.27-.09.16-.47-.12-.43-2.48.44-3.54,3.16-3.31,5.42.13,1.25.62,2.42,1.49,3.34,1.08,1.14,2.52,1.87,4.02,2.29,1.75.49,3.59.59,5.4.52.28-.01.28-.45,0-.44-2.93.11-6.28-.19-8.6-2.19-.48-.42-.91-.89-1.22-1.45-.28-.49-.46-1.03-.57-1.58-.21-1.09-.12-2.27.32-3.3.48-1.11,1.38-1.96,2.59-2.18-.04-.14-.08-.28-.12-.43-2.07.67-4.28-.02-5.9-1.39-1.65-1.39-2.8-3.46-2.87-5.64-.07-2.24.9-4.42,2.34-6.1,1.48-1.73,3.47-3.03,5.62-3.75.47-.16.93-.28,1.43-.31.48-.03.96.01,1.42.12.7.17,1.6.56,1.74,1.36.03.18,0,.37-.04.55-.07.28.36.39.43.12h0Z"/>
      <path class="cls-2" d="m1115.2,7.92c1.14-.65,1.31-2.11.87-3.24-.23-.6-.62-1.13-1.15-1.5-.69-.47-1.54-.67-2.36-.7-1.68-.07-3.37.48-4.91,1.09-1.48.59-2.89,1.34-4.19,2.26-2.52,1.79-4.62,4.23-5.64,7.19-.92,2.68-.71,5.62.45,8.19,1.1,2.45,3.11,4.56,5.73,5.34.32.09.64.17.97.22.13.02.3-.06.28-.21-.32-3.18-4.05-3.83-6.65-3.66-1.67.11-3.28.58-4.86,1.1-1.76.58-3.48,1.28-5.1,2.17-3.14,1.71-5.94,4.2-7.35,7.54-1.19,2.82-.77,6.16.67,8.81,1.35,2.49,3.8,4.58,6.77,4.51.36,0,.72-.05,1.08-.12.28-.05.16-.48-.12-.43-1.34.25-2.72.03-3.92-.61-1.2-.64-2.2-1.64-2.94-2.77-1.58-2.4-2.24-5.54-1.44-8.33.45-1.57,1.35-3.02,2.41-4.25,1.11-1.3,2.45-2.38,3.9-3.29,1.51-.95,3.13-1.71,4.8-2.33.83-.31,1.66-.59,2.51-.83.76-.22,1.53-.44,2.31-.58,1.42-.25,2.93-.27,4.33.06,1.2.29,2.45.9,2.95,2.1.12.29.19.59.22.9.09-.07.19-.14.28-.21-2.56-.41-4.65-2.13-5.92-4.34-1.3-2.25-1.82-5.01-1.29-7.57.6-2.86,2.36-5.37,4.55-7.25,2.28-1.95,5.13-3.4,8.06-4.05,1.45-.32,3.36-.44,4.51.69.79.77,1.18,2.2.56,3.18-.15.23-.35.41-.58.54-.25.14-.02.52.22.38h0Z"/>
      <path class="cls-2" d="m1129.64,19.38c.18-1.8,2.3-2.2,3.76-1.85.84.2,1.66.64,2.18,1.34.79,1.07.96,2.53.86,3.83-.13,1.66-.68,3.27-1.26,4.83-.08.23.22.34.37.21,1.65-1.39,3.74-2.33,5.89-2.54,2.08-.21,4.2.28,5.87,1.58,1.54,1.2,2.7,3,2.92,4.96.1.94,0,1.9-.36,2.78-.34.83-.9,1.58-1.56,2.18-1.3,1.17-3.16,1.86-4.91,1.45-.22-.05-.43-.12-.64-.2-.27-.1-.38.32-.12.43,1.81.7,3.86.22,5.39-.89,1.59-1.16,2.65-2.95,2.68-4.94.04-2.1-.97-4.13-2.48-5.56-1.6-1.52-3.73-2.3-5.93-2.28-2.29.02-4.56.85-6.41,2.2-.23.17-.45.34-.66.52.12.07.25.14.37.21.55-1.49,1.06-3.02,1.24-4.61.16-1.43.01-3.01-.79-4.25-1.03-1.58-3.36-2.23-5.11-1.58-.97.36-1.65,1.13-1.75,2.18-.03.28.41.28.44,0h0Z"/>
    </g>
  </g>
</svg>