<?xml version="1.0" encoding="UTF-8"?>
<svg xmlns="http://www.w3.org/2000/svg" xmlns:xlink="http://www.w3.org/1999/xlink" viewBox="0 0 1200 602.51">
  <defs>
    <style>
      .cls-1 {
        fill: #fff;
      }

      .cls-2 {
        fill: #915f3a;
      }

      .cls-3 {
        fill: #37563c;
      }

      .cls-4 {
        clip-path: url(#clippath-2);
      }

      .cls-5 {
        isolation: isolate;
      }

      .cls-6 {
        fill: url(#radial-gradient);
      }

      .cls-6, .cls-7, .cls-8 {
        mix-blend-mode: color-dodge;
      }

      .cls-9 {
        clip-path: url(#clippath-1);
      }

      .cls-10 {
        fill: #fef1e1;
      }

      .cls-11 {
        fill: #5d8664;
      }

      .cls-12 {
        fill: #577293;
      }

      .cls-13 {
        fill: #95b56a;
      }

      .cls-14 {
        fill: #b9cfea;
      }

      .cls-15 {
        fill: #563118;
      }

      .cls-16 {
        clip-path: url(#clippath);
      }

      .cls-17 {
        fill: #9b5d42;
      }

      .cls-18 {
        fill: #171623;
      }

      .cls-19 {
        fill: none;
      }

      .cls-20 {
        fill: #b7772f;
      }

      .cls-21 {
        clip-path: url(#clippath-3);
      }

      .cls-22 {
        fill: #7f4924;
      }

      .cls-23 {
        fill: #456789;
      }

      .cls-24 {
        fill: #d7e7ff;
      }

      .cls-7 {
        opacity: .28;
      }

      .cls-8 {
        fill: url(#radial-gradient-2);
      }
    </style>
    <radialGradient id="radial-gradient" cx="16.72" cy="16.52" fx="16.72" fy="16.52" r="14.81" gradientTransform="translate(30.87 -2.13) rotate(82.18) scale(1 1.01)" gradientUnits="userSpaceOnUse">
      <stop offset=".09" stop-color="#fff"/>
      <stop offset=".1" stop-color="#ebebeb"/>
      <stop offset=".13" stop-color="#bababa"/>
      <stop offset=".17" stop-color="#8e8e8e"/>
      <stop offset=".2" stop-color="#686868"/>
      <stop offset=".23" stop-color="#484848"/>
      <stop offset=".27" stop-color="#2e2e2e"/>
      <stop offset=".31" stop-color="#191919"/>
      <stop offset=".36" stop-color="#0b0b0b"/>
      <stop offset=".42" stop-color="#030303"/>
      <stop offset=".52" stop-color="#010101"/>
      <stop offset="1" stop-color="#000"/>
    </radialGradient>
    <symbol id="Star_Shine" data-name="Star Shine" viewBox="0 0 33.04 33.04">
      <circle class="cls-6" cx="16.52" cy="16.52" r="16.52" transform="translate(-2.09 30.64) rotate(-82.18)"/>
    </symbol>
    <radialGradient id="radial-gradient-2" cx="36.95" cy="36.52" fx="36.95" fy="36.52" r="32.73" gradientTransform="translate(63.66 -7.85) rotate(76.05) scale(1 1.01)" xlink:href="#radial-gradient"/>
    <symbol id="Star_Shine_2" data-name="Star Shine 2" viewBox="0 0 73.04 73.04">
      <circle class="cls-8" cx="36.52" cy="36.52" r="36.52" transform="translate(-7.73 63.16) rotate(-76.05)"/>
    </symbol>
    <clipPath id="clippath">
      <rect class="cls-19" x="0" y="2.73" width="309.87" height="335.78" transform="translate(309.87 341.23) rotate(180)"/>
    </clipPath>
    <clipPath id="clippath-1">
      <rect class="cls-19" x="309.74" width="309.87" height="285.51" transform="translate(929.35 285.51) rotate(180)"/>
    </clipPath>
    <clipPath id="clippath-2">
      <rect class="cls-19" x="925.93" y="6.44" width="271.57" height="275.14" transform="translate(2123.43 288.02) rotate(180)"/>
    </clipPath>
    <clipPath id="clippath-3">
      <rect class="cls-19" x="615.1" y="2.73" width="309.87" height="335.78" transform="translate(1540.07 341.23) rotate(180)"/>
    </clipPath>
  </defs>
  <g class="cls-5">
    <g id="Capa_2" data-name="Capa 2">
      <g id="Capa_1-2" data-name="Capa 1">
        <rect id="Cielo" class="cls-18" x="0" y="2.51" width="1200" height="600"/>
        
        <g id="Arbustos_Atras" data-name="Arbustos Atras">
          <path class="cls-11" d="m250.51,264.18c.07-5.27.12-10.67-1.58-15.66s-5.52-9.6-10.67-10.75c-5.15-1.15-11.31,2.31-11.77,7.56,2.69-3.59-.46-8.68-4.04-11.38-2.73-2.06-6.04-3.75-9.43-3.32-3.39.43-6.53,3.75-5.68,7.06,1.92-4.67-2.07-10.14-6.95-11.44-4.89-1.3-10.06.44-14.59,2.67-2.55,1.26-5.19,2.85-6.34,5.45-1.16,2.6.04,6.36,2.85,6.82-3.42-3.32-9.11-.9-13.02,1.84-3.24,2.26-6.54,4.89-7.82,8.62-1.28,3.73.51,8.75,4.4,9.45-5.68,2.31-7.89,10.49-4.15,15.35,3.74,4.86,12.22,4.81,15.91-.08-2.27-.8-4.63,1.77-4.4,4.16.22,2.39,2.16,4.28,4.22,5.52,7.43,4.46,18.05,2.49,23.39-4.32,17.54,2.59,35.58,1.84,52.85-2.19l-3.17-15.36Z"/>
          <path class="cls-11" d="m614.84,283.96c-3.27-9.2-4.13-19.24-2.46-28.86.22-1.28.59-2.7,1.72-3.34,1.63-.92,3.61.37,4.92,1.71,2.64,2.69,4.78,5.87,6.29,9.32-2.8-9.98.13-21.36,7.41-28.76.98-.99,2.09-1.95,3.45-2.27,2.5-.58,5.06,1.29,6.13,3.62,1.07,2.33,1.03,5.01.97,7.57-.66-6.85,1.21-13.91,5.18-19.53.96-1.36,2.09-2.68,3.6-3.37,4.09-1.86,8.93,1.97,9.85,6.37.92,4.39-.84,8.86-2.55,13,1.98-3.81,4.12-7.8,7.75-10.09,3.63-2.29,9.23-2.09,11.47,1.58,2.41,3.94-.2,8.93-2.76,12.78,4.12-2.63,10.43-4.88,13.12-.8,1.74,2.63.45,6.21-1.43,8.74s-4.38,4.74-5.3,7.75c1.19-4.2,8.1-4.59,10.29-.81,2.19,3.78-.61,9.16-4.85,10.23,2.27-3.07,7.9-2,9.27,1.56,1.37,3.56-1.52,7.9-5.29,8.47,1.99-1.81,5.71-1.09,6.79,1.38,1.08,2.47-1.02,5.74-3.71,5.7l-79.86-1.93Z"/>
        </g>
        <g id="Ciudad">
          <path class="cls-14" d="m756.09,285.88v-66.1l30.62-18.45v86.77h6.36v-63.94h34.28v68.22h9.13v-98.61h18.42v-22.65h10.96v21.59h11.11v95.4l-120.88-2.23Z"/>
          <path class="cls-14" d="m881.35,286.81v-56.66l26.25-15.81v74.38h16.8v-54.81h29.39v58.48h17.92v-84.53h15.79v-19.42h9.39v18.51h9.52v81.77l-125.06-1.91Z"/>
        </g>
        <rect id="Pasto" class="cls-13" y="279.72" width="1200" height="322.79"/>
        <g id="Caminos">
          <path id="camino3" class="cls-10" d="m370.38,360.27c-26.47,9.41-65.92,50.74-137.3,5.44-29.87-18.96-29.87-85.99-29.87-85.99h-9.67s3.46,59.48,22.11,81.28c14.89,17.41,37.18,27.3,59.81,30.99,22.63,3.69,45.79,1.69,68.52-1.34l26.41-30.37Z"/>
          <path id="camino2" class="cls-10" d="m330.76,456.34c-.39,10.01,5.63,13.14-159.49,34.9-75.3,9.92-111.65,111.27-111.65,111.27h59.41s9.71-63.2,96.24-76.49c23.2-3.56,56.68-.6,78.74-8.62,22.05-8.02,60.57-21.82,64.48-44.94-6.47-3.35-12.94-6.7-19.42-10.04l-8.31-6.08Z"/>
          <path id="camino1" class="cls-10" d="m1200,602.51c-15.7-13.05-42.8-28.04-62.54-33.29-205-54.53-511.01-10.09-653.7-25.84-38.84-4.29-130.06-35.89-146.69-52.27-16.63-16.39-27.45-39.86-24.38-62.99,5.09-38.34,28.89-59.9,62.88-78.44,68.69-37.47,91.27-69.95,91.27-69.95h30.32s-28.17,52.92-73.94,75.7c-110.8,55.16-34.07,105.31-21.95,113.04,57.67,36.78,130.1,39.66,198.51,38.41,100.9-1.83,201.65-10.18,302.57-9.52,100.91.65,202.48,10.57,297.66,44.06v61.1Z"/>
          <g id="marcas-camino">
            <path class="cls-20" d="m542.3,531.7c2.31-.38,4.7-.33,6.99.16.66.14,1.31.32,1.95.52.27.09.39-.34.12-.43-2.3-.75-4.73-1.06-7.14-.91-.68.04-1.36.12-2.03.23-.28.05-.16.47.12.43h0Z"/>
            <path class="cls-20" d="m544.11,524.39h6.31c.28,0,.28-.44,0-.44h-6.31c-.28,0-.28.44,0,.44h0Z"/>
            <path class="cls-20" d="m544.11,517.19h5.41c.28,0,.28-.44,0-.44h-5.41c-.28,0-.28.44,0,.44h0Z"/>
            <path class="cls-20" d="m718.98,534.37c2.42.55,4.83,1.09,7.25,1.64.28.06.39-.36.12-.43-2.42-.55-4.83-1.09-7.25-1.64-.28-.06-.39.36-.12.43h0Z"/>
            <path class="cls-20" d="m719.96,527.1h5.41c.28,0,.28-.44,0-.44h-5.41c-.28,0-.28.44,0,.44h0Z"/>
            <path class="cls-20" d="m774.93,516.4c2.65.92,5.52,1.14,8.29.65.28-.05.16-.47-.12-.43-2.69.47-5.47.24-8.05-.65-.27-.09-.38.33-.12.43h0Z"/>
            <path class="cls-20" d="m783.1,526.9c2.43-.47,4.86-.94,7.29-1.41.28-.05.16-.48-.12-.43-2.43.47-4.86.94-7.29,1.41-.28.05-.16.48.12.43h0Z"/>
            <path class="cls-20" d="m911.97,519.88c2,1.06,4.14,1.83,6.36,2.28.63.13,1.26.22,1.9.3.28.03.28-.41,0-.44-2.81-.33-5.54-1.19-8.04-2.52-.25-.13-.47.25-.22.38h0Z"/>
            <path class="cls-20" d="m918.41,513.41c2.25-.68,4.61-.97,6.96-.83.67.04,1.34.11,2,.22.28.04.4-.38.12-.43-2.38-.38-4.82-.34-7.18.12-.68.13-1.35.3-2.01.5-.27.08-.16.51.12.43h0Z"/>
            <path class="cls-20" d="m932.68,530.62c2.45.26,4.95-.06,7.26-.92.26-.1.15-.52-.12-.43-2.28.85-4.73,1.16-7.14.9-.28-.03-.28.41,0,.44h0Z"/>
            <path class="cls-20" d="m966.15,517.86c2.09.65,4.18,1.29,6.27,1.94.27.08.39-.34.12-.43-2.09-.65-4.18-1.29-6.27-1.94-.27-.08-.39.34-.12.43h0Z"/>
            <path class="cls-20" d="m1065.23,538.76c1.48.65,2.96,1.3,4.44,1.95.26.11.48-.27.22-.38-1.48-.65-2.96-1.3-4.44-1.95-.26-.11-.48.27-.22.38h0Z"/>
            <path class="cls-20" d="m1079.68,531.59c2.71-.06,5.42.3,8.02,1.07.27.08.39-.34.12-.43-2.63-.78-5.39-1.15-8.13-1.09-.28,0-.28.45,0,.44h0Z"/>
            <path class="cls-20" d="m1116.62,549.58c2.1.9,4.21,1.8,6.31,2.7.26.11.48-.27.22-.38-2.1-.9-4.21-1.8-6.31-2.7-.26-.11-.48.27-.22.38h0Z"/>
            <path class="cls-20" d="m1149.14,543.19c2.09,1.22,4.18,2.44,6.27,3.67.25.14.47-.24.22-.38-2.09-1.22-4.18-2.44-6.27-3.67-.25-.14-.47.24-.22.38h0Z"/>
            <path class="cls-20" d="m1165.27,547.79c3.25.41,6.41,1.48,9.24,3.11.8.46,1.58.97,2.33,1.52.23.17.45-.21.22-.38-2.68-1.98-5.76-3.41-8.99-4.19-.92-.22-1.86-.39-2.8-.51-.28-.04-.28.41,0,.44h0Z"/>
            <path class="cls-20" d="m260.95,511.62c2.11-.11,4.23-.22,6.34-.33.28-.01.28-.46,0-.44-2.11.11-4.23.22-6.34.33-.28.01-.28.46,0,.44h0Z"/>
            <path class="cls-20" d="m270.96,495.7c1.8-.32,3.6-.64,5.4-.95.28-.05.16-.47-.12-.43-1.8.32-3.6.64-5.4.95-.28.05-.16.47.12.43h0Z"/>
            <path class="cls-20" d="m356.22,446.67c.76,2.76,1.93,5.41,3.46,7.83.44.69.9,1.35,1.39,2,.17.22.55,0,.38-.22-1.72-2.26-3.1-4.77-4.08-7.43-.28-.75-.52-1.52-.73-2.29-.08-.27-.5-.16-.43.12h0Z"/>
            <path class="cls-20" d="m368.16,457.71c1.2.9,2.4,1.8,3.61,2.7.23.17.45-.21.22-.38-1.2-.9-2.4-1.8-3.61-2.7-.23-.17-.45.21-.22.38h0Z"/>
            <path class="cls-20" d="m360.29,473.63c.9,1.7,2.71,2.83,4.63,2.92.28.01.28-.43,0-.44-1.77-.08-3.42-1.14-4.25-2.7-.13-.25-.51-.03-.38.22h0Z"/>
            <path class="cls-20" d="m367.43,372.94c-2.03,1.68-3.67,3.81-4.79,6.19-.12.26.26.48.38.22,1.11-2.35,2.72-4.44,4.72-6.11.22-.18-.1-.49-.31-.31h0Z"/>
            <path class="cls-20" d="m376.39,371.11c-1.49,1.47-2.53,3.38-2.94,5.43-.06.28.37.4.43.12.4-1.98,1.38-3.81,2.83-5.23.2-.2-.11-.51-.31-.31h0Z"/>
            <path class="cls-20" d="m394.27,354.69c-.9.9-1.8,1.8-2.71,2.7-.2.2.11.51.31.31.9-.9,1.8-1.8,2.71-2.7.2-.2-.11-.51-.31-.31h0Z"/>
            <path class="cls-20" d="m454.82,318.77c-1.24,1.47-2.47,2.94-3.71,4.42-.18.22.13.53.31.31,1.24-1.47,2.47-2.94,3.71-4.42.18-.22-.13-.53-.31-.31h0Z"/>
            <path class="cls-20" d="m453.78,306.05l-4.51,4.5c-.2.2.11.51.31.31,1.5-1.5,3.01-3,4.51-4.5.2-.2-.11-.51-.31-.31h0Z"/>
            <path class="cls-20" d="m471.73,288.94c-.9,1.2-1.8,2.41-2.7,3.61-.17.23.21.45.38.22.9-1.2,1.8-2.41,2.7-3.61.17-.23-.21-.45-.38-.22h0Z"/>
            <path class="cls-20" d="m186.1,520.67c2.7-.31,5.41-.62,8.11-.92.28-.03.28-.47,0-.44-2.7.31-5.41.62-8.11.92-.28.03-.28.47,0,.44h0Z"/>
            <path class="cls-20" d="m196.04,509.08h.9c.12,0,.23-.1.22-.22,0-.12-.1-.22-.22-.22h-.9c-.12,0-.23.1-.22.22,0,.12.1.22.22.22h0Z"/>
            <path class="cls-20" d="m132.36,563.23c1.73-1.93,3.84-3.49,6.2-4.57.26-.12.03-.5-.22-.38-2.39,1.09-4.54,2.68-6.29,4.64-.19.21.12.52.31.31h0Z"/>
            <path class="cls-20" d="m123.24,547.75c1.37-2.13,3.17-3.97,5.28-5.37.24-.16.01-.54-.22-.38-2.18,1.45-4.03,3.33-5.44,5.53-.15.24.23.46.38.22h0Z"/>
            <path class="cls-20" d="m104.89,587.36c1.94-.72,3.72-1.85,5.2-3.3.42-.41.81-.85,1.18-1.32.17-.22-.14-.53-.31-.31-1.25,1.58-2.83,2.88-4.62,3.81-.51.26-1.03.49-1.57.69-.26.1-.15.52.12.43h0Z"/>
            <path class="cls-20" d="m90.7,577.48c1.78-2.12,3.56-4.24,5.34-6.37.18-.22-.13-.53-.31-.31-1.78,2.12-3.56,4.24-5.34,6.37-.18.22.13.53.31.31h0Z"/>
          </g>
        </g>
        <g id="Bancas">
          <g id="banca3">
            <path class="cls-23" d="m514.99,234.83h1.44s.07.03.07.07v51.95s-.03.07-.07.07h-1.44s-.07-.03-.07-.07v-51.95s.03-.07.07-.07Z"/>
            <path class="cls-23" d="m581.38,234.83h1.44s.07.03.07.07v51.95s-.03.07-.07.07h-1.44s-.07-.03-.07-.07v-51.95s.03-.07.07-.07Z"/>
            <rect class="cls-23" x="511.76" y="264.83" width="75.87" height="1.58"/>
            <rect class="cls-20" x="510.18" y="233.25" width="79.03" height="3.91" rx=".18" ry=".18"/>
            <rect class="cls-20" x="510.18" y="239.11" width="79.03" height="3.91" rx=".18" ry=".18"/>
            <rect class="cls-20" x="510.18" y="244.98" width="79.03" height="3.91" rx=".18" ry=".18"/>
            <rect class="cls-20" x="510.18" y="250.84" width="79.03" height="3.91" rx=".18" ry=".18"/>
            <rect class="cls-20" x="510.18" y="260.92" width="79.03" height="3.91" rx=".18" ry=".18"/>
            <path class="cls-17" d="m510.84,246.5c-.06.35.01.72.21,1.02.2.29.5.52.85.6.13.03.29-.04.32-.18.03-.13-.04-.29-.18-.32-.03,0-.07-.02-.1-.03-.11-.04-.16-.08-.22-.12-.06-.05-.09-.07-.11-.1-.02-.03-.05-.05-.07-.08-.06-.09-.1-.15-.12-.21-.03-.08-.04-.11-.05-.15,0-.03-.01-.06-.02-.1,0-.08,0-.11,0-.15.03-.19-.03-.34-.18-.38-.13-.03-.3.04-.32.18h0Z"/>
            <path class="cls-17" d="m511.26,252.48c-.17.18-.21.42-.17.65.04.21.17.4.35.52.11.07.24.11.36.11.14,0,.27-.12.26-.26,0-.15-.12-.26-.26-.26-.01,0-.05,0-.08-.02.03.01,0,0-.03-.03.02.01-.02-.02-.04-.06.01.01-.01-.03-.03-.08,0,.01,0-.04-.02-.09,0,.02,0-.03,0-.08,0,.03,0,0,.02-.03-.01.03,0,0,.03-.03.08-.08.09-.25-.02-.35-.1-.09-.27-.11-.37,0h0Z"/>
          </g>
          <g id="banca2">
            <rect class="cls-23" x="887.54" y="440.81" width="2.17" height="71.6" rx=".1" ry=".1"/>
            <rect class="cls-23" x="978.78" y="440.81" width="2.17" height="71.6" rx=".1" ry=".1"/>
            <rect class="cls-23" x="883.2" y="482.03" width="104.27" height="2.17"/>
            <rect class="cls-20" x="881.03" y="438.64" width="108.61" height="5.37" rx=".24" ry=".24"/>
            <rect class="cls-20" x="881.03" y="446.7" width="108.61" height="5.37" rx=".24" ry=".24"/>
            <rect class="cls-20" x="881.03" y="454.76" width="108.61" height="5.37" rx=".24" ry=".24"/>
            <rect class="cls-20" x="881.03" y="462.82" width="108.61" height="5.37" rx=".24" ry=".24"/>
            <rect class="cls-20" x="881.03" y="476.66" width="108.61" height="5.37" rx=".24" ry=".24"/>
            <path class="cls-17" d="m881.94,456.85c-.08.49.01.99.29,1.4.27.4.68.72,1.16.82.18.04.4-.05.45-.25.04-.18-.05-.4-.25-.44-.05-.01-.1-.02-.14-.04-.15-.06-.23-.1-.3-.16.02.02-.04-.03-.05-.04-.03-.03-.07-.06-.1-.09-.03-.03-.07-.07-.1-.11-.09-.13-.13-.21-.17-.29-.04-.11-.05-.15-.07-.2-.01-.04-.02-.09-.03-.13,0-.03,0,.09,0,0,0-.11,0-.16,0-.21,0,0,0-.07,0-.07,0,0-.01.09,0,0,.03-.19-.05-.4-.25-.44-.18-.04-.41.05-.45.25h0Z"/>
            <path class="cls-17" d="m882.51,465.06c-.23.25-.3.57-.24.9.05.29.24.55.48.72.14.1.33.15.5.16.19,0,.37-.17.36-.36,0-.2-.16-.36-.36-.36-.03,0,0,0,.03,0-.05,0-.1-.02-.14-.04.03.01.06.02.09.04-.05-.02-.09-.05-.13-.08.02.02.05.04.07.06-.05-.04-.09-.08-.13-.13.02.02.04.05.06.07-.04-.05-.08-.11-.1-.18.01.03.02.06.04.09-.03-.07-.05-.14-.06-.21,0,.03,0,.06.01.1,0-.07,0-.13,0-.2,0,.03,0,.06-.01.1,0-.05.02-.1.04-.14-.01.03-.02.06-.04.09.02-.05.04-.09.08-.13-.02.02-.04.05-.06.07.16-.18.18-.41.03-.55-.14-.13-.37-.15-.51,0h0Z"/>
          </g>
          <g id="banca1">
            <rect class="cls-23" x="486.57" y="439.15" width="2.23" height="73.47" rx=".1" ry=".1"/>
            <rect class="cls-23" x="580.19" y="439.15" width="2.23" height="73.47" rx=".1" ry=".1"/>
            <rect class="cls-23" x="482.11" y="481.45" width="107" height="2.23"/>
            <rect class="cls-20" x="479.88" y="436.92" width="111.45" height="5.51" rx=".25" ry=".25"/>
            <rect class="cls-20" x="479.88" y="445.19" width="111.45" height="5.51" rx=".25" ry=".25"/>
            <rect class="cls-20" x="479.88" y="453.46" width="111.45" height="5.51" rx=".25" ry=".25"/>
            <rect class="cls-20" x="479.88" y="461.73" width="111.45" height="5.51" rx=".25" ry=".25"/>
            <rect class="cls-20" x="479.88" y="475.94" width="111.45" height="5.51" rx=".25" ry=".25"/>
            <path class="cls-17" d="m480.81,455.6c-.09.5.01,1.02.3,1.44.28.41.7.74,1.19.84.19.04.41-.06.46-.26.04-.19-.06-.41-.26-.46-.05-.01-.1-.02-.15-.04-.02,0-.05-.02-.07-.02-.08-.04-.16-.08-.24-.14.02.02-.04-.03-.05-.04-.03-.03-.07-.06-.1-.09-.04-.04-.07-.07-.1-.11-.01-.01-.03-.03-.04-.06-.05-.08-.1-.16-.14-.24-.04-.11-.05-.16-.07-.21-.01-.04-.02-.09-.03-.13,0-.03,0,.09,0,0,0-.11,0-.16,0-.21,0-.01,0-.07,0-.07,0,0-.02.09,0,0,.03-.19-.05-.41-.26-.46-.18-.04-.42.05-.46.26h0Z"/>
            <path class="cls-17" d="m481.4,464.03c-.24.26-.3.59-.24.92.05.3.24.57.49.74.15.1.33.15.51.16.19,0,.38-.17.37-.37,0-.21-.16-.37-.37-.37-.03,0,0,0,.03,0-.05,0-.1-.02-.15-.04.03.01.06.02.09.04-.05-.02-.09-.05-.13-.08l.08.06c-.05-.04-.1-.09-.14-.14l.06.08c-.04-.06-.08-.12-.11-.18.01.03.02.06.04.09-.03-.07-.05-.14-.06-.22,0,.03,0,.07.01.1,0-.07,0-.14,0-.21,0,.03,0,.07-.01.1,0-.05.02-.1.04-.15-.01.03-.03.06-.04.09.02-.05.05-.09.08-.13l-.06.08c.17-.18.19-.43.03-.57-.14-.13-.38-.15-.53,0h0Z"/>
          </g>
        </g>
        <g id="Arbustos_Delante" data-name="Arbustos Delante">
          <path id="arbusto5" class="cls-11" d="m0,176.28c3.26-15.31,6.52-29.43,18.68-39.31,2.24-1.82,4.66-3.53,7.45-4.25,10.14-2.63,18.6,8.62,20.65,18.88,3.04,15.22-1.01,31.71-10.75,43.81,5.5-9.08,14.7-15.85,25.01-18.42,2.82-.7,5.82-1.1,8.6-.24,5.91,1.82,8.85,8.9,8.07,15.03-.78,6.13-4.33,11.5-7.78,16.63,5.49-7.83,15.87-13.3,24.75-9.73,8.88,3.57,11.18,18.58,2.4,22.4,5.75-4.46,14.48-4.57,20.34-.25,5.86,4.32,8.32,12.69,5.74,19.49,7.32-5.87,20.23,3.2,17.16,12.07,5.19-.63,9.99,3.56,11.84,8.45,1.85,4.88,1.46,10.29,1.04,15.5-.46,5.66-.99,11.55-3.92,16.41-4.5,7.45-13.45,10.72-21.72,13.46-3.11,1.03-6.4,2.07-9.61,1.41-3.21-.67-6.17-3.72-5.49-6.92-18.25,3.08-36.93.49-55.26-2.1C38.78,295.98,18.42,293.37,0,290.76v-114.49Z"/>
          <path id="arbusto4" class="cls-11" d="m0,316.51c4.11-8.66,5.95-16.47,13.14-22.77,4.85-4.25,12.07-7.88,17.37-4.23,5.73,3.94,4.32,12.76,1.66,19.21-3.94,9.58-9.2,18.6-15.59,26.73,4.61-6.67,12.18-11.64,20.25-11.52,8.07.13,16.09,6.32,16.87,14.41.45,4.68-1.4,9.31-3.95,13.25-4.23,6.54-10.92,11.93-18.64,12.64-.23-2.57,3.52-3.15,6.02-2.61,4.79,1.04,9.93,2.81,12.45,7.05,3.47,5.83-.04,13.91-5.87,17.34-5.82,3.44-13.05,3.28-19.72,2.21,3.55-.89,6.57,3.72,5.45,7.23-1.12,3.51-4.73,5.59-8.25,6.57-6.45,1.81-15.33.71-21.21-2.51v-83Z"/>
          <path id="arbusto3" class="cls-11" d="m1200,149.24c-2.19-8.92-10.47-14.29-18.36-9.56-7.88,4.73-8.09,18.35-.03,22.76-7.58-6.22-20.17-4.9-26.29,2.76-6.12,7.65-4.62,20.22,3.13,26.22-4.89-4.02-13.13-1.73-16.26,3.77-3.13,5.5-1.63,12.84,2.49,17.64,4.12,4.8,10.38,7.36,16.64,8.32-7.8-.45-12.22,10.18-9,17.3,3.22,7.11,10.72,11.11,17.72,14.59-5.48-3.7-13.46-3.15-18.38,1.26-4.92,4.41-6.33,12.27-3.25,18.11-6.04-6.17-18.05-3.1-21.36,4.87-3.31,7.97,1.81,17.93,9.88,21.02,2.28.87,6.16-.48,4.91-2.58-2.49,3.39-.24,8.56,3.43,10.62,3.67,2.06,8.13,1.9,12.34,1.69,14.93-.77,27.47-1.53,42.39-2.3v-156.5Z"/>
          <path id="arbusto2" class="cls-3" d="m1200,399.58c-4.99-3.75-9.7-5.7-15.91-6.34-7.5-.77-15.79.63-20.93,6.14-5.13,5.52-5.09,15.86,1.45,19.6-6.37-4.62-14.14-7.67-21.99-7.16-7.85.52-15.65,5.07-18.76,12.28s-.48,16.8,6.51,20.41c-4.44-5.53-14.05-4.79-18.58.66-4.53,5.45-4.17,13.91-.3,19.85,3.87,5.94,10.58,9.56,17.49,11.16-3.77.65-5.57,5.47-4.4,9.11,1.17,3.64,4.32,6.24,7.41,8.5,4.25,3.11,8.85,6.03,14.05,6.89,5.2.86,11.13-.82,13.95-5.26,7.6,10.61,25.4,11.56,34.09,1.82,1.3,3.64,2.53,5.48,5.93,3.62v-101.29Z"/>
          <path id="arbusto1" class="cls-11" d="m1200,351.17c-4.5-8.19-18.39-21.55-31.9.55-4.6,7.53,2.5,19.49,11.33,19.23-9.36-2.31-20.54.74-25.41,9.06-4.87,8.32-.29,21.28,9.24,22.74-11.28-2.31-23.22,8.32-22.22,19.78s14.61,19.86,25.31,15.64c-7.23,3.97-10.86,13.45-8.14,21.22,2.72,7.77,11.49,12.92,19.61,11.52.83,5.66,7.08,9.3,12.81,9,5.72-.3,4.91-3.55,9.36-7.16v-121.57Z"/>
        </g>
        <g id="arbol6">
          <path class="cls-3" d="m63.65,344.58c-3.12,7.08-12.86,10.6-19.43,6.51-6.57-4.09-7.28-15.2-.87-19.55-4.11,5.05-11.04,7.64-17.46,6.52-6.42-1.12-12.06-5.9-14.22-12.04-1.21-3.44-1.09-7.86,1.82-10.07-.97,2.55-6.21,2.15-6.77-.53-3.52-16.88.92-23.7,3.73-27.91,1.65-2.47,3.45-4.99,6.07-6.4,2.61-1.41,6.27-1.35,8.18.91-5.56-6.4-2.22-16.68,3.52-22.92,2.97-3.23,6.7-6.05,11.04-6.74,4.34-.69,9.31,1.28,11.01,5.33-1.61-8.51.54-17.8,6.24-24.33,5.7-6.53,14.98-9.94,23.44-8.03,8.46,1.91,15.54,9.37,16.4,17.99,2.79-5.57,10.58-7.94,16.01-4.87s7.39,10.97,4.03,16.22c4.82.49,9.82,1.04,13.95,3.58,4.12,2.54,7.07,7.68,5.5,12.25-.47,1.36-1.32,2.78-.87,4.15.34,1.02,1.29,1.67,2.14,2.32,7.38,5.71,9.18,17.41,3.86,25.07,4.58,3.91,7.08,10.12,6.51,16.1-.57,5.99-4.21,11.61-9.45,14.58-1.72.98-4.45,1.37-5.22-.46,1.09-1.23,3.35.03,3.53,1.66.18,1.63-.93,3.1-2.08,4.28-6.52,6.72-16.29,10.14-25.58,8.95-1.3-.17-2.8-.59-3.24-1.82-.44-1.23,1.56-2.62,2.14-1.44-3.04,7.59-13.96,10.6-20.47,5.63.95,2.29-.26,5.23-2.54,6.19-2.28.96-5.24-.23-6.21-2.51-.23,3.48-4.25,6.15-7.55,5-3.3-1.15-4.8-5.73-2.81-8.6l-4.35-5.05Z"/>
          <path class="cls-20" d="m68.45,467.13c-.69-33.27-1.39-66.55-2.08-99.82-.07-3.37-.14-6.76-.83-10.06-.66-3.16-1.87-6.17-3.07-9.16-7.05-17.54-14.09-35.07-21.14-52.61.58-.76,1.56-1.19,2.52-1.1,2.46,9.66,6.1,19.03,10.8,27.82-.58-10.9-1.17-21.79-1.75-32.69,1.2-.12,2.4-.23,3.6-.35-1.51,19.77,4.15,40,15.7,56.12,1.82-21.45,5.46-64.35,5.46-64.35l2.76-2.73s.44,21.83.66,32.74c3.24-7.11,6.48-14.23,9.72-21.34,1.24,1.41,2.47,2.82,3.71,4.23-10.06,13.87-14.35,31.78-11.66,48.69,13.64-17.55,37.46-55.12,37.46-55.12l3.35,4.83s-13.35,20.69-20.03,31.04c6.69.03,13.39.05,20.08.08-.2,1.48-.4,2.96-.6,4.44-5.54-.24-11.08-.49-16.61-.73-1.87-.08-3.84-.15-5.52.69-1.55.77-2.64,2.19-3.68,3.57-4.23,5.61-8.46,11.21-12.69,16.82-1.3,1.72-2.61,3.46-3.41,5.45-1.09,2.7-1.19,5.69-1.27,8.6-.99,34.73-1.98,69.46-2.97,104.19-3.59-.65-4.92-1.31-8.51-1.96v2.71Z"/>
        </g>
        <g id="arbol5">
          <path class="cls-3" d="m1111.68,240.81c-2.79,6.33-11.49,9.47-17.37,5.82-5.88-3.66-6.5-13.59-.78-17.48-3.67,4.51-9.87,6.83-15.61,5.83-5.74-1-10.78-5.27-12.71-10.76-1.08-3.08-.97-7.03,1.63-9-.87,2.28-4.45,1.38-6.05-.47-2.96-3.42-3.57-8.41-2.57-12.82,1-4.41,3.39-8.37,5.91-12.13,1.47-2.21,3.09-4.46,5.42-5.72s5.6-1.21,7.32.82c-4.97-5.72-1.98-14.91,3.15-20.49,2.66-2.89,5.99-5.41,9.87-6.02,3.88-.62,8.32,1.14,9.84,4.76-1.44-7.61.48-15.91,5.58-21.75,5.09-5.84,13.39-8.88,20.95-7.18,7.56,1.71,13.89,8.38,14.66,16.08,2.5-4.98,9.46-7.1,14.31-4.35,4.85,2.75,6.61,9.8,3.61,14.5,4.31.44,8.78.93,12.47,3.2,3.69,2.27,6.32,6.86,4.91,10.95-.42,1.22-1.18,2.48-.77,3.71.3.91,1.16,1.49,1.91,2.08,6.6,5.11,8.21,15.56,3.45,22.41,4.09,3.5,6.33,9.04,5.82,14.4-.51,5.35-3.77,10.37-8.45,13.03-1.54.87-3.98,1.22-4.66-.41.97-1.1,3,.02,3.15,1.48.16,1.46-.84,2.77-1.86,3.83-5.83,6.01-14.56,9.06-22.87,8-1.16-.15-2.5-.53-2.9-1.63-.4-1.1,1.4-2.34,1.91-1.29-2.72,6.79-12.48,9.48-18.3,5.04.16.38.18.82.11,1.27-.41,2.54-3.24,3.92-5.63,2.95l-2.3-.93c-.2,3.11-3.8,5.5-6.75,4.47-2.95-1.03-4.29-5.13-2.51-7.69l-3.89-4.52Z"/>
          <path class="cls-20" d="m1115.97,350.36c-.62-29.74,2.14-97.39,2.14-97.39,0,0-20.09-40.38-26.39-56.05.52-.68,1.4-1.07,2.25-.99,2.2,8.64,5.67,14.19,9.87,22.06-.52-9.74-1.26-16.66-1.79-26.4,1.07-.1,2.15-.21,3.22-.31-1.35,17.67,5.02,34.35,15.35,48.76,1.63-19.18,3.58-56.12,3.58-56.12l2.47-2.44s.39,19.51.59,29.27c2.9-6.36,5.8-12.72,8.69-19.08,1.11,1.26,2.21,2.52,3.32,3.78-8.99,12.39-12.83,28.4-10.42,43.52,12.19-15.69,33.49-49.27,33.49-49.27l3,4.32s-11.93,18.5-17.9,27.75c5.98.02,11.97.05,17.95.07-.18,1.32-.35,2.65-.53,3.97-4.95-.22-19.78-.04-19.78-.04,0,0-10.86,13.21-14.64,18.23-1.16,1.54-2.33,3.09-3.05,4.88-.98,2.42-1.14,7.69-1.14,7.69,0,0-1.77,62.09-2.66,93.14-3.21-.58-4.39-1.17-7.6-1.75v2.42Z"/>
        </g>
        <g id="arbo4">
          <path class="cls-3" d="m977.48,252.06c-7.38.3-14.1-4.23-19.36-9.4-3.71-3.64-7.21-8.23-6.98-13.43.25-5.81,5.04-10.45,6.37-16.11,1.35-5.73-.99-11.6-1.79-17.43-1.64-12.02,3.88-24.75,13.78-31.78,3.06-2.17,6.91-3.87,10.51-2.81,4.21,1.24,6.54,5.75,7.56,10.02,1.02,4.27,1.25,8.83,3.42,12.65,2.48,4.36,7.21,7.21,9.25,11.79,1.47,3.29,1.35,7.05,1.19,10.65-.38,9.02-.79,18.23-4.04,26.65-3.24,8.43-9.88,16.08-18.69,18.12l-1.24,1.08Z"/>
          <path class="cls-20" d="m976.57,302.64c.68-10.97,1.36-21.94,2.04-32.91.67-10.91,1.35-21.83,2.02-32.74.38-6.16.76-12.31,1.14-18.47.03-.48-.43-.88-.88-.88-.5,0-.85.4-.88.88-.68,10.97-1.36,21.94-2.04,32.91-.67,10.91-1.35,21.83-2.02,32.74-.38,6.16-.76,12.31-1.14,18.47-.03.48.43.88.88.88.5,0,.85-.4.88-.88h0Z"/>
          <path class="cls-20" d="m970.3,226.82c1.5,2.71,3.76,4.99,6.44,6.55.78.45,1.6.83,2.43,1.16.43.17.99-.18,1.09-.62.12-.51-.16-.9-.62-1.08-.09-.03-.18-.07-.27-.11-.04-.01-.07-.03-.11-.04.21.08.1.04.05.02-.18-.08-.35-.15-.52-.24-.33-.16-.65-.32-.97-.5-.63-.36-1.25-.75-1.83-1.19-.03-.02-.06-.05-.09-.07-.12-.09.03.03.04.03-.07-.02-.17-.13-.23-.18-.14-.11-.28-.23-.42-.35-.28-.24-.54-.48-.8-.74-.25-.25-.5-.5-.73-.77-.12-.14-.24-.27-.36-.41-.06-.07-.11-.13-.16-.2-.05-.06-.15-.15-.18-.22.02.03.05.06.07.09-.02-.02-.03-.05-.05-.07-.03-.05-.07-.09-.1-.14-.06-.08-.12-.17-.19-.26-.11-.16-.22-.31-.33-.47-.23-.35-.45-.71-.65-1.08-.22-.4-.81-.57-1.21-.32-.41.26-.56.77-.32,1.21h0Z"/>
        </g>
        <g id="arbol3">
          <path class="cls-3" d="m927.21,251.58c-8.97-6-14.5-16.82-14.09-27.6.05-1.41.21-2.84.79-4.12.83-1.83,2.44-3.16,3.7-4.73,4.23-5.25,4.27-12.63,3.82-19.36-.45-6.72-1.09-13.91,2.19-19.8,3.28-5.89,12.32-8.97,16.86-3.99,4.38,4.8,1.51,12.54,3.12,18.84,1.04,4.07,3.98,7.47,4.9,11.56,1.17,5.2-1.08,10.53-1.11,15.86-.03,6.24,2.98,12.28,2.46,18.5-.46,5.45-3.83,10.57-8.66,13.15-4.83,2.58-10.96,2.54-15.75-.11l1.78,1.78Z"/>
          <path class="cls-20" d="m930.91,214.4c.01,10.26.02,20.52.04,30.78.01,10.21.02,20.41.04,30.62,0,5.76.01,11.52.02,17.27,0,1.13,1.77,1.14,1.77,0-.01-10.26-.02-20.52-.04-30.78-.01-10.21-.02-20.41-.04-30.62,0-5.76-.01-11.52-.02-17.27,0-1.13-1.77-1.14-1.77,0h0Z"/>
          <path class="cls-20" d="m940.35,224.66c-.23.97-.54,1.93-.92,2.86-.02.06-.05.12-.08.18-.04.09.04-.08.03-.08-.01.03-.02.05-.03.08-.05.12-.11.24-.16.36-.11.23-.22.46-.33.69-.22.45-.47.89-.72,1.32-.26.43-.53.85-.82,1.26-.15.21-.3.41-.45.62-.02.03-.13.18-.05.07.09-.11-.05.07-.07.09-.08.1-.15.19-.23.29-.64.78-1.34,1.51-2.1,2.19-.21.19-.43.37-.64.56-.1.08-.2.17-.31.25-.03.02-.06.05-.09.07-.09.07,0,0,.04-.03-.05.04-.11.08-.16.12-.46.35-.94.67-1.43.98-.39.24-.58.8-.32,1.21.25.39.79.58,1.21.32,1.8-1.12,3.43-2.52,4.8-4.12,1.37-1.6,2.52-3.4,3.35-5.33.48-1.12.89-2.27,1.17-3.46.11-.45-.14-.98-.62-1.08-.45-.1-.97.14-1.09.62h0Z"/>
          <path class="cls-20" d="m920.96,223.41c1.56,2.35,3.79,4.14,6.39,5.21.69.28,1.39.5,2.12.66.45.1.98-.13,1.09-.62.1-.45-.13-.98-.62-1.08-.62-.14-1.23-.32-1.83-.54-.07-.03-.14-.05-.21-.08-.04-.01-.07-.03-.11-.04-.11-.04.16.07.05.02-.15-.07-.3-.13-.44-.2-.29-.14-.58-.29-.86-.45-.27-.16-.54-.32-.8-.49-.12-.08-.24-.16-.35-.24-.06-.04-.12-.09-.18-.13-.03-.02-.06-.05-.09-.07-.16-.12.16.12,0,0-.49-.39-.96-.81-1.39-1.26-.25-.26-.49-.53-.71-.81-.02-.03-.05-.06-.07-.09-.1-.13.08.11.02.02-.05-.07-.1-.14-.15-.21-.11-.15-.22-.31-.32-.47-.25-.38-.79-.58-1.21-.32-.38.25-.59.8-.32,1.21h0Z"/>
        </g>
        <g id="arbol2">
          <path class="cls-3" d="m358.15,251.15c-5.86-10.47-11.77-23.46-5.71-33.83,2.08-3.55,5.41-6.37,6.85-10.23,1.61-4.32.55-9.1.05-13.68-.5-4.58-.15-9.84,3.35-12.84,4.32-3.7,11.51-1.75,15.04,2.72s4.21,10.52,4.18,16.2-.62,11.49.87,16.98c1.25,4.6,3.92,8.79,4.65,13.5,1.33,8.57-3.99,16.77-10.13,22.9-2.91,2.91-6.27,5.68-10.32,6.44-4.05.76-8.86-1.19-10.03-5.14-.77-2.61.03-5.81-1.8-7.82l3.01,4.77Z"/>
          <path class="cls-20" d="m364.15,219.85c.02,7.2.17,14.41.37,21.61.21,7.73.48,15.47.79,23.2.28,7.13.6,14.25.94,21.37.25,5.34.52,10.69.8,16.03.13,2.39.22,4.79.39,7.18,0,.03,0,.07,0,.1.06,1.13,1.83,1.14,1.77,0-.11-1.96-.22-3.92-.32-5.88-.27-5.05-.53-10.1-.77-15.16-.34-6.97-.65-13.94-.94-20.92-.32-7.72-.6-15.44-.82-23.16-.21-7.29-.38-14.59-.43-21.89,0-.82-.01-1.65-.01-2.47,0-1.13-1.77-1.14-1.77,0h0Z"/>
          <path class="cls-20" d="m370.72,224.68c0,.36-.01.71-.05,1.07,0,.04,0,.07-.01.11-.02.19.03-.17,0-.05-.01.08-.02.16-.04.24-.03.18-.07.35-.11.52-.08.35-.18.69-.3,1.03-.05.15-.13.3-.17.45.08-.26,0,.02-.04.08-.04.09-.08.18-.13.27-.15.31-.33.62-.51.91-.09.14-.19.28-.28.42-.05.07-.09.13-.14.19-.01.02-.12.16-.03.04.09-.12-.03.03-.05.06-.44.55-.95,1.04-1.5,1.49-.05.04-.12.05.05-.04-.05.03-.09.07-.13.1-.09.06-.17.13-.26.19-.15.11-.31.21-.47.3-.17.1-.34.19-.52.28-.09.04-.18.09-.27.13-.03.01-.07.03-.1.04-.03.01-.07.03-.1.04.13-.05.15-.06.06-.03-.22.09-.4.19-.53.41-.11.19-.16.47-.09.68.13.41.63.8,1.09.62,1.48-.61,2.8-1.53,3.84-2.75,1.03-1.2,1.8-2.62,2.21-4.15.23-.86.34-1.76.33-2.64,0-.46-.4-.9-.88-.88-.47.02-.89.39-.88.88h0Z"/>
          <path class="cls-20" d="m356.53,226.56c.28,2.21.88,4.34,1.81,6.37.89,1.96,2.09,3.78,3.52,5.4.78.89,1.64,1.7,2.57,2.44.19.15.37.26.62.26.22,0,.48-.1.62-.26.29-.32.39-.94,0-1.25-.8-.64-1.56-1.34-2.25-2.09-.35-.38-.68-.77-1-1.17-.04-.05-.08-.11-.13-.16,0,0,.11.14.05.06-.02-.02-.04-.05-.05-.07-.08-.11-.16-.22-.24-.33-.15-.2-.29-.41-.44-.62-.58-.85-1.09-1.74-1.54-2.67-.11-.24-.22-.47-.33-.71-.02-.05-.05-.11-.07-.16-.04-.09.03.08.03.08-.01-.03-.02-.05-.03-.08-.05-.13-.1-.25-.15-.38-.19-.48-.36-.96-.51-1.45-.17-.55-.32-1.12-.44-1.68-.06-.27-.11-.55-.16-.83-.02-.14-.05-.29-.07-.43-.01-.08-.02-.15-.03-.23,0-.03-.02-.13,0,0,.02.15,0-.04,0-.06-.03-.24-.08-.44-.26-.62-.15-.15-.4-.27-.62-.26-.43.02-.95.39-.88.88h0Z"/>
        </g>
        <g id="arbol1">
          <path class="cls-3" d="m317.79,235.26c-13.34-7.8-23.21-24.23-17.85-38.71,1.1-2.97,2.79-5.76,3.34-8.88.66-3.79-.42-7.66-.31-11.5.24-8.27,6.71-15.94,14.83-17.58,2.57-.52,5.34-.46,7.68.7,3.85,1.91,5.76,6.31,6.63,10.51,2.18,10.42.06,22,5.42,31.2,2.43,4.17,6.3,7.59,7.63,12.23,1.18,4.1.15,8.53-1.53,12.45-2.6,6.07-7.19,11.73-13.52,13.62-6.34,1.9-14.33-1.28-16.05-7.65l3.73,3.62Z"/>
          <path class="cls-20" d="m319.12,187.52c2.45,14.22,4.44,28.51,5.97,42.86,1.52,14.28,2.58,28.61,3.18,42.96.34,8.12.53,16.24.58,24.36,0,1.13,1.77,1.14,1.77,0-.08-14.51-.64-29.01-1.66-43.48-1.02-14.4-2.5-28.78-4.44-43.09-1.09-8.05-2.33-16.08-3.71-24.09-.08-.47-.66-.73-1.09-.62-.5.14-.7.61-.62,1.08h0Z"/>
          <path class="cls-20" d="m310.64,186.15c.44,2.71,1.36,5.33,2.66,7.75,1.3,2.42,3.01,4.64,5.02,6.51,1.15,1.07,2.4,2.03,3.73,2.86.39.25.99.1,1.21-.32.23-.43.1-.94-.32-1.21-.57-.35-1.12-.73-1.65-1.13-.06-.05-.12-.09-.18-.14-.1-.08.17.14.02.02-.03-.02-.06-.05-.09-.07-.13-.1-.26-.21-.39-.32-.25-.21-.5-.42-.75-.64-.99-.88-1.9-1.85-2.73-2.88-.05-.06-.09-.12-.14-.18-.02-.03-.05-.06-.07-.09-.12-.15.09.12.02.02-.1-.13-.2-.27-.3-.41-.2-.26-.38-.53-.57-.81-.37-.54-.72-1.1-1.04-1.68-.33-.58-.63-1.17-.91-1.78-.07-.14-.13-.29-.2-.44-.03-.07-.06-.14-.09-.21-.06-.14.02.04.02.06-.01-.05-.04-.11-.06-.16-.13-.31-.25-.63-.37-.95-.51-1.39-.88-2.83-1.12-4.3-.07-.46-.67-.75-1.09-.62-.5.16-.7.6-.62,1.08h0Z"/>
          <path class="cls-20" d="m332.66,206.34c.05.15.09.29.12.44,0,.03.01.06.02.1,0,.03.03.17,0,.04-.02-.12,0-.01,0,.01,0,.05,0,.11.01.16,0,.14,0,.28,0,.43,0,.09-.01.18-.02.26,0,.03,0,.07-.01.1-.01.13.04-.22,0,0-.11.64-.3,1.25-.53,1.85-.11.29-.22.58-.34.86-.06.14-.11.29-.17.43-.06.14-.1.33-.19.46.01-.02.08-.18.01-.03-.01.03-.03.06-.04.09-.03.07-.06.14-.09.21-.07.15-.13.3-.2.45-.12.28-.25.56-.38.84-1.06,2.29-2.29,4.51-3.66,6.64-.77,1.19-1.58,2.35-2.44,3.48-.13.17-.14.48-.09.68.06.2.21.43.41.53.2.11.45.16.68.09.23-.08.38-.21.53-.41,1.56-2.05,2.97-4.2,4.23-6.45,1.28-2.29,2.4-4.68,3.34-7.13.56-1.45,1.03-3.08.5-4.61-.15-.44-.61-.77-1.09-.62-.43.14-.78.62-.62,1.08h0Z"/>
        </g>
        <g id="Hierba_Gruesa" data-name="Hierba Gruesa">
          <path id="hierba-gruesa8" class="cls-11" d="m70.49,474.88c-2.93-3.63-5.44-7.6-7.45-11.8-1.23-2.58-2.12-6.07.03-7.96,4.06,3.04,7.19,7.31,8.86,12.1-.11-5.92,2.25-11.84,6.4-16.06,2.07,4.55.78,9.85-.55,14.68,1.61-2.85,3.62-5.47,5.96-7.76.57-.56,1.25-1.14,2.05-1.14,1.97,0,2.17,2.91,1.59,4.79-1.58,5.1-3.82,10-6.66,14.52l-10.23-1.36Z"/>
          <path id="hierba-gruesa7" class="cls-11" d="m400.43,581.88c-2.93-3.63-5.44-7.6-7.45-11.8-1.23-2.58-2.12-6.07.03-7.96,4.06,3.04,7.19,7.31,8.86,12.1-.11-5.92,2.25-11.84,6.4-16.06,2.07,4.55.78,9.85-.55,14.68,1.61-2.85,3.62-5.47,5.96-7.76.57-.56,1.25-1.14,2.05-1.14,1.97,0,2.17,2.91,1.59,4.79-1.58,5.1-3.82,10-6.66,14.52l-10.23-1.36Z"/>
          <path id="hierba-gruesa6" class="cls-11" d="m1000.76,365.53c-1.32-1.63-2.44-3.41-3.35-5.3-.55-1.16-.95-2.73.02-3.58,1.83,1.37,3.23,3.29,3.98,5.44-.05-2.66,1.01-5.32,2.88-7.22.93,2.05.35,4.43-.25,6.6.72-1.28,1.63-2.46,2.68-3.49.26-.25.56-.51.92-.51.89,0,.98,1.31.71,2.15-.71,2.29-1.72,4.49-2.99,6.53l-4.6-.61Z"/>
          <path id="hierba-gruesa5" class="cls-11" d="m578.71,314.15c-1.82-2.25-3.37-4.71-4.62-7.32-.77-1.6-1.31-3.76.02-4.93,2.52,1.88,4.46,4.53,5.49,7.5-.07-3.67,1.39-7.34,3.97-9.96,1.29,2.82.48,6.11-.34,9.1,1-1.77,2.24-3.39,3.69-4.81.36-.35.77-.71,1.27-.7,1.22,0,1.35,1.8.98,2.97-.98,3.16-2.37,6.2-4.13,9l-6.34-.85Z"/>
          <path id="hierba-gruesa4" class="cls-11" d="m172.84,313.71c-1.82-2.25-3.37-4.71-4.62-7.32-.77-1.6-1.31-3.76.02-4.93,2.52,1.88,4.46,4.53,5.49,7.5-.07-3.67,1.39-7.34,3.97-9.96,1.29,2.82.48,6.11-.34,9.1,1-1.77,2.24-3.39,3.69-4.81.36-.35.77-.71,1.27-.7,1.22,0,1.35,1.8.98,2.97-.98,3.16-2.37,6.2-4.13,9l-6.34-.85Z"/>
          <path id="hierba-gruesa3" class="cls-11" d="m841.4,320.91c-1.82-2.25-3.37-4.71-4.62-7.32-.77-1.6-1.31-3.76.02-4.93,2.52,1.88,4.46,4.53,5.49,7.5-.07-3.67,1.39-7.34,3.97-9.96,1.29,2.82.48,6.11-.34,9.1,1-1.77,2.24-3.39,3.69-4.81.36-.35.77-.71,1.27-.7,1.22,0,1.35,1.8.98,2.97-.98,3.16-2.37,6.2-4.13,9l-6.34-.85Z"/>
          <path id="hierba-gruesa2" class="cls-11" d="m1117.79,357.28c-2.62-3.24-4.86-6.79-6.66-10.55-1.1-2.3-1.89-5.43.03-7.11,3.63,2.72,6.43,6.53,7.92,10.82-.1-5.29,2.01-10.59,5.72-14.36,1.85,4.07.69,8.81-.49,13.12,1.44-2.55,3.24-4.89,5.33-6.94.51-.5,1.12-1.02,1.84-1.02,1.76,0,1.94,2.6,1.42,4.28-1.41,4.56-3.42,8.94-5.95,12.98l-9.14-1.22Z"/>
          <path id="hierba-gruesa1" class="cls-11" d="m972.42,306.7c-1.32-1.63-2.44-3.41-3.35-5.3-.55-1.16-.95-2.73.02-3.58,1.83,1.36,3.23,3.29,3.98,5.44-.05-2.66,1.01-5.32,2.88-7.22.93,2.05.35,4.43-.25,6.6.72-1.28,1.63-2.46,2.68-3.49.26-.25.56-.51.92-.51.89,0,.98,1.31.71,2.15-.71,2.29-1.72,4.49-2.99,6.53l-4.6-.61Z"/>
        </g>
        <g id="Lago">
          <path id="agua" class="cls-24" d="m645.07,315.56c-9.13.95-17.89,4.1-25.54,9.18-19.22,12.75-37.27,27.27-53.84,43.32-8.58,8.31-17.03,17.44-19.02,29.7-.78,4.77-.3,9.72,1.73,14.11,5.67,12.23,18.73,13.41,30.25,12.69,14.41-.9,28.68-3.93,42.21-8.96,16.96-6.3,33.35-15.84,51.44-16.28,18.14-.44,35.02,8.35,52.24,14.08,20.48,6.81,42.36,9.38,63.86,7.52,16.57-1.44,33.78-5.97,45.53-17.73,11.75-11.76,15.79-32.3,5.25-45.15-9.57-11.66-26.44-13.17-41.31-15.8-25.84-4.57-50.2-15.04-75.35-22.51-25.15-7.47-52.37-11.89-77.45-4.18h0Z"/>
          <g id="planta-fuera-agua">
            <g id="lineas-planta-fuera-agua">
              <path class="cls-3" d="m821.73,380.85c-2.61,2.62-4.23,5.99-5.23,9.51-1.06,3.71-1.52,7.55-2.01,11.36-.49,3.78-.99,7.61-2.16,11.25-1.12,3.5-2.95,6.73-5.78,9.14-1.56,1.32-3.29,2.43-4.88,3.71-1.49,1.2-2.89,2.59-3.61,4.39-.17.43-.3.88-.39,1.34-.05.28.37.4.43.12.36-1.93,1.55-3.48,2.99-4.77,1.51-1.36,3.22-2.46,4.83-3.7,1.49-1.15,2.82-2.46,3.91-4.01,1.03-1.46,1.83-3.08,2.47-4.75,1.34-3.54,1.92-7.32,2.43-11.05.52-3.81.92-7.66,1.82-11.41.86-3.54,2.21-7.03,4.6-9.83.29-.34.6-.67.91-.99.2-.2-.11-.51-.31-.31h0Z"/>
              <path class="cls-3" d="m795.29,388.08c.97,2.91,1.19,5.98,1.01,9.03-.18,3.1-.75,6.16-1.32,9.21-.5,2.7-.99,5.41-1.2,8.16-.19,2.57-.15,5.18.34,7.72.47,2.45,1.38,4.83,2.87,6.85.19.25.39.5.59.75.18.22.49-.1.31-.31-1.61-1.92-2.65-4.25-3.2-6.69-.57-2.51-.66-5.1-.51-7.66.16-2.7.61-5.35,1.1-8.01.56-3.03,1.14-6.06,1.4-9.13.25-2.98.16-6.02-.63-8.93-.1-.37-.21-.74-.33-1.1-.09-.27-.52-.15-.43.12h0Z"/>
              <path class="cls-3" d="m776,409.48c.02,2.04.54,4.04,1.4,5.89.87,1.86,2.08,3.55,3.49,5.04,1.51,1.6,3.27,2.97,5.11,4.18,1.88,1.24,3.86,2.32,5.86,3.36,1.02.53,2.03,1.09,3.09,1.55,1.04.45,2.17.8,3.32.72.28-.02.56-.06.84-.13.28-.07.16-.49-.12-.43-2.23.56-4.43-.8-6.33-1.79-1.95-1.01-3.89-2.05-5.75-3.22-1.83-1.16-3.59-2.45-5.14-3.97-1.44-1.41-2.68-3.03-3.62-4.81-.92-1.75-1.54-3.67-1.67-5.64-.02-.25-.02-.49-.03-.74,0-.28-.44-.28-.44,0h0Z"/>
            </g>
            <path id="planta-fuera-agua-2" data-name="planta-fuera-agua" class="cls-11" d="m783.41,436.76c-4.32-8.13-9.83-15.75-12.6-24.54-2.77-8.78-2.2-19.44,4.43-25.85-.13,7.24-.13,14.95,3.76,21.07,2.22,3.5,5.54,6.14,8.24,9.29,2.7,3.15,4.87,7.23,4.05,11.29-.38-8.95-.77-17.9-1.15-26.86-.5-11.77-.38-25.16,8.26-33.18-1.7,9.86.9,19.87,2.6,29.72,1.7,9.86,2.35,20.63-2.74,29.24,8.95-9.63,14.5-22.35,15.45-35.46.3-4.09.17-8.24,1.04-12.25,1.51-6.9,6.12-13.06,12.32-16.46-8.13,12.22,2.43,29.46-2.99,43.1-2.26,5.69-7.1,10.09-9.19,15.84-.81,2.25-1.24,4.75-2.84,6.52-2.12,2.35-5.59,2.72-8.54,3.89-3.89,1.54-7.06,4.62-11.03,5.94-3.97,1.32-9.55-.33-9.94-4.49l.87,3.18Z"/>
          </g>
          <g id="planta-agua">
            <path class="cls-2" d="m729.99,358.14c.37-4.1.92-8.19,1.65-12.25.73-4.04,1.63-8.05,2.7-12.01s2.32-7.88,3.74-11.73c1.42-3.87,3.01-7.68,4.76-11.41,1.75-3.72,3.65-7.36,5.72-10.91.26-.45.52-.89.79-1.33.15-.24-.24-.47-.38-.22-2.12,3.56-4.09,7.21-5.88,10.94-1.78,3.7-3.41,7.48-4.86,11.32-1.47,3.87-2.77,7.81-3.9,11.79-1.12,3.97-2.07,7.98-2.84,12.03-.77,4.05-1.37,8.14-1.78,12.24-.05.51-.1,1.03-.15,1.54-.03.28.42.28.44,0h0Z"/>
            <path class="cls-2" d="m725.52,355.56c.18-3.36.24-6.73.18-10.1-.06-3.37-.23-6.73-.52-10.09-.29-3.34-.69-6.68-1.2-9.99-.52-3.34-1.15-6.67-1.9-9.97-.37-1.63-.77-3.26-1.2-4.88-.22-.82-.44-1.63-.67-2.45-.11-.4-.23-.8-.34-1.2-.1-.33-.25-.66-.18-1.01.02-.11.06-.23.13-.32.02-.03.05-.08.08-.09,0,0,.04.05.04.05.19.21.5-.1.31-.31-.4-.46-.84.06-.97.47-.08.28-.08.55,0,.83.12.41.24.83.36,1.24.48,1.67.93,3.35,1.35,5.04.84,3.38,1.55,6.78,2.15,10.21.6,3.44,1.07,6.9,1.41,10.38.35,3.48.57,6.97.67,10.46.1,3.48.07,6.96-.09,10.43-.02.43-.04.86-.06,1.29-.01.28.43.28.44,0h0Z"/>
            <path class="cls-2" d="m733.87,356.35c.99-3.04,2.09-6.03,3.32-8.98,1.22-2.94,2.57-5.83,4.02-8.67,1.46-2.84,3.03-5.62,4.71-8.34,1.67-2.71,3.45-5.35,5.34-7.91,1.89-2.58,3.89-5.08,5.99-7.5.26-.29.51-.59.77-.88.19-.21-.12-.53-.31-.31-2.12,2.4-4.14,4.88-6.06,7.44-1.92,2.56-3.75,5.21-5.46,7.91-1.72,2.72-3.33,5.51-4.83,8.36-1.48,2.83-2.86,5.71-4.11,8.65-1.26,2.95-2.41,5.96-3.43,9-.12.37-.25.74-.37,1.11-.09.27.34.39.43.12h0Z"/>
            <path class="cls-15" d="m749.19,294.43l-4.35,5.42c-.63.78-1.27,1.59-1.52,2.55-.26.97-.03,2.14.81,2.69,1.49.99,3.35-.57,4.35-2.06,1.06-1.59,1.99-3.27,2.77-5.02.47-1.05.88-2.28.4-3.33-.49-1.05-2.3-1.35-2.7-.26h.25Z"/>
            <path class="cls-15" d="m716.36,303.49c.76,3.15,1.77,6.25,3.02,9.25.42,1.01,1.15,2.18,2.24,2.06,1.12-.12,1.56-1.52,1.56-2.65,0-2.24-.73-4.4-1.45-6.52-.35-1.04-.72-2.11-1.46-2.92-.74-.81-1.94-1.31-2.95-.89s-1.47,1.95-.64,2.67l-.31-1Z"/>
            <path class="cls-15" d="m752.91,319.69c-1.1-1.97-.47-4.57,1.05-6.24,1.51-1.67,3.72-2.55,5.92-3.04.28-.06.6-.12.85.04.34.21.37.69.33,1.09-.27,3.09-2.04,6.02-4.65,7.7-1.16.74-3.29,1.81-3.56.46h.06Z"/>
            <path class="cls-11" d="m724.89,356.74c3.97.59,8.17-33.5,9.03-47.79-5.04,13.93-8.37,30.47-8.44,45.29-2.58-7.45-4.48-16.69-8.44-23.5-3.96-6.82-9.41-12.98-16.46-16.52,9.01,12.88,16.87,26.57,23.45,40.85l.86,1.68Z"/>
            <path class="cls-3" d="m709.56,322.84c1.25,1.96,2.43,3.96,3.56,5.99,1.13,2.03,2.2,4.09,3.23,6.18,1.03,2.09,2.02,4.19,2.97,6.31.96,2.12,1.89,4.26,2.8,6.4.91,2.15,1.81,4.3,2.7,6.45.11.27.23.55.34.82.08.18.37.23.43,0,.96-4.12,1.84-8.26,2.62-12.41.79-4.15,1.49-8.33,2.11-12.51.35-2.35.66-4.7.95-7.06.03-.28-.41-.28-.44,0-.52,4.18-1.12,8.34-1.81,12.5-.69,4.16-1.47,8.31-2.33,12.43-.48,2.32-1,4.63-1.53,6.93h.43c-.9-2.16-1.79-4.31-2.7-6.47-.91-2.16-1.84-4.3-2.79-6.44-.95-2.13-1.94-4.26-2.96-6.36-1.02-2.1-2.09-4.18-3.21-6.23-1.11-2.04-2.28-4.05-3.52-6.02-.16-.25-.32-.5-.48-.75-.15-.24-.53-.02-.38.22h0Z"/>
            <path class="cls-3" d="m729.92,358.04c2.43-14.67,8.43-28.74,17.33-40.66-3.28,8.67-6.55,17.35-9.83,26.02-2.03,5.37-4.11,10.83-7.68,15.32-.19-5.05-.37-10.09-.56-15.14-.37-9.96-.69-20.21,2.75-29.56,1.6,8.08,1.86,16.37,1.51,24.59-.27,6.37-.94,12.9-3.79,18.6l.27.83Z"/>
            <path class="cls-11" d="m734.13,356.35c.41-10.82,3.67-21.52,9.36-30.73-2.02,10.11-4.6,20.11-7.71,29.94,2.86-6.33,9.48-9.93,15.67-13.1-5.13,5.59-10.42,11.29-17.16,14.76l-.16-.87Z"/>
            <path class="cls-22" d="m755.82,314.34c-.29.46-.58.92-.87,1.37-.06.1-.02.25.08.3.11.06.24.03.3-.08.29-.46.58-.91.87-1.37.06-.1.02-.25-.08-.3-.11-.06-.24-.03-.3.08h0Z"/>
            <path class="cls-22" d="m756.61,315.04c-.15.15-.3.3-.45.45-.04.04-.06.1-.06.16s.02.12.06.16c.04.04.1.07.16.06.06,0,.11-.02.16-.06.15-.15.3-.3.45-.45.04-.04.06-.1.06-.16s-.02-.12-.06-.16c-.04-.04-.1-.07-.16-.06-.06,0-.11.02-.16.06h0Z"/>
            <path class="cls-22" d="m758.09,313.45c-.1.15-.21.29-.31.44-.03.04-.04.12-.02.17.01.05.05.11.1.13.05.03.11.04.17.02.09-.04.11-.07.13-.1.1-.15.21-.29.31-.44.03-.04.04-.12.02-.17-.01-.05-.05-.11-.1-.13-.05-.03-.11-.04-.17-.02-.09.04-.11.07-.13.1h0Z"/>
            <path class="cls-22" d="m755.73,317.61c-.25.25-.49.51-.74.76-.08.08-.09.23,0,.31.09.08.23.09.31,0,.25-.25.49-.51.74-.76.08-.08.09-.23,0-.31-.09-.08-.23-.09-.31,0h0Z"/>
            <path class="cls-22" d="m746.01,301.78l-.27.91c-.03.11.04.25.15.27.12.03.24-.04.27-.15.09-.3.18-.61.27-.91.03-.11-.04-.25-.15-.27-.12-.03-.24.04-.27.15h0Z"/>
            <path class="cls-22" d="m747.87,299.79c-.1.15-.2.3-.3.45-.03.05-.04.12-.02.17.01.05.05.11.1.13.05.03.11.04.17.02.06-.02.1-.05.13-.1.1-.15.2-.3.3-.45.03-.05.04-.12.02-.17-.01-.05-.05-.11-.1-.13-.05-.03-.11-.04-.17-.02-.06.02-.1.05-.13.1h0Z"/>
            <path class="cls-22" d="m749.49,297.85c-.22.25-.35.56-.38.9,0,.12.11.23.22.22.13,0,.21-.1.22-.22,0-.03,0-.06,0-.09,0-.05.04-.16.08-.26,0,0,.03-.07.07-.12.02-.03.04-.05.06-.08.11-.13.13-.27.04-.35-.08-.08-.23-.09-.31,0h0Z"/>
            <path class="cls-22" d="m746.86,299.8c-.42.15-.71.53-.75.98,0,.12.11.23.22.22.13,0,.21-.1.22-.22,0-.02,0-.06.02-.1.03-.1.05-.14.07-.17.06-.09.09-.12.11-.14.08-.07.12-.09.15-.11.12-.05.17-.08.2-.13.03-.05.04-.12.02-.17-.03-.11-.16-.2-.27-.15h0Z"/>
            <path class="cls-22" d="m720.32,309.72c.06.25.11.5.17.75.03.11.16.19.27.15.12-.04.18-.15.15-.27-.06-.25-.11-.5-.17-.75-.03-.11-.16-.19-.27-.15-.12.04-.18.15-.15.27h0Z"/>
            <path class="cls-22" d="m720.85,306.65c.03.52.18,1.02.45,1.47.06.1.2.14.3.08.1-.06.14-.2.08-.3-.06-.1-.12-.21-.17-.32-.03-.07.01.04-.02-.04-.01-.03-.02-.06-.03-.09-.02-.05-.04-.11-.05-.16-.03-.11-.06-.22-.08-.33-.02-.12-.03-.19-.04-.32,0-.11-.1-.23-.22-.22-.11,0-.23.1-.22.22h0Z"/>
            <path class="cls-22" d="m719.29,304.4v.9c0,.12.1.23.22.22.12,0,.22-.1.22-.22v-.9c0-.12-.1-.23-.22-.22-.12,0-.22.1-.22.22h0Z"/>
            <path class="cls-22" d="m719.91,308.06c.05.35.11.7.16,1.05.02.11.17.19.27.15.12-.04.17-.15.15-.27-.05-.35-.11-.7-.16-1.05-.02-.11-.17-.19-.27-.15-.12.04-.17.15-.15.27h0Z"/>
            <path class="cls-22" d="m717.31,303.15c.74,0,1.45-.41,1.82-1.05.14-.24-.24-.47-.38-.22-.15.25-.36.46-.61.6-.26.15-.54.22-.83.22-.28,0-.28.44,0,.44h0Z"/>
            <path class="cls-22" d="m759.02,311.28c.16.58.56,1.09,1.1,1.37.1.05.24.03.3-.08.05-.1.03-.24-.08-.3-.06-.03-.12-.06-.17-.1-.03-.02-.06-.04-.09-.06-.15-.12-.24-.21-.32-.31-.05-.07-.07-.1-.09-.12-.04-.06-.07-.11-.1-.17-.02-.03-.03-.06-.05-.09-.05-.12-.07-.18-.09-.25-.03-.11-.16-.19-.27-.15-.11.04-.19.15-.15.27h0Z"/>
          </g>
          <g id="lineas-agua">
            <path class="cls-12" d="m718.95,352.16c.84,2.29,2.21,4.36,3.96,6.06,1.75,1.7,3.85,3.03,6.15,3.86,1.29.47,2.64.77,4.01.89.28.03.28-.42,0-.44-2.36-.21-4.66-.99-6.69-2.2-2.02-1.2-3.8-2.83-5.15-4.75-.77-1.09-1.4-2.28-1.86-3.53-.1-.26-.52-.15-.43.12h0Z"/>
            <path class="cls-12" d="m725.01,363.23c1.68,2.62,4.77,4.2,7.87,4.19.88,0,1.76-.13,2.61-.4.27-.09.15-.51-.12-.43-2.83.89-6.06.17-8.32-1.73-.64-.54-1.2-1.16-1.65-1.87-.15-.24-.54-.02-.38.22h0Z"/>
            <path class="cls-12" d="m778.51,346.02c3.35,1.59,6.86,2.82,10.47,3.66,3.61.84,7.31,1.3,11.01,1.36,2.1.03,4.19-.06,6.28-.28.28-.03.28-.47,0-.44-3.66.39-7.37.38-11.03-.01-3.64-.4-7.24-1.18-10.72-2.34-1.97-.65-3.9-1.43-5.78-2.32-.26-.12-.48.26-.22.38h0Z"/>
            <path class="cls-12" d="m782.78,355.1c3,.24,6,.49,9.01.73.28.02.28-.42,0-.44-3-.24-6-.49-9.01-.73-.28-.02-.28.42,0,.44h0Z"/>
            <path class="cls-12" d="m650.06,320.72c2.75-1.11,5.59-2.04,8.47-2.76,2.88-.73,5.82-1.26,8.78-1.58,1.67-.18,3.34-.3,5.01-.35.28,0,.28-.45,0-.44-2.99.09-5.97.39-8.92.9-2.94.5-5.85,1.2-8.69,2.1-1.61.51-3.2,1.08-4.76,1.71-.26.1-.15.53.12.43h0Z"/>
            <path class="cls-12" d="m654.3,324.45c3.76-1.28,7.68-2.07,11.64-2.32,1.11-.07,2.22-.1,3.34-.08.28,0,.28-.44,0-.44-3.98-.05-7.98.44-11.83,1.44-1.1.28-2.19.61-3.26.98-.27.09-.15.52.12.43h0Z"/>
            <path class="cls-12" d="m656.14,349.67c2.23-1.28,4.64-2.24,7.14-2.87,2.5-.62,5.08-.91,7.65-.84,1.46.04,2.91.19,4.34.46.28.05.4-.37.12-.43-2.58-.48-5.22-.6-7.84-.36-2.61.24-5.19.83-7.64,1.77-1.38.53-2.71,1.16-3.99,1.89-.25.14-.02.52.22.38h0Z"/>
            <path class="cls-12" d="m661.95,351.5c2.8-.19,5.6-.38,8.4-.57.8-.05,1.61-.11,2.41-.16.28-.02.28-.46,0-.44-2.8.19-5.6.38-8.4.57-.8.05-1.61.11-2.41.16-.28.02-.28.46,0,.44h0Z"/>
            <path class="cls-12" d="m607.92,346.82c-2.31.5-4.44,1.74-6.04,3.47-.45.49-.87,1.03-1.23,1.6-.15.24.23.46.38.22,1.22-1.92,3.05-3.44,5.16-4.3.6-.24,1.21-.43,1.84-.57.28-.06.16-.49-.12-.43h0Z"/>
            <path class="cls-12" d="m606.42,353.58c-.4,1-.8,2-1.2,3-.04.11.05.24.15.27.13.04.23-.04.27-.15.4-1,.8-2,1.2-3,.04-.11-.05-.24-.15-.27-.13-.04-.23.04-.27.15h0Z"/>
            <path class="cls-12" d="m739.99,409.82c2.5.93,5,1.86,7.5,2.79.71.26,1.42.53,2.13.79.27.1.38-.33.12-.43-2.5-.93-5-1.86-7.5-2.79-.71-.26-1.42-.53-2.13-.79-.27-.1-.38.33-.12.43h0Z"/>
            <path class="cls-12" d="m746.18,407.13c1.61,1.12,3.64,1.56,5.57,1.21.28-.05.16-.47-.12-.43-1.82.32-3.72-.11-5.23-1.17-.23-.16-.45.22-.22.38h0Z"/>
            <path class="cls-12" d="m555.23,397.86c.58,2.03,1.2,4.05,1.98,6.01.78,1.93,1.72,3.81,2.97,5.48,1.17,1.57,2.59,2.94,4.29,3.92,1.6.92,3.41,1.53,5.26,1.67,1.78.13,3.61-.2,5.17-1.11.2-.11.39-.24.57-.37.23-.16.01-.54-.22-.38-1.44,1.01-3.17,1.47-4.92,1.44-1.79-.03-3.56-.54-5.13-1.36-1.68-.87-3.1-2.11-4.28-3.58-1.27-1.59-2.25-3.4-3.04-5.27-.8-1.9-1.43-3.87-2-5.85-.07-.24-.14-.48-.21-.72-.08-.27-.5-.16-.43.12h0Z"/>
            <path class="cls-12" d="m834.26,360.32c1.9,2.75,2.94,6.04,3.11,9.37.18,3.31-.47,6.69-1.94,9.67-.82,1.68-1.9,3.22-3.21,4.56-.2.2.11.51.31.31,2.4-2.44,4.02-5.57,4.78-8.9.76-3.31.7-6.82-.26-10.09-.53-1.83-1.34-3.57-2.43-5.14-.16-.23-.54-.01-.38.22h0Z"/>
            <path class="cls-12" d="m833.05,366.95c.86,2.71.94,5.64.24,8.39-.2.77-.45,1.53-.77,2.26-.11.26.27.48.38.22,1.17-2.69,1.56-5.67,1.13-8.57-.12-.82-.31-1.62-.56-2.41-.09-.27-.51-.15-.43.12h0Z"/>
            <path class="cls-12" d="m586.43,374.38c-.28,2.34-.07,4.72.57,6.99.64,2.25,1.7,4.39,3.13,6.25,1.44,1.88,3.25,3.45,5.32,4.6,2.1,1.17,4.43,1.9,6.81,2.19,2.37.29,4.8.11,7.1-.54.29-.08.57-.17.85-.27.27-.09.15-.52-.12-.43-2.22.76-4.58,1.05-6.92.88-2.33-.16-4.64-.78-6.74-1.82-2.09-1.03-3.94-2.48-5.45-4.25-1.48-1.75-2.61-3.8-3.33-5.98-.72-2.18-1.03-4.49-.87-6.78.02-.28.05-.56.08-.84.03-.28-.41-.28-.44,0h0Z"/>
            <path class="cls-12" d="m595.52,379.21c1.23,2.94,3.85,5.2,6.91,6.08.86.25,1.76.38,2.65.4.28,0,.28-.44,0-.44-3.04-.04-5.96-1.57-7.84-3.95-.53-.67-.97-1.42-1.3-2.2-.05-.11-.15-.19-.27-.15-.1.03-.2.16-.15.27h0Z"/>
          </g>
        </g>
        <g id="Hierbas">
          <g id="hierba20">
            <path class="cls-11" d="m40.59,530.1c-1.16-3.73-2.32-7.46-3.48-11.19-.33-1.05-.65-2.1-.98-3.15-.08-.27-.51-.15-.43.12,1.16,3.73,2.32,7.46,3.48,11.19.33,1.05.65,2.1.98,3.15.08.27.51.15.43-.12h0Z"/>
            <path class="cls-11" d="m41.3,528.53c1.06-2.05,1.64-4.33,1.68-6.64.01-.66-.03-1.32-.1-1.98-.03-.28-.48-.28-.44,0,.27,2.23.01,4.51-.74,6.63-.22.6-.47,1.19-.77,1.76-.13.25.25.47.38.22h0Z"/>
            <path class="cls-11" d="m45.87,526.65c.81-1.6,1.62-3.2,2.43-4.79.13-.25-.25-.48-.38-.22-.81,1.6-1.62,3.2-2.43,4.79-.13.25.25.48.38.22h0Z"/>
          </g>
          <g id="hierba19">
            <path class="cls-11" d="m28.12,447.96c.8,2.48,1.59,4.97,2.39,7.45.23.71.46,1.42.68,2.13.09.27.51.15.43-.12-.8-2.48-1.59-4.97-2.39-7.45-.23-.71-.46-1.42-.68-2.13-.09-.27-.51-.15-.43.12h0Z"/>
            <path class="cls-11" d="m32.18,449.13l.69,6.6c.03.28.47.28.44,0-.23-2.2-.46-4.4-.69-6.6-.03-.28-.47-.28-.44,0h0Z"/>
            <path class="cls-11" d="m36.5,449.72v7.21c0,.28.44.28.44,0v-7.21c0-.28-.44-.28-.44,0h0Z"/>
          </g>
          <g id="hierba18">
            <path class="cls-11" d="m105.66,398.13c.66,2.79,1.33,5.57,1.99,8.36.07.28.49.16.43-.12-.66-2.79-1.33-5.57-1.99-8.36-.07-.28-.49-.16-.43.12h0Z"/>
            <path class="cls-11" d="m111.17,398.56c-.33,1.86-.21,3.77.36,5.57.09.27.51.15.43-.12-.55-1.72-.68-3.56-.36-5.34.05-.28-.38-.4-.43-.12h0Z"/>
            <path class="cls-11" d="m115.98,399.84c-.43,1.99-.86,3.99-1.3,5.98-.06.28.37.39.43.12.43-1.99.86-3.99,1.3-5.98.06-.28-.37-.39-.43-.12h0Z"/>
          </g>
          <g id="hierba17">
            <path class="cls-11" d="m326.97,538.15c1.48,1.78,2.81,3.68,3.99,5.67,1.17,1.98,2.19,4.05,3.04,6.19.48,1.21.9,2.45,1.27,3.7.08.27.51.16.43-.12-.66-2.24-1.51-4.43-2.51-6.54-1.01-2.1-2.18-4.13-3.5-6.05-.75-1.09-1.55-2.14-2.4-3.16-.18-.22-.49.09-.31.31h0Z"/>
            <path class="cls-11" d="m337.69,545.19v8.41c0,.28.44.28.44,0v-8.41c0-.28-.44-.28-.44,0h0Z"/>
            <path class="cls-11" d="m347.22,546.34c.42,2.79.28,5.67-.41,8.41-.19.77-.43,1.54-.71,2.28-.1.27.33.38.43.12,1.01-2.7,1.47-5.61,1.36-8.49-.03-.82-.11-1.63-.23-2.44-.04-.28-.47-.16-.43.12h0Z"/>
          </g>
          <g id="hierba16">
            <path class="cls-11" d="m508.54,335.05l3.88,10.27,1.09,2.88c.1.26.53.15.43-.12-1.29-3.42-2.59-6.85-3.88-10.27-.36-.96-.72-1.92-1.09-2.88-.1-.26-.53-.15-.43.12h0Z"/>
            <path class="cls-11" d="m519.53,336.19c.87,2.05,1.23,4.3,1.06,6.52-.05.64-.14,1.27-.28,1.9-.06.28.36.39.43.12.49-2.24.44-4.59-.15-6.81-.17-.63-.38-1.24-.63-1.84-.05-.11-.15-.19-.27-.15-.1.03-.2.16-.15.27h0Z"/>
            <path class="cls-11" d="m528.69,336.13l-2.03,8.37c-.19.8-.39,1.59-.58,2.39-.07.28.36.39.43.12.68-2.79,1.35-5.58,2.03-8.37.19-.8.39-1.59.58-2.39.07-.28-.36-.39-.43-.12h0Z"/>
          </g>
          <g id="hierba15">
            <path class="cls-11" d="m774.93,299.95c-.66,3.21-.4,6.59.76,9.65.33.86.72,1.7,1.18,2.5.14.25.52.02.38-.22-1.58-2.76-2.35-5.95-2.22-9.12.04-.9.15-1.8.33-2.69.06-.28-.37-.4-.43-.12h0Z"/>
            <path class="cls-11" d="m781.36,301.4v7.21c0,.28.44.28.44,0v-7.21c0-.28-.44-.28-.44,0h0Z"/>
            <path class="cls-11" d="m788.57,302.6v6c0,.28.44.28.44,0v-6c0-.28-.44-.28-.44,0h0Z"/>
          </g>
          <g id="hierba14">
            <path class="cls-11" d="m988.09,322.08c1.15,1.95,1.93,4.11,2.29,6.34.1.64.17,1.28.21,1.92.02.28.46.28.44,0-.13-2.32-.68-4.6-1.64-6.72-.27-.61-.58-1.2-.92-1.77-.14-.24-.53-.02-.38.22h0Z"/>
            <path class="cls-11" d="m997.9,322.92c-1.21,1.34-1.67,3.28-1.18,5.02.08.27.5.16.43-.12-.45-1.59-.04-3.37,1.07-4.59.19-.21-.12-.52-.31-.31h0Z"/>
            <path class="cls-11" d="m1004.92,322.93c-.79,2-1.59,4.01-2.38,6.01-.1.26.32.38.43.12.79-2,1.59-4.01,2.38-6.01.1-.26-.32-.38-.43-.12h0Z"/>
          </g>
          <g id="hierba13">
            <path class="cls-11" d="m1045.86,296.51c-.06,2.84.22,5.69.84,8.46.18.79.38,1.57.61,2.35.08.27.51.16.43-.12-.8-2.7-1.28-5.49-1.41-8.3-.04-.8-.04-1.59-.03-2.39,0-.28-.44-.28-.44,0h0Z"/>
            <path class="cls-11" d="m1051.89,301.4v4.8c0,.28.44.28.44,0v-4.8c0-.28-.44-.28-.44,0h0Z"/>
            <path class="cls-11" d="m1062.86,298.97c-.49,2.38-.97,4.77-1.46,7.15-.06.28.37.4.43.12.49-2.38.97-4.77,1.46-7.15.06-.28-.37-.4-.43-.12h0Z"/>
          </g>
          <g id="hierba12">
            <path class="cls-11" d="m944.38,405.67c1.01,2.09,2.02,4.19,3.03,6.28.12.26.5.03.38-.22-1.01-2.09-2.02-4.19-3.03-6.28-.12-.26-.5-.03-.38.22h0Z"/>
            <path class="cls-11" d="m953.61,403.49c-.06,1.6-.13,3.2-.19,4.8-.01.28.43.28.44,0,.06-1.6.13-3.2.19-4.8.01-.28-.43-.28-.44,0h0Z"/>
            <path class="cls-11" d="m959.31,405.82c-.8,2-1.6,4-2.4,6-.11.26.32.38.43.12.8-2,1.6-4,2.4-6,.11-.26-.32-.38-.43-.12h0Z"/>
          </g>
          <g id="hierba11">
            <path class="cls-11" d="m490.63,384.25c.86,2.52,1.72,5.04,2.58,7.56.24.72.49,1.43.73,2.15.09.27.52.15.43-.12-.86-2.52-1.72-5.04-2.58-7.56-.24-.72-.49-1.43-.73-2.15-.09-.27-.52-.15-.43.12h0Z"/>
            <path class="cls-11" d="m498.94,387.9c.42,2.4.84,4.8,1.26,7.2.05.28.47.16.43-.12-.42-2.4-.84-4.8-1.26-7.2-.05-.28-.47-.16-.43.12h0Z"/>
            <path class="cls-11" d="m507.36,390.25c-.74,2.82-1.48,5.64-2.23,8.45-.07.27.35.39.43.12.74-2.82,1.48-5.64,2.23-8.45.07-.27-.35-.39-.43-.12h0Z"/>
          </g>
          <g id="hierba10">
            <path class="cls-11" d="m148.9,350.92c1.46,1.87,2.57,4,3.27,6.26.2.65.36,1.3.5,1.96.06.28.48.16.43-.12-.48-2.38-1.39-4.67-2.68-6.72-.37-.59-.77-1.15-1.2-1.7-.17-.22-.49.09-.31.31h0Z"/>
            <path class="cls-11" d="m158.71,350.53c-.67,2.49-.29,5.21,1.02,7.42.14.24.53.02.38-.22-1.26-2.11-1.61-4.7-.98-7.08.07-.27-.35-.39-.43-.12h0Z"/>
            <path class="cls-11" d="m165.76,353.04v7.21c0,.28.44.28.44,0v-7.21c0-.28-.44-.28-.44,0h0Z"/>
          </g>
          <g id="hierba9">
            <path class="cls-11" d="m313.43,303.92c.76,3.08,1.53,6.16,2.29,9.24.22.88.43,1.75.65,2.63.07.28.49.16.43-.12-.76-3.08-1.53-6.16-2.29-9.24-.22-.88-.43-1.75-.65-2.63-.07-.28-.49-.16-.43.12h0Z"/>
            <path class="cls-11" d="m322.37,309.79c.64,2.31.47,4.83-.5,7.03-.11.26.27.48.38.22,1.02-2.31,1.22-4.93.54-7.36-.08-.27-.5-.16-.43.12h0Z"/>
            <path class="cls-11" d="m331.8,312.17c-1.48,1.87-2.37,4.15-2.55,6.52-.05.67-.05,1.34.02,2,.03.28.47.28.44,0-.22-2.27.25-4.58,1.34-6.59.31-.57.67-1.12,1.07-1.63.17-.22-.14-.53-.31-.31h0Z"/>
          </g>
          <g id="hierba8">
            <path class="cls-11" d="m947.13,564.72c1.89,2.79,3.35,5.87,4.31,9.11.27.91.5,1.83.69,2.77.06.28.48.16.43-.12-.68-3.33-1.88-6.55-3.53-9.52-.47-.84-.97-1.66-1.51-2.45-.16-.23-.54-.01-.38.22h0Z"/>
            <path class="cls-11" d="m958.01,565.87c1.15,1.69,1.57,3.82,1.13,5.81-.06.28.37.39.43.12.46-2.11.03-4.37-1.18-6.15-.16-.23-.54-.01-.38.22h0Z"/>
            <path class="cls-11" d="m969.18,566.89c-2.44,1.71-4.17,4.34-4.82,7.24-.18.81-.28,1.64-.28,2.47,0,.28.44.28.44,0,.02-2.85,1.15-5.65,3.07-7.75.54-.59,1.15-1.12,1.81-1.59.23-.16.01-.54-.22-.38h0Z"/>
          </g>
          <g id="hierba7">
            <path class="cls-11" d="m710.33,569.49c1.42,2.16,2.27,4.69,2.44,7.27.05.73.04,1.47-.02,2.2-.02.28.42.28.44,0,.22-2.64-.27-5.32-1.37-7.72-.32-.69-.68-1.35-1.1-1.98-.16-.24-.54-.02-.38.22h0Z"/>
            <path class="cls-11" d="m719.97,569.14c-.44,2.8-.88,5.59-1.32,8.39-.04.28.38.4.43.12.44-2.8.88-5.59,1.32-8.39.04-.28-.38-.4-.43-.12h0Z"/>
            <path class="cls-11" d="m726.2,572.85c-1.21,1.79-1.64,4.05-1.18,6.15.06.28.49.16.43-.12-.44-2-.01-4.13,1.13-5.81.16-.24-.22-.46-.38-.22h0Z"/>
          </g>
          <g id="hierba6">
            <path class="cls-11" d="m513.13,570.6c1.22,2.19,2.44,4.38,3.66,6.57.35.63.7,1.26,1.05,1.89.14.25.52.03.38-.22-1.22-2.19-2.44-4.38-3.66-6.57-.35-.63-.7-1.26-1.05-1.89-.14-.25-.52-.03-.38.22h0Z"/>
            <path class="cls-11" d="m526.46,570.31c-1.31,2.22-1.69,4.93-1.05,7.42.07.27.5.16.43-.12-.61-2.38-.24-4.96,1.01-7.08.14-.25-.24-.47-.38-.22h0Z"/>
            <path class="cls-11" d="m534.94,571.54c-1.09,2.26-1.53,4.81-1.22,7.31.03.28.48.28.44,0-.3-2.41.1-4.89,1.16-7.09.12-.25-.26-.48-.38-.22h0Z"/>
          </g>
          <g id="hierba5">
            <path class="cls-11" d="m210.38,570.44c.59,2.5,1.18,5,1.77,7.5.17.71.34,1.43.51,2.14.07.28.49.16.43-.12-.59-2.5-1.18-5-1.77-7.5-.17-.71-.34-1.43-.51-2.14-.07-.28-.49-.16-.43.12h0Z"/>
            <path class="cls-11" d="m217.4,574.1c.78,2.01,1.57,4.02,2.35,6.03.1.26.53.15.43-.12-.78-2.01-1.57-4.02-2.35-6.03-.1-.26-.53-.15-.43.12h0Z"/>
            <path class="cls-11" d="m228.21,569.2c-1,2.71-1.43,5.63-1.27,8.52.05.82.14,1.63.28,2.44.05.28.47.16.43-.12-.48-2.79-.38-5.68.29-8.43.19-.78.42-1.54.7-2.29.1-.27-.33-.38-.43-.12h0Z"/>
          </g>
          <g id="hierba4">
            <path class="cls-11" d="m1074.96,290.61c-.21-3.29-.42-6.57-.63-9.86-.06-.93-.12-1.85-.18-2.78-.02-.28-.46-.28-.44,0,.21,3.29.42,6.57.63,9.86.06.93.12,1.85.18,2.78.02.28.46.28.44,0h0Z"/>
            <path class="cls-11" d="m1078.07,286.4c.7-2.75.93-5.62.67-8.44-.03-.28-.47-.28-.44,0,.26,2.79.04,5.61-.65,8.32-.07.28.36.39.43.12h0Z"/>
            <path class="cls-11" d="m1081.78,288.27c.97-2.91,2.15-5.74,3.55-8.46.4-.77.81-1.53,1.24-2.29.14-.25-.24-.47-.38-.22-1.53,2.68-2.85,5.49-3.96,8.37-.31.82-.61,1.65-.88,2.48-.09.27.34.39.43.12h0Z"/>
          </g>
          <g id="hierba2">
            <path class="cls-11" d="m1145.5,324.92c.63,2.49,1.26,4.98,1.9,7.47.18.71.36,1.42.54,2.13.07.27.5.16.43-.12-.63-2.49-1.26-4.98-1.9-7.47-.18-.71-.36-1.42-.54-2.13-.07-.27-.5-.16-.43.12h0Z"/>
            <path class="cls-11" d="m1152.42,328.92c-.95,1.29-.97,3.17-.05,4.49.16.23.54.01.38-.22-.84-1.2-.81-2.86.05-4.04.17-.23-.21-.45-.38-.22h0Z"/>
            <path class="cls-11" d="m1157.86,329.1c-.88,2.09-1.35,4.35-1.38,6.61,0,.28.44.28.44,0,.03-2.23.5-4.44,1.36-6.5.05-.11-.05-.24-.15-.27-.13-.04-.23.04-.27.15h0Z"/>
          </g>
          <g id="hierba2-2" data-name="hierba2">
            <path class="cls-11" d="m1094.66,389.12c.41,2.6.82,5.2,1.22,7.8.04.28.47.16.43-.12-.41-2.6-.82-5.2-1.22-7.8-.04-.28-.47-.16-.43.12h0Z"/>
            <path class="cls-11" d="m1100.12,390.7c-.34,1.65-.18,3.39.47,4.95.11.26.53.15.43-.12-.62-1.49-.79-3.13-.47-4.71.06-.28-.37-.4-.43-.12h0Z"/>
            <path class="cls-11" d="m1105,391.47c-.52,1.97-1.05,3.94-1.57,5.91-.07.27.35.39.43.12.52-1.97,1.05-3.94,1.57-5.91.07-.27-.35-.39-.43-.12h0Z"/>
          </g>
          <g id="hierba1">
            <path class="cls-11" d="m246.35,411.34c.73,2.35,1.46,4.69,2.19,7.04.21.67.42,1.35.63,2.02.08.27.51.15.43-.12-.73-2.35-1.46-4.69-2.19-7.04-.21-.67-.42-1.35-.63-2.02-.08-.27-.51-.15-.43.12h0Z"/>
            <path class="cls-11" d="m251.41,413.11c.11,2,.22,3.99.34,5.99.02.28.46.28.44,0-.11-2-.22-3.99-.34-5.99-.02-.28-.46-.28-.44,0h0Z"/>
            <path class="cls-11" d="m258.01,415.56c-1.4,2.43-2.47,5.04-3.19,7.75-.07.27.35.39.43.12.71-2.67,1.77-5.24,3.15-7.64.14-.25-.24-.47-.38-.22h0Z"/>
          </g>
        </g>
        <g id="Lineas_Plantas" data-name="Lineas Plantas">
          <path class="cls-3" d="m16.09,182.71c.7-1.34,1.49-2.65,2.45-3.82.9-1.1,1.97-2.13,3.28-2.72,1.29-.58,2.79-.58,4.06.06,1.36.68,2.34,1.94,3.05,3.26,1.38,2.57,1.96,5.59,1.93,8.48-.03,2.91-.68,5.81-1.88,8.45-1.2,2.62-2.94,5-5.15,6.85-.29.24-.58.47-.88.69.09.01.18.02.27.03-1.86-1.64-1.58-4.39-.36-6.33.64-1.02,1.57-1.89,2.7-2.35,1.28-.53,2.76-.45,4.06,0,2.89.98,5.06,3.72,5.79,6.62.71,2.82.13,5.85-1.27,8.36-1.41,2.52-3.68,4.61-6.44,5.57-.33.12-.67.21-1.02.3.08.11.17.22.25.32,1.45-3.42,4.38-6.11,7.84-7.43,3.45-1.32,7.33-1.21,10.55.67,3.13,1.83,5.45,5.04,6.13,8.59.34,1.76.25,3.61-.32,5.31-.56,1.66-1.56,3.16-2.81,4.38-2.47,2.4-6.07,3.83-9.53,3.27-.43-.07-.85-.17-1.26-.29-.27-.08-.39.34-.12.43,3.51,1.06,7.34.03,10.19-2.19,2.93-2.28,4.72-5.79,4.48-9.53-.24-3.75-2.3-7.27-5.28-9.52-1.51-1.14-3.28-1.95-5.16-2.28-1.87-.33-3.79-.21-5.62.29-3.68,1-6.98,3.49-8.85,6.82-.23.41-.43.83-.62,1.26-.07.17.05.37.25.32,2.99-.72,5.55-2.71,7.23-5.26,1.67-2.55,2.48-5.69,1.97-8.72-.52-3.12-2.61-6.11-5.53-7.43-1.36-.61-2.95-.87-4.41-.49-1.23.32-2.32,1.1-3.11,2.09-1.49,1.87-2.21,4.8-.67,6.86.18.25.39.47.62.67.07.06.19.09.27.03,2.44-1.79,4.4-4.17,5.78-6.86,1.37-2.68,2.17-5.65,2.33-8.66.15-3.01-.35-6.11-1.61-8.85-.65-1.42-1.56-2.78-2.85-3.69-1.2-.85-2.71-1.18-4.15-.85-1.42.32-2.64,1.22-3.63,2.25-1.1,1.13-1.99,2.44-2.77,3.8-.19.33-.37.67-.55,1.01-.13.25.25.47.38.22h0Z"/>
          <path class="cls-3" d="m12.13,230.6c.57-1.69,2.59-2.21,4.18-1.88.9.19,1.69.62,2.3,1.3.76.85,1.22,1.92,1.46,3.03.28,1.29.27,2.63.13,3.94-.01.14.15.26.28.21,1.62-.62,3.41-.33,4.89.52,1.47.84,2.67,2.22,3.14,3.86.45,1.57.12,3.22-.87,4.51-.93,1.21-2.32,2.05-3.8,2.41-1.47.36-3.09.24-4.4-.55-.17-.1-.33-.21-.48-.33-.23-.17-.45.21-.22.38,1.32,1,3.02,1.3,4.63,1.04,1.62-.25,3.18-1.06,4.28-2.28,1.15-1.27,1.71-2.96,1.43-4.67-.29-1.79-1.46-3.37-2.93-4.4-1.48-1.04-3.38-1.55-5.16-1.12-.22.05-.43.12-.64.2.09.07.19.14.28.21.26-2.4.06-5.1-1.52-7.05-.64-.79-1.49-1.35-2.48-1.6-.92-.23-1.92-.22-2.81.09-.98.34-1.78,1.05-2.12,2.05-.09.27.34.39.43.12h0Z"/>
          <path class="cls-3" d="m27.96,146.78c1.14-1.85,3.66-1.46,5.21-.4.85.58,1.55,1.43,1.81,2.44.38,1.46.1,3.02-.5,4.37-.72,1.63-1.85,3.06-3.1,4.32-.15.16,0,.43.21.37,3.2-.88,6.75.45,8.82,2.99,1.03,1.27,1.63,2.84,1.7,4.47.07,1.62-.35,3.24-1.15,4.65-.89,1.58-2.26,2.9-3.94,3.6-.26.11-.15.53.12.43,1.59-.66,2.91-1.81,3.86-3.23.94-1.42,1.5-3.11,1.56-4.81.06-1.73-.42-3.44-1.41-4.86-.98-1.42-2.39-2.53-3.97-3.2-1.59-.68-3.36-.92-5.06-.6-.21.04-.42.09-.63.15.07.12.14.25.21.37,2.25-2.27,4.4-5.41,3.78-8.77-.42-2.26-2.66-3.94-4.92-4.01-1.21-.04-2.35.47-3,1.52-.15.24.23.46.38.22h0Z"/>
          <path class="cls-3" d="m1180.56,251.6c-1.05-1.19-2.53-1.8-4.1-1.79-1.66,0-3.29.59-4.72,1.39-1.53.85-2.93,1.99-4.05,3.34-1.32,1.57-2.43,3.34-3.29,5.2-.86,1.88-1.46,3.88-1.65,5.94-.17,1.94.02,3.96.74,5.78.66,1.65,1.69,3.14,3,4.34,1.28,1.17,2.84,2.08,4.53,2.5,1.58.39,3.32.35,4.83-.28,1.26-.53,2.3-1.46,3.07-2.59.77-1.12,1.26-2.44,1.44-3.79.17-1.3.03-2.65-.53-3.84-.27-.58-.64-1.11-1.1-1.55-.24-.24-.51-.45-.79-.63-.08-.05-.16-.12-.26-.1-.1.01-.21.08-.3.12-.18.09-.36.18-.54.28-1.37.77-2.54,1.88-3.43,3.17-.9,1.3-1.54,2.8-1.86,4.35-.32,1.54-.34,3.15-.01,4.69.33,1.55,1.04,3.01,2.07,4.22,1.02,1.2,2.33,2.14,3.77,2.79,1.45.65,3.02,1.01,4.61,1.05,1.58.05,3.17-.23,4.63-.85.7-.3,1.37-.68,1.98-1.14.22-.17,0-.55-.22-.38-1.84,1.38-4.13,2-6.41,1.93-2.28-.07-4.55-.82-6.39-2.17-1.84-1.36-3.13-3.33-3.61-5.56-.48-2.22-.19-4.58.7-6.66.89-2.09,2.41-3.93,4.4-5.05.25-.14.5-.26.75-.38h-.22c1.32.83,2.11,2.22,2.33,3.74.22,1.56-.12,3.21-.83,4.61-.72,1.43-1.87,2.66-3.35,3.31-1.8.79-3.94.63-5.74-.07-1.96-.76-3.67-2.2-4.87-3.91-.61-.87-1.1-1.82-1.43-2.82-.37-1.11-.54-2.27-.57-3.44-.07-2.48.55-4.95,1.57-7.2.51-1.14,1.13-2.24,1.82-3.28.63-.96,1.32-1.89,2.12-2.72,1.45-1.5,3.26-2.74,5.24-3.42,1.73-.59,3.73-.73,5.33.3.39.25.73.56,1.03.9.19.21.5-.1.31-.31h0Z"/>
          <path class="cls-3" d="m1190.18,229.48c-1.6.67-2.94,1.8-3.93,3.22-.99,1.4-1.62,3.05-1.86,4.75-.24,1.69-.11,3.45.51,5.05.31.81.73,1.57,1.26,2.25.55.7,1.28,1.26,2.07,1.65,1.41.69,3.43,1,4.61-.31.14-.15.26-.32.36-.49.12-.2-.11-.39-.3-.3-1.62.78-2.6,2.63-2.48,4.41.13,1.85,1.51,3.32,3.27,3.8.98.27,2.03.21,2.96-.2.26-.12.03-.5-.22-.38-1.48.66-3.32.23-4.46-.88-1.2-1.16-1.4-2.96-.71-4.44.39-.83,1.03-1.53,1.87-1.93-.1-.1-.2-.2-.3-.3-.84,1.44-2.67,1.35-4.03.79-.77-.32-1.49-.8-2.05-1.42-.54-.59-.96-1.31-1.28-2.05-.64-1.47-.84-3.11-.68-4.7.15-1.61.69-3.19,1.54-4.57.85-1.37,2.03-2.53,3.46-3.26.18-.09.36-.18.54-.25.11-.05.19-.15.15-.27-.03-.1-.16-.2-.27-.15h0Z"/>
          <path class="cls-3" d="m630.71,251.44c.58-2.87,2.14-5.51,4.35-7.43.62-.54,1.29-1.02,2-1.43-.06,0-.11.01-.17.02,1.97.53,3.46,2.05,4.27,3.88.81,1.82.98,3.97.35,5.86-.36,1.07-.99,2.02-1.85,2.74h.31c-1.37-1.76-1.33-4.11-.73-6.16.32-1.09.79-2.14,1.35-3.12.56-.98,1.21-1.95,2.03-2.73.78-.76,1.78-1.33,2.89-1.36.99-.03,1.95.37,2.73.96.83.64,1.48,1.5,1.92,2.45.47,1.03.61,2.13.52,3.25-.2,2.56-1.5,4.89-2.81,7.05-.17.27-.33.54-.5.81.14.04.27.07.41.11.42-3.72.91-7.52,2.36-10.99.69-1.65,1.61-3.25,2.84-4.56,1.06-1.13,2.36-2.02,3.77-2.65,2.67-1.18,5.99-1.44,8.53.21,2.89,1.87,3.72,5.58,3.14,8.79-.69,3.81-3.26,6.94-5.87,9.66-.34.36-.68.71-1.03,1.06-.2.2.11.51.31.31,2.76-2.8,5.64-5.89,6.75-9.77.94-3.29.51-7.27-2.12-9.69-2.33-2.14-5.74-2.36-8.65-1.44-1.53.49-2.97,1.27-4.2,2.31-1.36,1.14-2.41,2.62-3.22,4.19-1.79,3.45-2.43,7.36-2.9,11.18-.06.47-.11.93-.16,1.4-.03.23.31.28.41.11,1.41-2.26,2.87-4.65,3.29-7.32.19-1.2.17-2.44-.23-3.6-.37-1.06-.99-2.04-1.8-2.8-.77-.72-1.73-1.28-2.79-1.43-1.13-.16-2.24.17-3.16.83-.98.71-1.73,1.69-2.38,2.7-.65,1.01-1.2,2.08-1.6,3.21-.76,2.12-1.04,4.62.13,6.65.14.24.3.47.47.69.08.1.23.07.31,0,1.24-1.04,2-2.54,2.25-4.13.25-1.6.04-3.27-.58-4.77-.62-1.48-1.64-2.81-3.03-3.65-.35-.21-.71-.38-1.09-.52-.17-.06-.43-.19-.61-.17-.12.02-.25.12-.35.19-.12.07-.24.15-.36.23-.93.61-1.78,1.33-2.53,2.14-1.51,1.63-2.63,3.63-3.21,5.78-.07.27-.13.54-.19.81-.06.28.37.4.43.12h0Z"/>
          <path class="cls-3" d="m665.23,263.08c1.13-2.52,5.02-3.22,6.88-1.12.9,1.02,1.1,2.51.77,3.8-.17.64-.46,1.26-.89,1.77-.22.26-.47.49-.75.68-.22.15-.5.36-.78.3-.47-.1-.46-.86-.41-1.22.04-.3.14-.6.28-.87.18-.32.45-.57.72-.82,1.31-1.18,3.01-1.95,4.77-2.1,1.71-.15,3.42.3,4.74,1.41,1.23,1.03,2.12,2.54,2.27,4.16.07.78-.03,1.59-.34,2.32-.3.69-.77,1.31-1.33,1.8-1.09.95-2.62,1.52-4.07,1.26-.35-.06-.69-.17-1.01-.32-.26-.12-.48.26-.22.38,1.51.71,3.26.49,4.67-.33,1.45-.84,2.51-2.27,2.73-3.95.23-1.76-.45-3.55-1.6-4.87-1.22-1.41-2.95-2.23-4.81-2.32-1.92-.09-3.87.55-5.41,1.69-.67.49-1.35,1.04-1.65,1.84-.22.58-.32,1.34-.01,1.92.13.24.35.43.62.47.37.06.69-.11.99-.31.63-.4,1.14-.98,1.48-1.64.71-1.33.81-2.99.18-4.38-.65-1.42-2.07-2.24-3.59-2.33-1.48-.09-3.06.48-4.03,1.63-.24.28-.44.6-.59.94-.12.26.27.48.38.22h0Z"/>
          <path class="cls-3" d="m642.97,267.48c.56-1.77,1.27-4.04,3.19-4.76.74-.28,1.63-.35,2.36,0,.85.42,1.23,1.32,1.13,2.23-.13,1.18-.83,2.26-1.51,3.2-.14.2.13.38.3.3,1.45-.64,2.95-1.29,4.54-1.48,1.29-.15,2.68,0,3.71.87.78.65,1.38,1.6,1.49,2.62.05.47,0,.96-.22,1.39-.25.5-.68.86-1.17,1.12-1.23.64-2.68.68-3.79,1.57.07-.02.14-.04.21-.06-.79-.25-1.4-.92-1.6-1.72-.07-.28-.49-.16-.43.12.19.75.69,1.41,1.37,1.79.16.09.36.2.54.23.18.03.36-.17.51-.26.31-.19.64-.33.98-.45,1.32-.46,2.96-.69,3.71-2.03.62-1.12.33-2.5-.33-3.53-.35-.56-.82-1.04-1.37-1.41-.64-.43-1.38-.63-2.14-.71-2.18-.22-4.29.7-6.24,1.56l.3.3c.67-.93,1.33-1.97,1.53-3.11.18-1.02-.1-2.08-.96-2.71-.74-.54-1.74-.61-2.61-.39-1,.24-1.79.87-2.38,1.69-.76,1.04-1.17,2.3-1.55,3.51-.09.27.34.39.43.12h0Z"/>
          <path class="cls-3" d="m195.9,238.51c-.54-1.8-2.42-2.77-4.2-2.83-2.18-.07-4.09,1.28-5.52,2.8-.79.84-1.52,1.76-2.15,2.74-.64,1-1.18,2.1-1.43,3.26-.22,1.05-.23,2.21.2,3.21.32.74.9,1.36,1.57,1.8,1.25.82,3.12,1.13,4.3.01.14-.13.26-.29.37-.44.04-.06.04-.16,0-.22-1.01-1.61-3.12-1.28-4.62-.65-.91.37-1.72.9-2.52,1.45-.91.62-1.79,1.28-2.58,2.04-1.43,1.37-2.54,3.13-2.59,5.15-.04,1.67.61,3.49,2.07,4.42.69.44,1.49.62,2.29.44.77-.17,1.47-.63,1.99-1.21.5-.56.86-1.26.9-2.02.04-.82-.37-1.55-1.03-2.02-.83-.6-1.94-.71-2.93-.57-.93.13-1.81.49-2.58,1.03-1.53,1.07-2.63,2.77-2.89,4.63-.26,1.86.4,3.69,1.71,5.02,1.28,1.31,3.12,2.12,4.96,2.07.44-.01.89-.07,1.32-.19.27-.07.16-.5-.12-.43-1.65.43-3.41.02-4.82-.92-1.4-.93-2.46-2.43-2.65-4.12-.19-1.72.47-3.46,1.62-4.73,1.17-1.3,2.91-2.16,4.68-1.95.84.1,1.71.5,2.1,1.29.28.58.18,1.27-.09,1.83-.59,1.21-2.04,2.22-3.43,1.85-1.54-.41-2.41-1.97-2.63-3.45-.12-.79-.06-1.6.15-2.37.25-.89.75-1.72,1.33-2.44.64-.79,1.39-1.47,2.19-2.09.77-.6,1.59-1.17,2.43-1.67.74-.44,1.54-.8,2.37-.99.71-.17,1.53-.23,2.19.11.32.17.58.41.77.72v-.22c-.84,1.22-2.5,1.12-3.68.5-.65-.34-1.22-.84-1.6-1.48-.48-.81-.56-1.83-.44-2.74.14-1.1.58-2.14,1.13-3.09.55-.95,1.21-1.84,1.93-2.67,1.28-1.48,2.96-2.97,4.99-3.19,1.6-.18,3.48.44,4.28,1.93.09.18.17.36.23.55.08.27.51.16.43-.12h0Z"/>
          <path class="cls-3" d="m208.22,244.11c-.07-1.43-1.61-2.3-2.94-2.16-1.68.18-2.9,1.65-3.76,2.97-.99,1.5-1.73,3.25-1.73,5.07,0,1.54.63,3.08,1.79,4.11.55.49,1.22.85,1.95.99.73.14,1.47.03,2.14-.29,1.27-.61,2.27-1.99,2.03-3.44-.03-.18-.06-.39-.22-.49-.14-.08-.31-.15-.47-.2-.3-.1-.61-.14-.93-.13-.65.01-1.29.23-1.84.58-1.1.7-1.9,1.97-1.68,3.31.4,2.38,3.74,3.26,5.52,1.85.22-.17.4-.38.56-.61.16-.23-.22-.46-.38-.22-.94,1.37-3.03,1.33-4.27.44-.67-.48-1.07-1.25-1.02-2.07.05-.92.66-1.75,1.4-2.25.86-.58,1.98-.8,2.92-.28-.03-.04-.07-.09-.1-.13.47,1.53-.79,3.04-2.21,3.46-1.58.46-3.13-.53-3.95-1.84-.43-.68-.7-1.46-.77-2.26-.09-.99.08-1.97.41-2.91.32-.93.8-1.79,1.34-2.61.5-.74,1.07-1.46,1.8-1.98.74-.52,1.63-.79,2.52-.51.73.23,1.41.81,1.45,1.61.01.28.46.28.44,0h0Z"/>
          <path class="cls-3" d="m222.08,249.36c.94-1.51,2.37-2.84,4.1-3.38,1.53-.48,3.18-.19,4.37.91,1.08,1,1.68,2.46,1.83,3.91.18,1.71-.31,3.36-1.14,4.85-1.05,1.88-2.56,3.45-4.08,4.96.09-.01.18-.02.27-.03-1.01-.73-1.06-2.19-.57-3.23.26-.54.65-1.02,1.18-1.32.63-.35,1.4-.42,2.1-.29,1.54.3,2.83,1.46,3.37,2.92.65,1.75.4,3.72-.22,5.44-.27.74-.65,1.52-1.3,2-.56.41-1.26.48-1.87.12-.25-.15-.48-.38-.55-.67-.09-.35.05-.71.29-.97.5-.54,1.3-.76,2.02-.75,1.44,0,2.84.89,3.57,2.11.79,1.32.66,2.95-.08,4.26-.78,1.38-2.13,2.34-3.7,2.59-1.63.26-3.33-.26-4.66-1.21-.33-.24-.64-.51-.92-.81-.2-.21-.51.11-.31.31,1.26,1.33,3.06,2.17,4.9,2.21,1.8.04,3.5-.75,4.6-2.17,1.03-1.33,1.5-3.18.85-4.78-.6-1.47-2-2.62-3.58-2.88-.81-.14-1.68-.04-2.41.36-.72.4-1.3,1.21-.94,2.05.3.68,1.1,1.06,1.82,1.05.86-.02,1.56-.63,2.02-1.31.52-.78.83-1.73,1.04-2.64.23-1.01.32-2.07.17-3.1-.13-.94-.46-1.87-1.03-2.63-.51-.67-1.19-1.23-1.96-1.58-1.44-.65-3.26-.56-4.32.73-.85,1.04-1.18,2.68-.44,3.87.18.29.41.52.68.72.08.06.2.03.27-.03,1.43-1.42,2.85-2.9,3.91-4.63.94-1.54,1.57-3.3,1.47-5.12-.09-1.57-.65-3.16-1.74-4.33-1.15-1.23-2.82-1.76-4.47-1.43-2.09.41-3.84,1.98-4.94,3.74-.15.24.23.46.38.22h0Z"/>
          <path class="cls-3" d="m200.97,268.15c.74,2.53,3.51,4.14,6.09,3.87,1.3-.13,2.5-.75,3.32-1.78.81-1.02,1.24-2.32,1.26-3.62.02-1.45-.48-2.91-1.53-3.93-.09-.09-.29-.09-.35.04-1.05,2.27.63,4.98,2.92,5.62,1.34.38,2.77.15,4.01-.43,1.31-.61,2.37-1.61,3.19-2.78.96-1.38,1.58-2.98,2.08-4.58.08-.27-.34-.39-.43-.12-.8,2.58-2,5.3-4.41,6.75-1.09.66-2.39,1.03-3.67.87-1.14-.14-2.16-.75-2.83-1.69-.7-.98-1.01-2.29-.48-3.42l-.35.04c1.73,1.7,1.8,4.62.51,6.59-.66,1.01-1.7,1.71-2.89,1.93-1.17.22-2.42,0-3.47-.55-1.2-.61-2.17-1.65-2.55-2.95-.08-.27-.51-.16-.43.12h0Z"/>
          <path class="cls-3" d="m1182.33,405.34c-2.74-1.53-6.16-.68-8.49,1.21-2.67,2.17-3.79,5.69-4.19,8.99-.21,1.71-.27,3.46-.12,5.18.15,1.69.52,3.38,1.28,4.91.69,1.38,1.68,2.59,3.01,3.4,1.2.74,2.63,1.17,4.05,1.15,1.37-.02,2.75-.5,3.73-1.49.81-.82,1.16-1.98,1.13-3.11-.06-2.11-1.51-4.63-3.89-4.51-1.66.08-3.05,1.31-4.07,2.52-.98,1.15-1.72,2.48-2.22,3.91-.97,2.78-.97,5.96.3,8.65.6,1.27,1.49,2.38,2.61,3.24,1.06.81,2.31,1.37,3.61,1.68,2.55.6,5.43.26,7.56-1.33.51-.38.97-.82,1.37-1.32.17-.22-.14-.53-.31-.31-1.58,1.99-4.11,2.89-6.6,2.8-2.52-.09-5.05-1.17-6.69-3.12-1.8-2.16-2.39-5.14-1.99-7.88.21-1.42.66-2.8,1.35-4.06.7-1.29,1.64-2.5,2.82-3.39,1.02-.77,2.37-1.28,3.59-.67.91.45,1.53,1.35,1.85,2.29.34,1,.4,2.12.03,3.12-.41,1.12-1.41,1.91-2.51,2.28-2.55.86-5.56-.3-7.22-2.32-2.09-2.54-2.5-6.03-2.39-9.21.11-3.26.72-6.7,2.67-9.39,1.69-2.33,4.68-3.95,7.6-3.48.68.11,1.33.33,1.93.66.25.14.47-.24.22-.38h0Z"/>
          <path class="cls-3" d="m1181.95,367.31c-3.01.48-5.24,3.06-6.48,5.68-1.34,2.83-1.79,6.24-.64,9.21,1,2.59,3.26,4.63,5.97,5.3,1.3.32,2.7.31,3.97-.14,1.14-.4,2.1-1.18,2.81-2.14,1.38-1.85,1.89-4.54.71-6.62-.14-.25-.31-.49-.5-.72.02.05.04.1.06.16,0-.35-.13-.7-.46-.86-.33-.16-.74-.11-1.08,0-.42.12-.81.34-1.16.61-.4.31-.66.7-.9,1.13-1.31,2.33-2.43,4.96-2.37,7.68.02.66.11,1.33.28,1.97.11.4.24.78.46,1.13.41.66.99,1.19,1.62,1.62,1.45,1.01,3.22,1.59,4.96,1.81,1.49.19,3.28.14,4.54-.81.14-.1.27-.22.39-.34.2-.2-.11-.52-.31-.31-1.13,1.17-3.05,1.21-4.55,1.03-1.8-.22-3.68-.86-5.12-1.99-.58-.46-1.13-1.03-1.39-1.73-.48-1.27-.52-2.71-.32-4.04.22-1.45.72-2.84,1.35-4.16.31-.65.65-1.29,1.01-1.92.23-.4.56-.72.96-.96.34-.21.76-.39,1.17-.38.33,0,.48.16.5.48,0,.14.08.21.17.32.08.11.15.22.22.33.13.2.24.42.33.64.18.44.3.91.34,1.38.18,1.98-.71,4.03-2.22,5.32-1.71,1.45-4.13,1.58-6.17.82-2.23-.82-4.05-2.63-4.87-4.85-.95-2.56-.7-5.42.28-7.93.91-2.34,2.54-4.65,4.85-5.77.55-.26,1.13-.44,1.73-.54.28-.04.16-.47-.12-.43h0Z"/>
          <path class="cls-3" d="m1176.43,448.26c-1.84-.21-3.56.9-4.52,2.41-.48.76-.78,1.65-.82,2.55-.04.89.21,1.78.66,2.54.9,1.52,2.57,2.54,4.31,2.8.88.13,1.79.07,2.63-.21.89-.3,1.69-.82,2.36-1.48,1.34-1.33,2.12-3.22,2.12-5.1,0-.24-.01-.48-.04-.72-.03-.28-.44-.29-.44,0-.04,3.06,2.8,5.56,5.72,5.84.83.08,1.67-.03,2.44-.35.26-.11.15-.53-.12-.43-2.62,1.08-5.79-.43-7.06-2.85-.36-.68-.55-1.44-.54-2.21h-.44c.19,1.75-.34,3.56-1.44,4.94-1.08,1.35-2.68,2.24-4.44,2.2-1.63-.04-3.25-.81-4.28-2.07-.51-.63-.87-1.41-.97-2.21-.1-.83.06-1.68.42-2.43.69-1.47,2.14-2.72,3.82-2.8.21-.01.42,0,.63.02.28.03.28-.41,0-.44h0Z"/>
          <path class="cls-3" d="m10.62,378.14c1.73,1.81,4.28,2.47,6.73,2.16,2.5-.32,4.91-1.56,6.57-3.47,1.87-2.15,2.5-5.06,2.12-7.85-.41-3.03-1.96-5.87-4.1-8.04-1.1-1.11-2.4-2.14-3.83-2.79-.75-.34-1.6-.56-2.42-.35-.48.13-.92.41-1.24.79-1.38,1.65-.93,4.66.96,5.74,2.82,1.6,6.33-.22,8.18-2.47,1.54-1.88,2.31-4.27,2.36-6.68.05-2.44-.59-4.91-1.8-7.03-1.18-2.07-2.96-3.85-5.17-4.82-.55-.24-1.12-.43-1.7-.57-.23-.05-.41.3-.17.4,1.81.79,4.17-.36,4.59-2.31.06-.28-.37-.39-.43-.12-.36,1.65-2.38,2.73-3.94,2.05-.06.13-.11.27-.17.4,2.25.53,4.2,1.9,5.62,3.71,1.42,1.82,2.32,4.06,2.62,6.35.29,2.25,0,4.62-1.04,6.66-.56,1.09-1.34,2.08-2.29,2.87-1.15.95-2.62,1.66-4.14,1.72-1.23.05-2.58-.37-3.26-1.46-.54-.85-.7-1.95-.47-2.92.21-.91.81-1.73,1.77-1.91.84-.15,1.7.2,2.42.6.66.36,1.29.78,1.88,1.25,2.3,1.82,4.09,4.34,4.93,7.15.79,2.62.73,5.64-.67,8.05-1.21,2.07-3.3,3.57-5.57,4.27-2.2.67-4.7.62-6.7-.6-.49-.3-.93-.66-1.32-1.07-.2-.21-.51.11-.31.31h0Z"/>
          <path class="cls-11" d="m76.01,247.33c-.9-2.54.93-5.32,3.29-6.25,2.91-1.15,6.27.09,8.62,1.92,1.94,1.51,3.41,3.56,4.32,5.83.92,2.29,1.31,4.79,1.12,7.25-.19,2.44-.95,4.84-2.33,6.87-.17.26-.36.51-.55.75.09-.01.18-.02.27-.03-2.12-.91-3.14-3.13-3.16-5.35-.02-2.24.95-4.61,2.87-5.88,2.36-1.55,5.42-1.45,7.95-.39,1.3.55,2.5,1.35,3.5,2.35,1.1,1.11,1.93,2.48,2.51,3.93,1.23,3.11,1.33,6.59.79,9.86-.07.4-.14.81-.23,1.21-.06.28.36.39.43.12.65-2.79,2.38-5.29,4.72-6.94,2.33-1.64,5.23-2.39,8.05-1.78,2.74.59,5.25,2.3,6.72,4.7.72,1.17,1.18,2.51,1.27,3.89.09,1.35-.17,2.7-.68,3.96-1,2.46-3.07,4.57-5.66,5.31-.33.09-.66.16-.99.22-.28.04-.16.47.12.43,2.81-.43,5.19-2.38,6.5-4.85,1.35-2.54,1.55-5.54.35-8.17-1.22-2.65-3.66-4.67-6.41-5.59-2.86-.95-5.94-.56-8.54.93-2.58,1.47-4.6,3.92-5.55,6.73-.12.35-.22.71-.3,1.07.14.04.28.08.43.12.71-3.39.82-7.02-.23-10.36-.5-1.59-1.27-3.12-2.35-4.4-.95-1.14-2.15-2.07-3.47-2.75-2.56-1.31-5.71-1.68-8.36-.39-2.28,1.11-3.59,3.44-3.82,5.91-.21,2.29.57,4.79,2.56,6.1.25.16.51.3.78.42.08.04.2.05.27-.03,1.61-2.04,2.58-4.49,2.91-7.05.34-2.57.05-5.23-.82-7.67-.87-2.42-2.32-4.65-4.3-6.32-2.37-1.99-5.67-3.35-8.78-2.53-2.56.68-4.78,3.28-4.46,6.02.04.34.11.66.23.98.09.27.52.15.43-.12h0Z"/>
          <path class="cls-11" d="m67.89,259.49c.11-.42.08-.86-.13-1.25-.21-.38-.57-.66-.94-.86-.88-.46-1.95-.58-2.92-.44-.56.08-1.1.27-1.62.47-.57.22-1.12.47-1.65.76-1.06.58-2.05,1.3-2.92,2.15-1.7,1.66-2.92,3.84-3.16,6.22-.23,2.36.73,4.68,2.36,6.36,1.57,1.61,3.82,2.64,6.1,2.27.28-.05.56-.12.83-.2.27-.09.16-.47-.12-.43-2.48.44-3.54,3.16-3.31,5.42.13,1.25.62,2.42,1.49,3.34,1.08,1.14,2.52,1.87,4.02,2.29,1.75.49,3.59.59,5.4.52.28-.01.28-.45,0-.44-2.93.11-6.28-.19-8.6-2.19-.48-.42-.91-.89-1.22-1.45-.28-.49-.46-1.03-.57-1.58-.21-1.09-.12-2.27.32-3.3.48-1.11,1.38-1.96,2.59-2.18-.04-.14-.08-.28-.12-.43-2.07.67-4.28-.02-5.9-1.39-1.65-1.39-2.8-3.46-2.87-5.64-.07-2.24.9-4.42,2.34-6.1,1.48-1.73,3.47-3.03,5.62-3.75.47-.16.93-.28,1.43-.31.48-.03.96.01,1.42.12.7.17,1.6.56,1.74,1.36.03.18,0,.37-.04.55-.07.28.36.39.43.12h0Z"/>
          <path class="cls-11" d="m1125.75,152.96c1.14-.65,1.31-2.11.87-3.24-.23-.6-.62-1.13-1.15-1.5-.69-.47-1.54-.67-2.36-.7-1.68-.07-3.37.48-4.91,1.09-1.48.59-2.89,1.34-4.19,2.26-2.52,1.79-4.62,4.23-5.64,7.19-.92,2.68-.71,5.62.45,8.19,1.1,2.45,3.11,4.56,5.73,5.34.32.09.64.17.97.22.13.02.3-.06.28-.21-.32-3.18-4.05-3.83-6.65-3.66-1.67.11-3.28.58-4.86,1.1-1.76.58-3.48,1.28-5.1,2.17-3.14,1.71-5.94,4.2-7.35,7.54-1.19,2.82-.77,6.16.67,8.81,1.35,2.49,3.8,4.58,6.77,4.51.36,0,.72-.05,1.08-.12.28-.05.16-.48-.12-.43-1.34.25-2.72.03-3.92-.61-1.2-.64-2.2-1.64-2.94-2.77-1.58-2.4-2.24-5.54-1.44-8.33.45-1.57,1.35-3.02,2.41-4.25,1.11-1.3,2.45-2.38,3.9-3.29,1.51-.95,3.13-1.71,4.8-2.33.83-.31,1.66-.59,2.51-.83.76-.22,1.53-.44,2.31-.58,1.42-.25,2.93-.27,4.33.06,1.2.29,2.45.9,2.95,2.1.12.29.19.59.22.9.09-.07.19-.14.28-.21-2.56-.41-4.65-2.13-5.92-4.34-1.3-2.25-1.82-5.01-1.29-7.57.6-2.86,2.36-5.37,4.55-7.25,2.28-1.95,5.13-3.4,8.06-4.05,1.45-.32,3.36-.44,4.51.69.79.77,1.18,2.2.56,3.18-.15.23-.35.41-.58.54-.25.14-.02.52.22.38h0Z"/>
          <path class="cls-11" d="m1140.19,164.42c.18-1.8,2.3-2.2,3.76-1.85.84.2,1.66.64,2.18,1.34.79,1.07.96,2.53.86,3.83-.13,1.66-.68,3.27-1.26,4.83-.08.23.22.34.37.21,1.65-1.39,3.74-2.33,5.89-2.54,2.08-.21,4.2.28,5.87,1.58,1.54,1.2,2.7,3,2.92,4.96.1.94,0,1.9-.36,2.78-.34.83-.9,1.58-1.56,2.18-1.3,1.17-3.16,1.86-4.91,1.45-.22-.05-.43-.12-.64-.2-.27-.1-.38.32-.12.43,1.81.7,3.86.22,5.39-.89,1.59-1.16,2.65-2.95,2.68-4.94.04-2.1-.97-4.13-2.48-5.56-1.6-1.52-3.73-2.3-5.93-2.28-2.29.02-4.56.85-6.41,2.2-.23.17-.45.34-.66.52.12.07.25.14.37.21.55-1.49,1.06-3.02,1.24-4.61.16-1.43.01-3.01-.79-4.25-1.03-1.58-3.36-2.23-5.11-1.58-.97.36-1.65,1.13-1.75,2.18-.03.28.41.28.44,0h0Z"/>
        </g>
      </g>
    </g>
  </g>
</svg>