<?xml version="1.0" encoding="UTF-8"?>
<svg id="Capa_2" data-name="Capa 2" xmlns="http://www.w3.org/2000/svg" viewBox="0 0 1095.87 430.09">
  <defs>
    <style>
      .cls-1 {
        fill: #37563c;
      }

      .cls-2 {
        fill: #fef1e1;
      }

      .cls-3 {
        fill: #5d8664;
      }

      .cls-4 {
        fill: #95b56a;
      }

      .cls-5 {
        fill: #b9cfea;
      }

      .cls-6 {
        fill: #d7e7ff;
      }
    </style>
  </defs>
  <g id="_Ñëîé_1" data-name="Ñëîé 1">
    <g id="Capa_1-2" data-name="Capa 1">
      <path class="cls-3" d="m228.35,120.61c.06-4.82.11-9.76-1.44-14.33s-5.04-8.78-9.75-9.83c-4.71-1.06-10.33,2.11-10.75,6.92,2.45-3.28-.42-7.94-3.69-10.41-2.49-1.89-5.52-3.43-8.62-3.04-3.1.39-5.97,3.43-5.19,6.46,1.76-4.27-1.89-9.27-6.35-10.46-4.46-1.19-9.19.4-13.33,2.44-2.33,1.15-4.74,2.61-5.79,4.99-1.06,2.38.04,5.82,2.6,6.24-3.13-3.04-8.32-.82-11.9,1.68-2.96,2.07-5.98,4.47-7.15,7.89-1.17,3.42.47,8,4.02,8.65-5.19,2.11-7.21,9.6-3.79,14.04,3.42,4.44,11.17,4.4,14.54-.07-2.07-.73-4.23,1.62-4.02,3.81.21,2.19,1.97,3.92,3.85,5.05,6.79,4.08,16.49,2.28,21.37-3.96,16.03,2.37,32.51,1.68,48.28-2l-2.9-14.05Z"/>
      <path class="cls-5" d="m690.29,140.46v-60.46l27.98-16.88v79.38h5.81v-58.49h31.32v62.4h8.34V56.2h16.83v-20.72h10.01v19.75h10.15v87.27l-110.45-2.04Z"/>
      <path class="cls-3" d="m561.23,138.7c-2.99-8.41-3.77-17.6-2.25-26.4.2-1.17.54-2.47,1.57-3.06,1.49-.85,3.3.34,4.49,1.56,2.41,2.46,4.37,5.37,5.75,8.52-2.56-9.13.12-19.54,6.77-26.3.89-.91,1.91-1.79,3.15-2.08,2.29-.53,4.62,1.18,5.6,3.31.98,2.13.94,4.58.88,6.93-.6-6.26,1.11-12.72,4.73-17.86.88-1.24,1.91-2.45,3.29-3.08,3.74-1.7,8.16,1.81,9,5.82.84,4.02-.76,8.1-2.33,11.89,1.81-3.49,3.76-7.13,7.08-9.23,3.32-2.1,8.43-1.91,10.48,1.44,2.21,3.6-.18,8.17-2.52,11.69,3.76-2.4,9.53-4.46,11.99-.74,1.59,2.4.41,5.68-1.31,7.99s-4,4.33-4.84,7.09c1.09-3.84,7.4-4.2,9.4-.74,2,3.46-.56,8.37-4.43,9.35,2.07-2.81,7.22-1.83,8.47,1.43,1.25,3.26-1.39,7.22-4.84,7.75,1.82-1.66,5.22-1,6.21,1.26.99,2.26-.93,5.25-3.39,5.21l-72.96-1.76Z"/>
      <path class="cls-5" d="m804.73,141.31v-51.83l23.98-14.47v68.04h15.35v-50.14h26.85v53.49h16.37v-77.32h14.43v-17.76h8.58v16.93h8.7v74.8l-114.27-1.75Z"/>
      <rect class="cls-4" y="134.82" width="1095.87" height="295.27"/>
      <path class="cls-3" d="m0,40.2C2.98,26.19,5.96,13.28,17.07,4.24c2.04-1.66,4.26-3.23,6.8-3.89,9.27-2.4,17,7.88,18.87,17.27,2.78,13.93-.92,29.01-9.82,40.07,5.03-8.31,13.43-14.5,22.85-16.85,2.57-.64,5.32-1,7.86-.22,5.4,1.67,8.08,8.14,7.37,13.75-.71,5.61-3.95,10.52-7.11,15.21,5.02-7.17,14.5-12.17,22.61-8.9,8.12,3.27,10.21,17,2.19,20.49,5.25-4.08,13.23-4.18,18.58-.23,5.35,3.95,7.6,11.61,5.25,17.83,6.69-5.37,18.48,2.93,15.68,11.04,4.74-.57,9.12,3.26,10.82,7.73,1.69,4.47,1.33,9.41.95,14.18-.42,5.18-.9,10.57-3.58,15.01-4.11,6.82-12.29,9.81-19.85,12.31-2.84.94-5.85,1.9-8.78,1.29-2.93-.61-5.64-3.4-5.01-6.33-16.68,2.82-33.74.45-50.49-1.92-16.83-2.38-35.43-4.77-52.26-7.15V40.2Z"/>
      <path class="cls-3" d="m1095.87,15.46c-2-8.16-9.57-13.07-16.77-8.75-7.2,4.32-7.39,16.78-.02,20.82-6.92-5.69-18.43-4.48-24.02,2.52-5.59,7-4.22,18.49,2.86,23.98-4.47-3.68-11.99-1.58-14.85,3.45-2.86,5.03-1.49,11.74,2.28,16.14,3.77,4.4,9.48,6.73,15.2,7.61-7.13-.41-11.16,9.32-8.22,15.82,2.94,6.51,9.8,10.16,16.19,13.35-5.01-3.38-12.29-2.88-16.79,1.16s-5.79,11.22-2.97,16.57c-5.52-5.64-16.5-2.84-19.52,4.46-3.02,7.29,1.66,16.41,9.03,19.23,2.08.8,5.62-.44,4.48-2.36-2.27,3.1-.22,7.83,3.13,9.71,3.35,1.89,7.43,1.74,11.27,1.54,13.64-.7,25.1-1.4,38.73-2.11V15.46Z"/>
      <path class="cls-6" d="m588.85,167.6c-8.34.87-16.35,3.75-23.33,8.39-17.57,11.67-34.06,24.95-49.2,39.63-7.84,7.6-15.56,15.96-17.38,27.17-.71,4.37-.27,8.9,1.59,12.91,5.18,11.19,17.11,12.27,27.64,11.61,13.17-.83,26.21-3.6,38.57-8.19,15.5-5.76,30.48-14.49,47-14.89,16.58-.4,31.99,7.64,47.73,12.88,18.71,6.23,38.7,8.58,58.35,6.88,15.14-1.31,30.87-5.46,41.6-16.22,10.74-10.76,14.43-29.55,4.8-41.3-8.74-10.67-24.16-12.05-37.74-14.45-23.61-4.18-45.87-13.76-68.85-20.59-22.98-6.83-47.85-10.87-70.77-3.82h0Z"/>
      <path class="cls-2" d="m337.87,208.5c-24.19,8.61-60.23,46.42-125.45,4.97-27.29-17.35-27.29-78.66-27.29-78.66h-8.83s3.17,54.41,20.21,74.35c13.61,15.93,33.97,24.97,54.64,28.34,20.68,3.37,41.84,1.55,62.6-1.23l24.13-27.79Z"/>
      <path class="cls-2" d="m337.87,208.5c-24.19,8.61-60.23,46.42-125.45,4.97-27.29-17.35-27.29-78.66-27.29-78.66h-8.83s3.17,54.41,20.21,74.35c13.61,15.93,33.97,24.97,54.64,28.34,20.68,3.37,41.84,1.55,62.6-1.23l24.13-27.79Z"/>
      <path class="cls-1" d="m1095.87,244.46c-4.56-3.43-8.86-5.22-14.54-5.8-6.85-.7-14.43.57-19.12,5.62-4.69,5.05-4.65,14.51,1.33,17.93-5.82-4.22-12.92-7.02-20.09-6.55-7.17.47-14.3,4.63-17.14,11.23s-.44,15.37,5.94,18.67c-4.05-5.06-12.84-4.38-16.98.6-4.14,4.98-3.81,12.72-.27,18.15,3.53,5.43,9.67,8.75,15.98,10.21-3.45.59-5.09,5-4.02,8.33,1.07,3.33,3.95,5.71,6.77,7.78,3.88,2.84,8.09,5.52,12.83,6.3,4.75.79,10.17-.75,12.74-4.81,6.94,9.7,23.2,10.57,31.14,1.67,1.19,3.33,2.32,5.01,5.41,3.32v-92.65Z"/>
      <path class="cls-2" d="m301.67,296.38c-.35,9.15,5.14,12.02-145.72,31.92-68.8,9.08-102.01,101.79-102.01,101.79h54.28s8.87-57.82,87.93-69.97c21.19-3.26,51.79-.55,71.94-7.89,20.15-7.34,55.34-19.96,58.91-41.11-5.91-3.06-11.83-6.12-17.74-9.19l-7.59-5.56Z"/>
      <path class="cls-2" d="m1095.87,430.09c-14.35-11.94-39.11-25.65-57.14-30.46-187.3-49.88-466.9-9.23-597.27-23.64-35.49-3.92-118.83-32.83-134.03-47.82-15.2-14.99-25.08-36.46-22.28-57.62,4.65-35.07,26.4-54.79,57.45-71.75,62.76-34.27,83.39-63.99,83.39-63.99h27.7s-25.74,48.4-67.55,69.25c-101.23,50.45-31.13,96.34-20.06,103.41,52.69,33.64,118.87,36.28,181.38,35.14,92.19-1.68,184.25-9.31,276.45-8.71,92.2.6,185,9.66,271.97,40.3v55.89Z"/>
    </g>
  </g>
</svg>